<?xml version="1.0" encoding="utf-8"?>
<svg width="30%" viewBox="-31 -31 62 68" xmlns="http://www.w3.org/2000/svg">
  <path d="M -30 -30 L -18.137 -30 C -16.946 -29.216 -15.672 -28.705 -14.26 -28.461 C -12.317 -28.125 -10.009 -26.977 -8.294 -25.183 C -6.579 -23.388 -5.631 -21.261 -5.479 -19.272 C -5.328 -17.282 -4.376 -15.155 -2.66 -13.36 C -0.945 -11.566 1.209 -10.441 3.306 -10.079 C 5.402 -9.716 7.557 -8.595 9.272 -6.801 C 10.987 -5.006 11.94 -2.879 12.091 -0.889 C 12.242 1.1 13.191 3.227 14.906 5.022 C 16.621 6.816 18.775 7.937 20.872 8.3 C 22.945 8.659 25.075 9.762 26.781 11.522 C 23.502 18.929 18.201 24.451 13.177 28.357 C 12.705 27.148 11.952 25.957 10.928 24.885 C 9.213 23.091 7.058 21.97 4.962 21.607 C 2.865 21.244 0.711 20.124 -1.004 18.329 C -2.719 16.535 -3.672 14.403 -3.823 12.414 C -3.974 10.425 -4.923 8.298 -6.638 6.503 C -8.353 4.708 -10.508 3.588 -12.604 3.225 C -14.701 2.862 -16.855 1.742 -18.57 -0.053 C -20.286 -1.848 -21.238 -3.975 -21.389 -5.964 C -21.541 -7.953 -22.493 -10.084 -24.208 -11.879 C -25.877 -13.625 -27.958 -14.733 -30 -15.126 Z" style="fill:#000099;strokeWidth:0"/>
</svg>