<?xml version="1.0" encoding="utf-8"?>
<svg width="30%" viewBox="-31 -31 62 68" xmlns="http://www.w3.org/2000/svg">
  <path d="M -14.996 -15 L -29.996 -15 L -29.996 -30 L -14.996 -30 Z M 15.004 -15 L 0.004 -15 L 0.004 -30 L 15.004 -30 Z M -14.996 -15 L 0.004 -15 L 0.004 0 L -14.996 0 Z M 15.004 -15 L 30 -15 L 30 -4 C 30 -2.627 29.933 -1.293 29.805 0 L 15.004 0 Z M -14.996 15 L -25.024 15 C -27.451 10.744 -29.233 5.765 -29.804 0 L -14.996 0 Z M 15.004 15 L 0.004 15 L 0.004 0 L 15.004 0 Z M 0 15 L 0 30 L -10.951 30 C -12.271 29.075 -13.635 28.035 -15 26.875 L -15 15 Z M 15 15 L 25.024 15 C 22.246 19.87 18.623 23.795 15 26.875 Z M 0 30 L 10.951 30 C 5.019 34.16 0 36 0 36 Z" style="fill: rgb(217, 48, 48);"/>
</svg>