<?xml version="1.0" encoding="utf-8"?>
<svg width="30%" viewBox="-31 -31 62 68" xmlns="http://www.w3.org/2000/svg">
  <path d="M -15 -25.981 C -10.689 -28.47 -6.145 -29.752 -1.67 -30 L 1.58 -30 C 16.046 -29.2 29.002 -17.801 29.945 -1.866 C 29.365 9.317 24.273 17.679 18.447 23.659 C 17.362 24.505 16.211 25.282 15 25.981 C 3.64 32.54 -9.333 30.716 -18.422 23.685 C -24.253 17.708 -29.356 9.347 -29.944 -1.84 C -29.331 -11.842 -23.748 -20.93 -15 -25.981 Z M -9.001 15.59 C 3 22.519 18.002 13.858 18.002 0 C 18.002 -6.431 14.571 -12.374 9.001 -15.59 C -3 -22.519 -18.002 -13.858 -18.002 0 C -18.002 6.431 -14.571 12.374 -9.001 15.59 Z" style="fill:#000099;strokeWidth:0"/>
</svg>