<?xml version="1.0" encoding="utf-8"?>
<svg width="30%" viewBox="-31 -31 62 68" xmlns="http://www.w3.org/2000/svg">
  <path d="M -30 -30 L -18.394 -30 L -19.834 -26.568 L -8.616 -29.455 L -12.903 -19.239 L -1.685 -22.126 L -5.972 -11.91 L 5.246 -14.797 L 0.959 -4.581 L 12.177 -7.468 L 7.889 2.748 L 19.107 -0.14 L 14.82 10.077 L 26.038 7.189 L 21.751 17.406 L 23.898 16.853 C 20.6 21.967 16.403 25.942 12.45 28.912 L 6.245 30.509 L 10.533 20.293 L -0.685 23.181 L 3.602 12.964 L -7.616 15.852 L -3.329 5.635 L -14.547 8.523 L -10.26 -1.693 L -21.478 1.194 L -17.191 -9.022 L -28.409 -6.135 L -24.121 -16.351 L -30 -14.838 Z" style="fill:#000099;strokeWidth:0"/>
</svg>