<?xml version="1.0" encoding="utf-8"?>
<svg width="30%" viewBox="-31 -31 62 68" xmlns="http://www.w3.org/2000/svg">
  <path d="M 26.862 11.337 C 26.52 11.363 26.173 11.375 25.823 11.372 C 22.391 11.346 19.298 9.922 17.077 7.645 C 14.813 9.966 11.643 11.398 8.144 11.371 C 5.116 11.348 2.351 10.237 0.217 8.412 C -1.964 10.277 -4.802 11.395 -7.897 11.371 C -11.328 11.345 -14.422 9.922 -16.643 7.646 C -18.907 9.967 -22.076 11.398 -25.575 11.371 C -26.016 11.368 -26.452 11.341 -26.881 11.293 C -19.202 28.959 0 36 0 36 C 0 36 19.171 28.971 26.862 11.337 Z" style="fill:#000099;strokeWidth:0"/>
</svg>