<?xml version="1.0" encoding="utf-8"?>
<svg width="30%" viewBox="-31 -31 62 68" xmlns="http://www.w3.org/2000/svg">
  <path d="M -30 -30 L 30 -30 L 30 -22.769 L -30 -22.769 Z M 30 -4 C 30 -3.754 29.998 -3.51 29.994 -3.267 L -29.994 -3.267 C -29.998 -3.51 -30 -3.754 -30 -4 L -30 -12.948 L 30 -12.948 Z M 0 36 C 0 36 -8.03 33.055 -15.782 26.197 L 15.782 26.197 C 8.03 33.055 0 36 0 36 Z M -28.571 6.554 L 28.571 6.554 C 27.542 10.203 26.018 13.469 24.201 16.376 L -24.201 16.376 C -26.018 13.469 -27.542 10.203 -28.571 6.554 Z" style="fill:#000099;strokeWidth:0"/>
</svg>