<?xml version="1.0" encoding="utf-8"?>
<svg width="30%" viewBox="-31 -31 62 68" xmlns="http://www.w3.org/2000/svg">
  <path d="M 0 36 C 0 36 -1.6 35.413 -4.061 34.154 L 0.036 30.057 L 4.108 34.13 C 1.62 35.406 0 36 0 36 Z M 10.642 19.45 L 21.249 8.844 L 25.86 13.454 C 23.386 18.288 20.063 22.252 16.626 25.434 Z M -10.571 19.45 L 0.036 8.844 L 10.642 19.45 L 0.036 30.057 Z M 10.642 -1.763 L 21.249 -12.369 L 29.998 -3.621 C 29.986 -2.267 29.908 -0.953 29.771 0.322 L 21.249 8.844 Z M -10.571 19.45 L -16.588 25.468 C -20.028 22.291 -23.355 18.331 -25.835 13.502 L -21.18 8.847 L -21.18 8.847 L -21.178 8.845 L -21.177 8.844 Z M 10.642 -1.763 L 0.036 8.844 L -10.571 -1.763 L 0.036 -12.369 Z M -21.178 8.846 L -21.18 8.847 L -29.779 0.248 C -29.909 -0.982 -29.984 -2.247 -29.998 -3.549 L -21.18 -12.367 L -10.574 -1.76 Z M -10.574 -22.973 L -3.547 -30 L 3.613 -30 L 10.64 -22.973 L 0.033 -12.367 Z M -10.574 -22.973 L -21.18 -12.367 L -30 -21.186 L -30 -24.76 L -24.76 -30 L -17.6 -30 Z M 21.246 -12.367 L 10.64 -22.973 L 17.666 -30 L 24.826 -30 L 30 -24.826 L 30 -21.12 Z" style="fill:#000099;strokeWidth:0"/>
</svg>