<?xml version="1.0" encoding="utf-8"?>
<svg width="30%" viewBox="-31 -31 62 68" xmlns="http://www.w3.org/2000/svg">
  <path fill="none" stroke="#000" d="M 7.562 -0.565 C 7.021 0.802 6.447 2.134 6.394 3.535 C 6.644 4.665 6.567 5.998 6.297 7.061 C 5.946 8.518 4.581 10.195 3.224 10.771 C 1.867 11.349 1.001 11.488 -0.543 11.488" style="stroke-width: 0;" transform="matrix(1, 0, 0, 1, 30.920219069407274, -0.0000028544639860683674)"/>
  <path fill="none" stroke="#000" d="M -7.232 0.051 C -6.787 1.137 -6.651 1.549 -6.331 2.633 C -6.058 3.635 -5.956 4.245 -5.789 5.667 M 6.173 -0.008 C 5.728 1.083 5.591 1.49 5.27 2.573 C 4.997 3.574 4.897 4.185 4.729 5.61" style="stroke-width: 0;" transform="matrix(1, 0, 0, 1, 30.920219069407274, -0.0000028544639860683674)"/>
  <path stroke="#000" d="M -4.954 2.96 L -4.985 6.314 M -3.898 3.316 L -3.914 6.907 M -2.728 3.468 L -2.762 7.229 M -1.673 3.552 L -1.69 7.365 M -0.489 3.587 L -0.489 7.399 M 0.647 3.565 L 0.663 7.375 M 1.67 3.459 L 1.701 7.204 M 2.856 3.255 L 2.871 6.846 M 3.926 2.808 L 3.958 6.194" style="stroke-width: 0;" transform="matrix(1, 0, 0, 1, 30.920219069407274, -0.0000028544639860683674)"/>
  <path d="M 6.643 4.164 L 6.378 5.765 L 6.6 5.846 L 11.925 8.427 C 12.574 8.712 13.094 8.622 13.582 8.459 C 14.349 8.223 14.954 8.361 15.594 8.63 C 16.362 9.037 16.384 9.607 15.886 10.185 C 15.431 10.739 14.977 11.016 14.425 11.569 C 14.306 12.465 14.382 13.287 14.004 14.109 C 13.528 14.832 13.018 14.708 12.218 13.94 C 11.406 13.284 11.697 12.562 10.529 11.501 L 5.594 8.822 L 5.387 8.752 C 3.606 11.323 -0.288 12.13 -3.348 11.175 C -3.678 11.084 -4.022 10.968 -4.405 10.822 C -4.882 10.619 -5.36 10.272 -5.793 9.844 C -6.138 9.542 -6.444 9.201 -6.702 8.82 L -7.068 8.948 L -11.969 11.659 C -12.348 12.131 -12.663 12.709 -12.944 13.214 C -13.149 13.596 -13.485 13.914 -13.755 14.264 C -14.371 14.761 -15.087 14.818 -15.411 13.792 C -15.498 12.953 -15.519 12.351 -15.671 11.651 C -16.147 11.162 -16.526 10.812 -17.067 10.258 C -17.532 9.754 -17.543 9.07 -16.969 8.598 C -14.956 7.897 -15.022 8.956 -13.365 8.524 C -11.331 7.71 -9.719 6.798 -7.945 5.813 L -7.678 5.717 L -7.924 4.239 C -10.401 2.967 -12.989 1.671 -15.554 0.424 C -16.88 0.147 -17.399 0.823 -18.837 0.448 C -19.344 0.318 -20.284 -0.024 -19.664 -1.066 C -19.236 -1.791 -18.646 -2.133 -18.125 -2.719 C -18.08 -3.476 -18.103 -4.258 -17.805 -4.99 C -17.339 -5.821 -16.918 -5.682 -16.335 -5.381 C -15.011 -4.542 -15.363 -3.509 -14.27 -2.605 C -12.269 -1.449 -10.588 -0.677 -8.571 0.346 L -8.721 -0.561 C -8.721 -0.562 -8.722 -0.562 -8.722 -0.563 L -8.722 -0.565 C -11.545 -1.354 -10.885 -5.264 -10.538 -6.704 L -10.542 -6.704 C -12.035 -8.218 -13.077 -10.848 -13.223 -13.685 C -13.379 -16.811 -11.802 -19.913 -9.437 -21.688 C -6.788 -23.635 -2.359 -24.172 0.396 -24.025 C 2.261 -24.024 6.417 -23.014 7.885 -21.874 C 10.458 -19.92 11.837 -17.148 11.932 -13.989 C 12.073 -10.844 10.817 -8.441 9.269 -6.931 C 9.584 -5.733 10.488 -1.418 7.426 -0.565 L 7.279 0.321 L 7.38 0.285 C 9.393 -0.757 11.049 -1.587 12.867 -2.532 C 13.981 -3.503 13.7 -4.441 14.588 -5.141 C 15.464 -6.01 16.049 -5.796 16.374 -5.31 C 16.686 -4.485 16.839 -3.661 16.795 -2.803 C 17.628 -1.999 18.072 -1.538 18.548 -0.802 C 18.613 0.123 17.834 0.508 16.892 0.519 C 15.659 0.755 15.464 -0.057 14.068 0.519 L 6.698 4.145 Z M -0.918 -4.739 C -1.675 -4.138 -1.843 -3.936 -2.261 -3.272 C -2.412 -3.015 -2.695 -2.417 -2.772 -2.015 C -2.85 -1.612 -2.907 -1.029 -2.906 -0.72 C -2.898 0.326 -2.586 0.981 -2.235 0.959 C -1.923 0.919 -1.526 0.577 -0.925 -0.188 Z M -0.356 -0.18 C 0.245 0.585 0.642 0.927 0.954 0.968 C 1.298 0.992 1.617 0.333 1.617 -0.71 C 1.625 -1.019 1.563 -1.605 1.485 -2.004 C 1.407 -2.403 1.126 -3.005 0.97 -3.258 C 0.557 -3.925 0.385 -4.129 -0.371 -4.723 Z M -7.32 -9.339 C -8.615 -8.965 -8.983 -7.768 -8.748 -6.962 C -8.443 -6.099 -8.241 -5.733 -8.007 -5.033 C -7.461 -4.218 -6.962 -3.868 -6.416 -3.706 C -5.737 -3.469 -5.027 -3.575 -4.435 -4.275 C -3.67 -5.204 -3 -6.164 -2.524 -7.255 C -2.15 -8.493 -2.844 -10.129 -4.216 -9.763 C -5.269 -9.641 -6.283 -9.518 -7.336 -9.323 Z M 6.086 -9.323 C 5.041 -9.518 4.019 -9.641 2.974 -9.763 C 1.602 -10.129 0.908 -8.493 1.29 -7.255 C 1.765 -6.164 2.436 -5.204 3.208 -4.275 C 3.809 -3.575 4.518 -3.469 5.189 -3.706 C 5.735 -3.868 6.242 -4.218 6.78 -5.033 C 7.022 -5.733 7.225 -6.099 7.529 -6.962 C 7.771 -7.768 7.396 -8.965 6.102 -9.339 Z" style="fill: rgb(216, 216, 216);"/>
</svg>