<?xml version="1.0" encoding="utf-8"?>
<svg width="30%" viewBox="-31 -31 62 68" xmlns="http://www.w3.org/2000/svg">
  <path d="M -9.953 -18.708 C -4.882 -22.325 1.223 -23 6.691 -20.554 C 11.651 -18.322 15.456 -13.7 16.945 -8.078 C 18.669 -1.546 17.202 5.424 13.037 10.531 C 12.233 11.506 10.136 13.457 9.228 14.057 C 5.936 16.239 2.469 17.218 -1.173 16.997 C -3.263 16.877 -4.858 16.492 -6.815 15.659 C -9.312 14.592 -11.681 12.775 -13.479 10.554 C -14.198 9.667 -15.035 8.432 -15.197 8.048 C -15.294 7.789 -15.099 7.261 -14.841 7.119 C -14.536 6.942 -14.284 7.006 -13.804 7.383 C -10.863 9.725 -7.282 10.454 -3.799 9.431 C -2.001 8.897 -0.557 8.034 0.897 6.615 C 2.296 5.25 3.337 3.705 3.459 2.81 C 3.493 2.575 3.502 2.062 3.473 1.671 C 3.45 1.273 3.451 0.892 3.469 0.821 C 3.536 0.566 4.167 0.474 5.277 0.014 C 5.89 -0.245 6.613 -1.316 6.629 -1.358 C 6.652 -1.408 5.602 -0.841 5.047 -0.909 C 4.035 -1.036 3.481 -1.147 3.381 -1.456 C 3.336 -1.589 3.429 -1.692 3.924 -2.095 C 4.448 -2.525 4.541 -2.641 4.696 -3.05 C 4.796 -3.311 4.855 -3.654 4.836 -3.813 L 4.8 -4.104 L 2.751 -3.666 C 1.635 -3.43 1.083 -3.096 0.798 -3.062 L -0.068 -3.116 L 0.182 -4.148 C 0.742 -4.871 0.975 -4.905 1.231 -5.589 C 2.095 -7.952 1.608 -10.709 -0.019 -12.719 C -1.438 -14.47 -3.2 -15.371 -5.621 -15.59 C -6.314 -15.647 -7.286 -15.661 -7.769 -15.612 C -9.336 -15.454 -11.253 -14.792 -12.536 -13.961 C -13.123 -13.578 -13.446 -13.561 -13.716 -13.895 C -13.993 -14.236 -14.016 -14.512 -13.804 -14.896 C -13.511 -15.426 -10.809 -18.105 -9.953 -18.708 Z M 3.611 -11.712 C 3.375 -11.035 3.657 -10.7 4.392 -10.778 C 5.385 -10.891 5.961 -12.276 6.478 -13.159 C 6.799 -13.703 6.978 -13.888 6.226 -13.941 C 5.223 -13.995 3.932 -12.624 3.611 -11.712 Z" style="fill:#000099;strokeWidth:0"/>
</svg>