<?xml version="1.0" encoding="utf-8"?>
<svg width="30%" viewBox="-31 -31 62 68" xmlns="http://www.w3.org/2000/svg">
  <path d="M 9.071 -16.912 C 9.249 -16.903 9.419 -16.842 9.492 -16.702 C 10.723 -16.764 11.171 -16.478 11.945 -16.301 C 13.023 -16.014 14.018 -15.737 15.525 -15.722 C 16.421 -15.646 16.558 -15.423 16.78 -15.051 C 16.851 -14.788 16.902 -14.712 16.813 -14.465 C 16.813 -14.302 16.568 -14.344 16.427 -14.298 C 16.074 -14.076 15.795 -14.039 15.231 -14.097 C 15.382 -13.822 16.161 -13.895 16.46 -14.118 C 16.379 -13.854 16.322 -13.573 16.042 -13.573 C 15.659 -13.527 14.971 -13.656 14.419 -13.611 C 13.51 -13.618 12.734 -13.38 12.02 -13.117 C 11.711 -12.975 11.401 -12.835 11.091 -12.696 C 10.891 -12.609 10.714 -12.63 10.367 -12.812 C 10.348 -12.567 10.556 -12.386 11.208 -12.499 C 11.614 -11.75 12.175 -11.071 12.723 -10.5 C 13.231 -10.066 13.527 -9.864 13.919 -9.422 C 14.202 -9.068 14.711 -8.374 14.213 -8.036 C 13.705 -8.567 12.166 -9.028 11.788 -9.052 C 13.619 -8.187 13.246 -7.652 13.817 -5.425 C 13.48 -5.963 12.63 -5.977 11.497 -6.66 C 12.999 -4.764 13.607 -4.991 13.357 -3.056 C 13.184 -3.41 12.252 -3.127 11.365 -4.093 C 12.552 -2.528 12.179 -1.72 12.186 -0.767 C 12.117 -0.829 12.047 -0.896 11.974 -0.969 C 11.801 -0.319 11.494 0.49 11.416 0.923 L 11.419 0.922 C 11.407 0.978 11.393 1.033 11.378 1.087 C 11.793 1.57 12.183 1.705 12.256 1.757 C 13.2 2.307 14.689 2.754 15.671 3.25 C 16.508 3.668 16.837 3.903 16.97 4.515 L 16.941 6.298 C 16.932 6.825 16.743 7.247 16.699 7.674 C 16.611 8.302 16.765 8.818 16.578 9.422 C 16.222 10.117 15.739 10.907 15.207 11.452 C 15.192 11.192 15.135 11.061 15 11.058 C 15.049 11.252 15.075 11.331 15.041 11.602 L 14.387 12.147 C 14.258 12.187 14.149 12.323 14.011 12.179 C 13.743 11.668 13.738 11.213 13.78 10.545 C 13.843 10.399 13.953 10.39 14.033 10.351 C 14.301 10.251 14.638 9.991 14.541 9.411 C 14.409 9.004 14.311 9.017 14.727 8.968 C 15.386 8.681 15.57 8.089 15.712 7.592 C 15.916 6.656 15.939 5.613 15.067 4.762 C 14.265 4.312 13.215 4.116 11.692 3.984 C 10.77 3.946 9.635 3.794 8.733 3.577 C 8.728 3.58 8.722 3.582 8.718 3.584 C 8.553 3.714 8.389 3.681 8.211 3.684 C 8.276 3.447 8.392 3.139 8.25 2.917 C 8.236 3.227 8.017 3.481 7.889 3.735 C 7.319 5.222 7.328 5.476 7.273 6.004 C 7.23 6.848 7.215 7.692 7.162 8.537 L 7.115 9.596 C 7.222 11.587 6.724 11.704 6.749 12.827 C 6.723 13.949 6.988 14.709 7.174 15.661 L 7.329 16.061 C 7.221 16.091 7.021 15.943 6.822 15.829 C 6.747 15.839 7.126 16.246 7.423 16.273 C 7.734 16.899 8.033 17.111 8.469 17.516 C 8.349 17.619 8.286 17.635 8.168 17.644 C 8.092 17.722 7.92 17.474 7.787 17.31 C 7.734 17.451 7.893 17.659 7.917 17.722 C 7.579 17.758 7.257 17.676 6.878 17.563 C 6.468 17.44 6.1 17.402 5.923 17.078 L 5.744 15.636 C 5.547 15.559 5.393 15.621 5.157 15.477 C 5.352 15.3 5.315 15.157 5.35 15.008 C 5.537 14.211 5.769 13.515 5.785 12.656 C 5.83 12.005 5.842 11.354 5.778 10.804 C 5.668 10.348 5.437 10.232 5.297 9.481 C 5.234 8.581 5.426 7.677 5.13 6.715 L 4.442 3.947 C 4.367 3.608 4.195 3.153 4.145 2.879 C 4.053 3.012 4.065 3.557 4.173 3.975 C 3.979 4.004 3.75 4.052 3.563 4.102 C 2.361 4.165 1.242 4.047 0.038 4.047 C -0.639 4.054 -1.341 4.076 -2.027 4.045 C -2.936 3.952 -3.703 3.946 -4.728 3.76 C -4.894 3.731 -5.053 3.704 -5.202 3.677 C -5.099 3.714 -4.99 3.761 -4.87 3.819 C -4.452 4.018 -5.073 4.101 -4.484 4.746 C -5.605 4.608 -6.815 4.271 -7.748 3.731 C -7.863 4.023 -7.974 4.31 -8.114 4.5 C -8.55 5.134 -8.703 5.762 -8.854 6.443 C -8.972 7.094 -8.969 7.341 -8.791 8.006 C -8.594 8.874 -8.31 9.772 -7.981 10.594 L -6.955 12.721 L -6.251 14.069 L -5.726 15.243 C -6.091 15.746 -5.649 15.764 -5.462 15.823 C -5.347 16.243 -5.215 16.398 -4.971 16.754 C -4.789 17.093 -6.6 17.217 -6.778 16.821 C -7.071 16.387 -7.066 16.031 -7.137 15.495 C -7.163 15.293 -7.097 14.97 -7.568 15.001 C -7.799 14.977 -8.001 15.026 -7.886 14.563 C -7.726 13.695 -8.055 13.328 -8.206 12.723 L -9.064 11.099 L -10.148 9.417 L -11.426 7.513 C -11.746 7.048 -11.36 6.758 -11.305 6.455 C -11.107 5.93 -11.122 5.259 -11.098 4.684 C -11.433 4.823 -11.765 4.973 -12.088 5.15 C -12.676 5.53 -13.361 6.021 -13.903 6.602 C -14.377 7.199 -14.714 7.899 -14.972 8.658 C -15.177 9.465 -15.214 10.277 -15.285 11.104 L -15.322 14.382 C -15.313 14.885 -15.276 15.442 -15.124 15.93 C -15.086 16.119 -14.918 16.328 -14.803 16.48 C -14.854 16.572 -15.027 16.559 -15.126 16.56 C -15.029 16.695 -14.677 16.718 -14.518 16.688 L -13.819 17.418 C -13.669 17.585 -13.798 17.672 -14.051 17.7 C -14.13 17.474 -14.231 17.215 -14.424 17.244 C -14.379 17.334 -14.262 17.58 -14.339 17.711 C -14.881 17.7 -15.627 17.546 -15.774 17.374 C -16.291 16.838 -16.113 16.036 -16.505 15.634 C -16.745 15.456 -16.979 15.434 -16.828 14.97 C -16.669 14.374 -16.701 13.768 -16.692 13.18 L -16.648 11.012 C -16.658 10.16 -16.62 9.322 -16.701 8.47 C -16.71 7.858 -16.747 7.469 -16.854 6.972 C -16.915 6.502 -16.6 6.374 -16.235 6.095 C -15.567 5.505 -15.143 5.021 -14.582 4.091 C -14.198 3.456 -13.974 2.852 -13.833 2.131 C -13.725 1.62 -13.603 0.998 -13.603 0.496 C -13.677 0.152 -13.623 -0.163 -13.389 -0.59 C -13.667 -0.466 -13.894 -0.198 -13.841 0.418 C -13.986 0.348 -14.117 0.234 -14.211 0.054 C -14.38 -0.366 -14.547 -0.673 -14.422 -1.168 C -14.199 -1.827 -13.84 -2.348 -13.359 -2.852 C -12.878 -3.357 -12.378 -3.668 -11.807 -3.985 C -10.659 -4.591 -9.538 -4.908 -8.024 -4.955 C -6.58 -4.963 -5.136 -4.978 -3.703 -4.978 C -2.019 -5.063 -0.486 -5.278 1.118 -5.418 C 2.231 -5.587 3.117 -5.844 3.758 -6.581 C 3.848 -6.63 3.935 -6.681 4.021 -6.728 C 4.491 -7.327 4.9 -8.537 5.003 -8.949 C 5.181 -9.941 5.163 -10.926 5.297 -11.926 C 5.41 -12.903 5.702 -13.958 5.944 -14.908 C 6.03 -15.04 6.175 -15.033 6.721 -14.932 C 6.673 -15.094 6.378 -15.147 6.015 -15.2 C 5.617 -15.276 5.255 -15.384 4.945 -15.538 C 3.876 -15.918 3.684 -16.488 2.945 -17.068 C 3.738 -17.3 4.253 -17.289 4.723 -17.212 C 5.615 -17.11 5.895 -16.84 6.269 -16.629 C 6.314 -16.599 6.489 -16.47 6.551 -16.448 C 7.073 -16.035 7.225 -15.85 7.576 -15.957 C 7.309 -16.1 7.251 -16.168 6.997 -16.321 C 7.125 -16.551 7.446 -16.577 7.684 -16.727 C 7.606 -16.761 7.521 -16.8 7.431 -16.848 C 5.898 -17.877 5.383 -17.896 4.137 -17.819 C 3.093 -17.78 1.812 -17.563 1.056 -17.555 C 0.039 -17.726 -0.452 -18.067 -1.245 -18.322 C -2.547 -18.88 -3.295 -19.027 -4.523 -19.236 C -6.021 -19.375 -6.913 -19.329 -8.391 -19.779 C -9.061 -20.079 -9.17 -20.177 -9.195 -20.456 C -9.024 -20.792 -8.799 -20.652 -8.594 -20.551 C -8.068 -20.342 -7.633 -20.071 -6.975 -19.93 C -6.431 -19.788 -6.158 -20.178 -6.594 -20.506 C -7.51 -21.274 -7.975 -21.934 -8.323 -22.756 C -8.431 -23.381 -8.151 -23.414 -7.935 -23.24 C -7.586 -22.666 -7.344 -22.177 -6.899 -21.657 C -6.694 -21.434 -6.51 -21.21 -6.074 -21.009 C -5.699 -20.885 -5.333 -21.038 -5.554 -21.638 C -5.624 -22.437 -5.82 -23.074 -6.016 -23.801 C -6.099 -24.739 -6.104 -25.153 -5.926 -25.803 C -5.557 -26.412 -5.471 -26.054 -5.305 -25.795 C -5.171 -24.928 -5.062 -24.149 -5.054 -23.181 C -5.01 -22.639 -4.876 -21.936 -4.555 -21.386 C -4.193 -20.781 -3.628 -20.767 -3.414 -21.303 C -3.145 -21.876 -2.96 -22.495 -2.621 -23.059 C -2.453 -23.486 -2.238 -23.828 -2.033 -24.23 C -1.434 -24.664 -1.312 -24.357 -1.348 -23.988 C -1.676 -23.237 -2.087 -22.576 -2.354 -21.779 C -2.632 -20.935 -2.532 -20.562 -2.248 -20.054 C -1.974 -19.673 -1.749 -19.443 -1.482 -19.226 C -1.18 -19.055 -0.755 -18.833 -0.462 -18.67 C -0.097 -18.522 0.877 -18.345 1.116 -18.575 C 0.68 -19.172 0.095 -20.338 -0.002 -20.579 C -0.164 -21.005 -0.245 -21.243 -0.18 -21.646 C 0.052 -22.125 0.361 -21.86 0.441 -21.574 C 0.549 -21.154 0.568 -20.774 0.71 -20.387 C 0.888 -20.014 1.199 -19.583 1.527 -19.343 C 1.893 -19.034 2.284 -18.886 2.961 -18.709 C 3.681 -18.506 4.402 -18.39 5.24 -18.43 C 5.454 -18.43 5.681 -18.468 5.895 -18.475 C 5.797 -19.265 5.86 -20.063 5.965 -20.813 C 6.109 -21.216 6.219 -21.497 6.647 -21.862 C 6.894 -22.089 7.062 -22.03 6.973 -21.719 C 6.643 -21.286 6.642 -20.78 6.581 -20.247 C 6.598 -19.813 6.509 -19.334 6.768 -18.9 C 7.062 -18.481 7.567 -18.073 8.094 -17.989 C 9.202 -17.748 9.62 -18.267 9.907 -18.539 C 10.406 -18.933 10.823 -19.438 11.171 -19.933 C 11.295 -20.126 11.393 -20.298 11.529 -20.469 C 11.883 -20.815 11.995 -20.433 11.873 -20.038 C 11.721 -19.372 11.427 -19.006 11.062 -18.595 C 10.724 -18.138 10.316 -17.934 9.825 -17.841 C 9.085 -17.606 9.012 -17.114 9.071 -16.912 Z M -7.482 3.123 C -7.151 3.32 -6.785 3.496 -6.473 3.507 C -6.359 3.51 -6.251 3.512 -6.148 3.515 C -6.986 3.369 -7.385 3.267 -7.44 3.053 C -7.455 3.076 -7.468 3.099 -7.482 3.123 Z M 8.269 -16.615 C 8.548 -16.549 8.752 -16.581 8.795 -16.86 L 8.45 -16.886 C 8.46 -16.735 8.397 -16.643 8.269 -16.615 Z M 11.561 -15.285 C 11.32 -16.01 11.341 -16.023 10.765 -16.023 C 10.187 -16.022 9.012 -16.009 9.012 -16.009 C 9.012 -16.009 9.868 -15.776 10.285 -15.548 C 10.701 -15.318 10.6 -15.269 11.561 -15.285 Z M -16.227 8.092 C -16.105 7.404 -16.014 7.086 -15.681 6.97 C -16.298 6.646 -16.274 7.813 -16.227 8.092 Z M -10.25 8.076 C -10.525 7.415 -10.607 7.272 -10.578 6.707 C -10.934 7.228 -10.51 7.887 -10.25 8.076 Z" style="fill:#000099;strokeWidth:0"/>
</svg>