<?xml version="1.0" encoding="utf-8"?>
<svg width="30%" viewBox="-31 -31 62 68" xmlns="http://www.w3.org/2000/svg">
  <path d="M 23.803 -17.713 C 23.848 -17.395 20.434 -15.406 18.3 -14.737 C 17.181 -14.385 15.327 -13.489 14.705 -12.897 C 14.106 -12.327 12.414 -11.89 12.304 -11.288 C 12.192 -10.686 10.015 -6.616 9.092 -5.879 C 8.17 -5.144 7.1 -5.013 6.906 -4.679 C 6.711 -4.344 6.41 -4.202 6.054 -4.157 C 5.698 -4.114 4.53 -3.937 4.745 -3.548 C 4.96 -3.159 7.526 -0.812 8.043 -0.564 C 8.561 -0.314 7.433 -0.522 7.416 -0.209 C 7.4 0.105 7.861 1.052 8.271 1.107 C 8.679 1.16 11.649 1.488 12.669 1.5 C 13.691 1.515 16.657 1.842 17.066 1.896 C 17.476 1.949 18.927 0.908 18.934 1.149 C 18.941 1.39 18.16 2.732 17.705 2.821 C 17.249 2.912 15.933 3.28 15.917 3.595 C 15.901 3.907 15.52 4.021 15.372 4.213 C 15.224 4.403 13.321 4.559 13.228 4.847 C 13.134 5.136 12.787 5.602 12.586 5.695 C 12.384 5.789 10.268 5.468 10.02 5.705 C 9.773 5.943 9.351 6.523 9.072 6.592 C 8.794 6.66 7.564 5.781 7.192 6.139 C 6.819 6.495 6.268 6.066 5.758 6.06 C 5.247 6.053 4.101 6.001 3.915 5.781 C 3.73 5.561 2.744 4.964 2.441 5.105 C 2.138 5.245 1.553 5.214 1.553 5.214 C 1.553 5.214 1.053 6.484 1.185 6.607 C 1.316 6.729 3.133 7.59 3.17 7.951 C 2.777 7.794 1.424 7.459 1.222 7.552 C 1.074 8.226 0.874 8.522 1.854 9.536 C 2.11 9.799 1.179 9.025 1.034 8.953 C 0.805 8.839 0.862 9.682 0.97 10.184 C 1.071 10.667 0.274 9.426 0.29 8.733 C 0.302 8.201 -0.11 8.121 -0.43 8.713 C -0.614 9.053 -1.302 9.782 -0.599 10.251 C 0.102 10.718 0.766 11.57 0.732 12.197 C 0.698 12.824 0.563 11.665 0.076 11.585 C -0.411 11.507 -0.429 10.356 -2.395 10.781 C -2.988 10.91 -2.917 12.125 -2.709 12.272 C -2.5 12.419 -1.729 12.673 -1.729 12.673 C -1.729 12.673 -2.419 12.686 -2.358 13.025 C -2.298 13.363 -1.968 14.35 -2.097 14.066 C -2.577 13.008 -3.782 12.404 -3.597 11.618 C -3.065 9.366 -1.812 9.73 -1.26 8.555 C -0.706 7.38 -0.833 6.509 -1.32 6.43 C -1.807 6.352 -5.05 2.667 -6.666 2.38 C -8.281 2.093 -9.568 2.371 -10.017 2.702 C -10.467 3.034 -12.883 5.351 -13.293 5.297 C -13.703 5.243 -12.142 2.669 -12.236 1.124 C -12.332 -0.421 -12.773 -0.642 -12.531 -1.121 C -12.291 -1.601 -9.841 -2.558 -10.11 -3.045 C -10.379 -3.531 -16.377 -8.987 -16.709 -9.016 C -17.041 -9.044 -18.192 -9.18 -18.192 -9.18 C -18.192 -9.18 -19.717 -10.792 -20.15 -10.774 C -20.584 -10.755 -18.045 -17.354 -18.241 -17.959 C -18.464 -18.652 -17.5 -17.873 -17.514 -17.565 C -17.531 -17.251 -18.092 -14.382 -17.676 -14.148 C -17.323 -13.951 -13.739 -18.409 -13.504 -19.129 C -13.27 -19.849 -13.882 -17.209 -13.558 -16.598 C -13.41 -16.32 -14.041 -16.119 -14.384 -15.593 C -14.725 -15.067 -15.753 -14.257 -14.827 -14.538 C -13.828 -14.841 -11.36 -16.716 -11.454 -16.427 C -11.548 -16.138 -10.441 -16.104 -12.975 -13.355 C -14.617 -11.574 -10.197 -14.068 -8.73 -13.59 C -7.262 -13.113 -7.345 -13.38 -8.675 -12.698 C -10.009 -12.016 -10.819 -11.718 -6.269 -11.435 C -3.883 -11.286 -5.873 -11.114 -5.913 -10.727 C -5.953 -10.342 -4.766 -9.268 -3.668 -9.23 C -2.57 -9.191 -0.7 -7.551 0.276 -8.189 C 1.253 -8.829 6.63 -15.089 7.22 -15.796 C 7.84 -16.54 10.6 -15.92 12.975 -16.598 C 15.847 -17.417 19.547 -18.624 21.382 -18.454 C 21.787 -18.416 22.616 -18.249 23.191 -18.059 C 23.536 -17.945 23.788 -17.822 23.803 -17.713 Z M -0.615 4.948 C -1.633 5.627 -0.961 5.388 -0.487 5.865 C 0.434 6.794 0.223 6.761 0.342 6.1 C 0.475 5.355 0.917 4.985 0.504 5.108 C 0.504 5.108 0.23 4.92 -0.055 4.832 C -0.277 4.764 -0.427 4.824 -0.615 4.948 Z" style="fill:#000099;strokeWidth:0"/>
</svg>