<?xml version="1.0" encoding="utf-8"?>
<svg width="30%" viewBox="-31 -31 62 68" xmlns="http://www.w3.org/2000/svg">
  <path d="M -13.763 15.521 C -13.751 15.488 -13.683 15.283 -13.613 15.064 C -13.36 14.265 -13.228 13.579 -13.14 12.589 L -13.086 11.985 L -13.123 11.607 C -13.2 10.837 -13.419 9.79 -13.668 8.995 C -13.959 8.065 -14.122 7.242 -14.175 6.439 L -14.204 5.982 L -14.284 5.592 C -14.368 5.181 -14.73 3.855 -14.829 3.595 C -14.862 3.511 -14.958 3.29 -15.043 3.104 C -15.535 2.034 -16.189 -0.154 -16.425 -1.518 L -16.51 -2.008 L -16.527 -2.637 L -16.544 -3.267 L -16.505 -3.721 C -16.484 -3.971 -16.437 -4.381 -16.401 -4.632 C -16.366 -4.883 -16.328 -5.223 -16.316 -5.386 L -16.296 -5.681 L -16.368 -6.096 C -16.409 -6.324 -16.537 -7.022 -16.652 -7.645 C -16.989 -9.461 -17.151 -10.545 -17.28 -11.86 L -17.339 -12.47 L -17.333 -14.213 L -17.327 -15.957 L -17.309 -16.062 L -17.289 -16.167 L -18.004 -16.164 L -18.718 -16.16 L -18.915 -16.205 C -19.221 -16.274 -19.517 -16.379 -19.768 -16.508 L -19.998 -16.625 L -20.21 -16.788 C -20.328 -16.878 -20.501 -17.033 -20.596 -17.132 L -20.768 -17.313 L -20.523 -17.464 L -20.277 -17.614 L -20.302 -17.636 C -20.315 -17.648 -20.448 -17.7 -20.597 -17.751 L -20.869 -17.842 L -20.645 -18.005 L -20.421 -18.167 L -20.248 -18.349 L -20.073 -18.53 L -19.981 -18.697 L -19.887 -18.863 L -20.116 -18.943 C -20.55 -19.094 -21.006 -19.367 -21.398 -19.709 L -21.618 -19.902 L -21.833 -20.179 L -22.048 -20.457 L -22.38 -21.137 L -22.546 -21.747 L -22.564 -22.222 L -22.582 -22.698 L -22.47 -23.27 L -22.386 -23.49 L -22.301 -23.711 L -22.154 -23.947 L -22.007 -24.184 L -21.765 -24.43 L -21.523 -24.677 L -21.269 -24.849 C -20.951 -25.063 -20.451 -25.313 -20.055 -25.455 L -19.753 -25.563 L -19.701 -25.543 L -19.65 -25.522 L -19.683 -25.46 L -19.715 -25.398 L -20.259 -25.072 L -20.538 -24.781 L -20.819 -24.489 L -20.925 -24.269 L -21.032 -24.049 L -21.083 -23.795 L -21.135 -23.541 L -21.112 -23.321 L -21.09 -23.102 L -21.024 -22.881 L -20.959 -22.661 L -20.814 -22.369 L -20.668 -22.078 L -20.489 -21.873 L -20.31 -21.669 L -19.95 -21.423 L -19.728 -21.336 L -19.505 -21.249 L -19.276 -21.205 C -19.149 -21.181 -18.927 -21.15 -18.782 -21.138 L -18.519 -21.115 L -18.077 -21.282 C -17.557 -21.48 -17.206 -21.575 -16.733 -21.645 L -16.388 -21.697 L -15.748 -21.718 L -15.108 -21.738 L -14.518 -21.699 C -13.812 -21.651 -13.333 -21.586 -12.986 -21.489 L -12.73 -21.418 L -12.426 -21.476 C -12.259 -21.507 -11.989 -21.555 -11.826 -21.581 L -11.531 -21.63 L -11.056 -21.651 L -10.58 -21.671 L -10.186 -21.631 C -9.674 -21.577 -9.069 -21.455 -8.505 -21.292 C -8.257 -21.22 -7.975 -21.144 -7.879 -21.124 L -7.705 -21.087 L -6.967 -21.087 L -6.772 -21.138 C -6.664 -21.167 -6.499 -21.228 -6.406 -21.275 L -6.236 -21.36 L -6.075 -21.509 L -5.915 -21.658 L -5.81 -21.862 C -5.752 -21.974 -5.682 -22.138 -5.654 -22.228 L -5.604 -22.39 L -5.586 -22.779 L -5.568 -23.169 L -5.638 -23.473 L -5.708 -23.778 L -6.034 -24.458 L -6.478 -25.028 L -6.698 -25.219 L -6.919 -25.409 L -7.118 -25.519 L -7.319 -25.629 L -7.308 -25.685 L -7.297 -25.742 L -7.177 -25.752 L -7.055 -25.763 L -6.369 -25.525 L -6.128 -25.401 C -5.996 -25.333 -5.769 -25.196 -5.625 -25.098 L -5.362 -24.919 L -5.141 -24.709 L -4.919 -24.5 L -4.491 -23.948 L -4.201 -23.368 L -4.035 -22.776 L -4.013 -22.511 L -3.992 -22.246 L -4.03 -21.963 C -4.052 -21.806 -4.106 -21.534 -4.151 -21.357 L -4.232 -21.035 L -4.394 -20.696 L -4.557 -20.357 L -4.923 -19.899 L -5.152 -19.705 L -5.382 -19.512 L -5.676 -19.338 L -5.97 -19.165 L -6.326 -19.027 L -6.683 -18.89 L -7.181 -18.762 L -7.679 -18.635 L -7.488 -18.579 C -7.067 -18.456 -6.501 -18.173 -6.035 -17.853 L -5.723 -17.639 L -5.465 -17.363 L -5.517 -17.248 L -5.57 -17.134 L -5.712 -17.014 C -5.901 -16.856 -6.292 -16.608 -6.766 -16.349 L -7.152 -16.137 L -6.753 -15.901 C -6.132 -15.534 -5.628 -15.165 -4.936 -14.571 L -4.542 -14.233 L -3.784 -13.453 C -3.368 -13.024 -2.84 -12.458 -2.612 -12.195 L -2.198 -11.717 L -2.057 -11.681 C -1.638 -11.573 -0.776 -11.465 0.184 -11.401 L 0.741 -11.364 L 2.644 -11.352 L 4.548 -11.339 L 5.335 -11.305 C 5.769 -11.286 6.435 -11.27 6.816 -11.269 L 7.509 -11.268 L 8.325 -11.352 C 10.132 -11.537 11.73 -11.653 13.309 -11.71 L 14.326 -11.748 L 14.982 -11.726 C 15.344 -11.714 15.793 -11.69 15.981 -11.673 L 16.322 -11.641 L 16.464 -11.57 L 16.607 -11.499 L 16.705 -11.377 L 16.802 -11.254 L 16.964 -10.758 L 17.115 -10.584 C 17.197 -10.489 17.346 -10.287 17.444 -10.134 L 17.623 -9.857 L 17.771 -9.534 L 17.919 -9.213 L 18.034 -8.849 L 18.15 -8.485 L 18.231 -8.071 C 18.276 -7.843 18.338 -7.452 18.369 -7.202 L 18.424 -6.748 L 18.428 -4.446 L 18.382 -3.816 L 18.337 -3.186 L 18.47 -2.851 C 18.544 -2.667 18.725 -2.226 18.872 -1.873 C 19.558 -0.235 19.823 0.657 19.924 1.661 L 19.963 2.046 L 19.944 2.71 L 19.926 3.375 L 19.86 3.798 C 19.823 4.031 19.718 4.556 19.626 4.966 C 19.288 6.463 19.2 6.871 19.115 7.336 L 19.029 7.81 L 19.011 8.292 L 18.993 8.775 L 19.034 9.036 L 19.075 9.298 L 19.174 9.587 C 19.281 9.898 19.416 10.171 19.664 10.573 L 19.823 10.83 L 19.823 10.942 L 19.765 10.941 C 19.675 10.94 19.364 10.798 19.132 10.653 L 18.92 10.52 L 18.64 10.241 L 18.358 9.963 L 18.174 9.697 C 17.951 9.38 17.736 8.963 17.59 8.572 C 17.531 8.414 17.472 8.272 17.46 8.258 L 17.438 8.231 L 17.302 8.613 C 16.894 9.76 16.637 10.944 16.539 12.121 L 16.499 12.607 L 16.517 13.222 L 16.536 13.836 L 16.59 14.204 L 16.645 14.573 L 16.611 14.608 L 16.576 14.644 L 16.394 14.61 C 16.294 14.591 16.206 14.584 16.197 14.593 C 16.188 14.602 16.18 14.725 16.18 14.866 C 16.18 15.007 16.171 15.226 16.159 15.351 L 16.138 15.58 L 13.685 15.58 L 13.748 15.453 C 13.782 15.383 13.922 15.072 14.059 14.761 C 14.6 13.528 14.801 12.774 14.905 11.585 L 14.945 11.128 L 14.947 9.164 L 14.89 8.728 C 14.708 7.33 14.308 5.906 13.819 4.923 L 13.689 4.661 L 13.712 4.78 L 13.735 4.898 L 13.735 5.609 L 13.623 5.985 L 13.492 6.193 L 13.362 6.401 L 12.982 6.709 L 12.772 6.795 L 12.562 6.882 L 12.357 6.902 L 12.153 6.922 L 11.976 6.879 C 11.879 6.855 11.743 6.806 11.673 6.77 L 11.547 6.705 L 11.4 6.566 L 11.253 6.426 L 11.17 6.279 C 11.124 6.198 11.059 6.038 11.024 5.924 L 10.961 5.717 L 10.942 5.426 L 10.922 5.136 L 11.032 4.366 L 11.014 4.348 L 10.996 4.329 L 10.754 4.453 L 10.512 4.576 L 9.76 5.318 L 9.64 5.497 L 9.521 5.677 L 9.376 6.083 L 9.23 6.49 L 9.191 6.741 L 9.15 6.994 L 9.173 7.281 L 9.195 7.569 L 9.289 7.946 C 9.341 8.153 9.408 8.386 9.438 8.463 L 9.492 8.603 L 9.256 8.899 C 8.474 9.878 7.76 11.297 7.234 12.917 L 7.06 13.453 L 6.91 14.085 C 6.827 14.432 6.742 14.777 6.72 14.852 L 6.681 14.988 L 6.543 15.008 L 6.426 14.888 L 6.31 14.768 L 6.215 14.768 L 6.14 15.131 C 6.1 15.331 6.062 15.514 6.055 15.537 L 6.043 15.58 L 3.448 15.58 L 3.448 15.562 C 3.448 15.551 3.611 15.212 3.81 14.808 L 4.172 14.073 L 4.342 13.972 L 4.511 13.87 L 4.96 13.413 L 5.408 12.956 L 5.589 12.668 C 5.689 12.51 5.838 12.242 5.92 12.073 L 6.069 11.765 L 6.183 11.428 L 6.297 11.09 L 6.369 10.736 L 6.441 10.383 L 6.458 9.875 L 6.476 9.367 L 6.438 9.079 L 6.401 8.792 L 6.235 8.199 C 5.959 7.213 5.763 6.21 5.663 5.277 L 5.613 4.808 L 5.563 4.709 C 5.508 4.599 5.476 4.588 5.42 4.658 L 5.382 4.705 L 5.194 4.782 C 5.091 4.824 4.847 4.942 4.651 5.044 L 4.295 5.229 L 4.028 5.433 C 3.881 5.547 3.686 5.711 3.595 5.799 L 3.43 5.961 L 3.431 5.699 L 3.432 5.436 L 3.184 4.918 L 3.03 4.76 L 2.876 4.601 L 2.653 4.49 L 2.43 4.38 L 2.156 4.34 L 1.881 4.3 L 1.36 4.354 C 1.074 4.383 0.47 4.467 0.02 4.54 C -0.881 4.686 -1.312 4.738 -1.933 4.773 L -2.343 4.797 L -2.401 5.152 C -2.519 5.88 -2.698 6.778 -2.838 7.355 L -2.983 7.949 L -3.151 8.455 C -3.44 9.324 -3.538 9.786 -3.661 10.857 L -3.72 11.365 L -3.718 12.279 L -3.718 13.193 L -3.661 13.853 C -3.631 14.216 -3.597 14.563 -3.586 14.624 L -3.567 14.734 L -3.938 14.734 L -3.915 15.157 L -3.893 15.58 L -6.265 15.58 L -6.265 15.55 C -6.265 15.533 -6.236 15.423 -6.201 15.304 C -6.02 14.693 -5.725 13.192 -5.62 12.347 L -5.561 11.873 L -5.561 10.959 L -5.56 10.044 L -5.62 9.571 C -5.653 9.31 -5.731 8.799 -5.793 8.436 C -5.856 8.073 -5.935 7.616 -5.968 7.421 L -6.029 7.065 L -6.068 6.557 L -6.106 6.049 L -6.099 5.423 C -6.096 5.078 -6.095 4.777 -6.097 4.754 L -6.101 4.712 L -6.269 4.712 L -6.439 4.877 C -6.899 5.322 -7.628 5.837 -8.107 6.054 L -8.368 6.172 L -8.616 6.227 L -8.865 6.283 L -9.371 6.175 L -9.556 6.085 C -9.801 5.965 -10.197 5.67 -10.548 5.345 L -10.834 5.08 L -10.978 5.007 L -11.122 4.936 L -11.216 5.034 L -11.251 5.508 C -11.269 5.768 -11.285 6.151 -11.285 6.359 L -11.285 6.736 L -11.251 7.085 C -11.231 7.277 -11.195 7.526 -11.169 7.639 L -11.122 7.844 L -11.122 8.051 L -11.121 8.258 L -11.186 8.468 C -11.334 8.946 -11.437 9.694 -11.47 10.536 L -11.49 11.06 L -11.452 11.618 C -11.403 12.338 -11.343 12.812 -11.205 13.566 C -11.143 13.901 -11.075 14.309 -11.053 14.472 L -11.013 14.768 L -11.053 14.81 L -11.206 14.77 C -11.29 14.748 -11.365 14.736 -11.371 14.743 C -11.378 14.751 -11.347 14.929 -11.301 15.139 C -11.257 15.35 -11.22 15.536 -11.22 15.551 L -11.22 15.58 L -13.786 15.58 Z M 17.579 5.103 C 17.609 5.009 17.726 4.726 17.839 4.475 C 18.155 3.772 18.374 3.058 18.532 2.224 L 18.589 1.919 L 18.589 1.327 L 18.59 0.734 L 18.531 0.446 C 18.419 -0.111 18.207 -0.711 17.929 -1.263 L 17.86 -1.399 L 17.843 -1.246 C 17.833 -1.163 17.795 -0.853 17.757 -0.558 L 17.689 -0.021 L 17.446 0.966 C 17.192 1.989 17.081 2.524 16.98 3.189 L 16.921 3.578 L 16.923 4.12 L 16.923 4.661 L 17.009 4.949 C 17.056 5.108 17.157 5.403 17.234 5.606 L 17.372 5.975 L 17.448 5.624 C 17.49 5.432 17.549 5.197 17.579 5.103 Z" style="fill:#000099;strokeWidth:0"/>
</svg>