<?xml version="1.0" encoding="utf-8"?>
<svg width="30%" viewBox="-31 -31 62 68" xmlns="http://www.w3.org/2000/svg">
  <path d="M -5.042 14.8 C -4.733 14.814 -3.669 14.831 -2.338 14.845 C -2.372 4.791 -2.506 -9.479 -2.271 -19.504 C -2.108 -22.311 -1.058 -24.935 -0.452 -27.649 C 0.379 -24.97 1.834 -22.474 2.042 -19.608 C 2.201 -9.79 2.215 5.029 2.166 14.882 C 3.603 14.889 4.768 14.891 5.079 14.883 C 5.153 15.109 5.188 15.458 5.109 15.632 C 4.463 15.601 2.563 15.534 2.296 15.657 C 2.145 15.726 2.164 15.865 2.209 15.974 L 2.339 15.977 C 2.307 16.008 2.281 16.04 2.259 16.073 C 2.278 16.104 2.292 16.123 2.292 16.123 L 2.23 16.123 C 2.161 16.251 2.141 16.391 2.118 16.505 C 2.009 18.997 2.071 21.259 2.31 23.898 C 2.297 24.096 2.4 24.144 2.453 24.224 L -0.007 24.226 L -2.426 24.178 C -2.37 24.099 -2.262 24.053 -2.273 23.855 C -1.987 21.222 -1.881 18.96 -1.946 16.467 C -1.968 16.344 -1.988 16.189 -2.069 16.051 L -2.255 16.045 C -2.255 16.045 -2.01 15.756 -2.276 15.628 C -2.54 15.5 -4.441 15.53 -5.087 15.549 C -5.162 15.373 -5.12 15.025 -5.042 14.8 Z M 2.433 24.283 C 2.444 24.267 2.453 24.251 2.459 24.232 C 2.468 24.247 2.476 24.263 2.48 24.284 Z M -2.452 24.232 C -2.451 24.232 -2.449 24.236 -2.447 24.237 L -2.454 24.237 C -2.453 24.235 -2.452 24.233 -2.452 24.232 Z M 0.013 24.236 L 2.433 24.283 C 2.378 24.363 2.273 24.407 2.284 24.606 C 2.313 25.593 3.207 25.87 3.238 27.438 C 3.22 29.732 -3.195 29.816 -3.336 27.524 C -3.398 25.835 -2.302 25.489 -2.301 24.563 C -2.286 24.365 -2.393 24.318 -2.447 24.237 Z M 2.461 24.224 C 2.46 24.226 2.459 24.229 2.459 24.232 C 2.457 24.229 2.456 24.226 2.453 24.224 Z M -2.475 24.177 L -2.426 24.178 C -2.436 24.194 -2.446 24.211 -2.452 24.232 C -2.462 24.215 -2.47 24.197 -2.475 24.177 Z M -0.562 14.862 C -0.287 14.865 -0.01 14.867 0.266 14.869 C -0.008 14.86 -0.289 14.858 -0.562 14.862 Z" style="fill:#000099;strokeWidth:0"/>
</svg>