<?xml version="1.0" encoding="utf-8"?>
<svg width="30%" viewBox="-31 -31 62 68" xmlns="http://www.w3.org/2000/svg">
  <path d="M 18.536 1.772 C 17.686 2.063 16.857 2.198 16.008 2.198 C 13.352 2.198 10.356 0.897 4.768 -0.941 C 4.683 -0.56 4.555 -0.156 4.407 0.202 C 11.716 2.803 14.882 3.386 17.049 6.547 C 17.452 7.13 17.665 7.914 17.665 8.744 C 17.665 12.152 14.605 13.385 12.587 13.385 C 11.716 13.385 10.908 13.205 10.186 12.981 C 10.101 14.82 9.761 17.017 7.509 18.743 C 6.914 19.214 6.17 19.415 5.427 19.415 C 4.152 19.415 2.877 18.833 2.24 17.913 C 0.561 15.47 0.434 12.824 0.434 8.228 C 0.434 7.444 0.455 6.614 0.455 5.717 C 0.455 4.933 0.434 4.126 0.434 3.251 C 0.242 3.274 0.051 3.274 -0.14 3.274 C -0.331 3.274 -0.523 3.274 -0.714 3.251 C -0.714 4.126 -0.735 4.933 -0.735 5.717 C -0.735 6.614 -0.714 7.444 -0.714 8.228 C -0.714 12.824 -0.841 15.47 -2.52 17.913 C -3.157 18.833 -4.432 19.415 -5.707 19.415 C -6.45 19.415 -7.194 19.214 -7.789 18.743 C -10.041 17.017 -10.381 14.82 -10.466 12.981 C -11.189 13.205 -11.996 13.385 -12.867 13.385 C -14.737 13.385 -17.945 12.241 -17.945 8.744 C -17.945 7.914 -17.733 7.13 -17.329 6.547 C -15.162 3.386 -11.996 2.803 -4.687 0.202 C -4.836 -0.156 -4.963 -0.56 -5.048 -0.941 C -10.636 0.897 -13.632 2.198 -16.288 2.198 C -17.138 2.198 -17.966 2.063 -18.816 1.772 C -20.176 1.301 -21.366 -0.47 -21.366 -2.219 C -21.366 -2.578 -21.302 -2.936 -21.196 -3.273 C -20.346 -6.053 -18.476 -7.084 -16.84 -7.712 C -17.541 -8.833 -18.221 -10.178 -18.221 -11.904 C -18.221 -12.554 -18.136 -13.249 -17.881 -14.034 C -17.371 -15.715 -15.608 -16.769 -14.078 -16.769 C -13.759 -16.769 -13.441 -16.702 -13.143 -16.612 C -9.638 -15.401 -8.15 -12.42 -3.518 -5.873 C -3.242 -6.142 -2.923 -6.389 -2.605 -6.591 C -7.088 -13.272 -9.298 -15.693 -9.298 -19.571 C -9.298 -21.387 -7.534 -23.517 -5.494 -23.517 C -2.711 -23.517 -1.224 -21.948 -0.14 -20.513 C 0.943 -21.948 2.431 -23.517 5.214 -23.517 C 7.254 -23.517 9.017 -21.387 9.017 -19.571 C 9.017 -15.693 6.808 -13.272 2.325 -6.591 C 2.643 -6.389 2.962 -6.142 3.238 -5.873 C 7.87 -12.42 9.357 -15.401 12.863 -16.612 C 13.161 -16.702 13.479 -16.769 13.798 -16.769 C 15.328 -16.769 17.091 -15.715 17.601 -14.034 C 17.856 -13.249 17.941 -12.554 17.941 -11.904 C 17.941 -10.178 17.261 -8.833 16.56 -7.712 C 18.196 -7.084 20.066 -6.053 20.916 -3.273 C 21.022 -2.936 21.086 -2.578 21.086 -2.219 C 21.086 -0.47 19.896 1.301 18.536 1.772 Z" style="fill:#000099;strokeWidth:0"/>
  <path id="" d="M 21.086 -2.219 C 21.086 -2.578 21.022 -2.936 20.916 -3.273 C 20.066 -6.053 18.196 -7.084 16.56 -7.712 C 17.261 -8.833 17.941 -10.178 17.941 -11.904 C 17.941 -12.554 17.856 -13.249 17.601 -14.034 C 17.091 -15.715 15.328 -16.769 13.798 -16.769 C 13.479 -16.769 13.161 -16.702 12.863 -16.612 C 9.357 -15.401 7.87 -12.42 3.238 -5.873 C 2.962 -6.142 2.643 -6.389 2.325 -6.591 C 6.808 -13.272 9.017 -15.693 9.017 -19.571 C 9.017 -21.387 7.254 -23.517 5.214 -23.517 C 2.431 -23.517 0.943 -21.948 -0.14 -20.513 C -1.224 -21.948 -2.711 -23.517 -5.494 -23.517 C -7.534 -23.517 -9.298 -21.387 -9.298 -19.571 C -9.298 -15.693 -7.088 -13.272 -2.605 -6.591 C -2.923 -6.389 -3.242 -6.142 -3.518 -5.873 C -8.15 -12.42 -9.638 -15.401 -13.143 -16.612 C -13.441 -16.702 -13.759 -16.769 -14.078 -16.769 C -15.608 -16.769 -17.371 -15.715 -17.881 -14.034 C -18.136 -13.249 -18.221 -12.554 -18.221 -11.904 C -18.221 -10.178 -17.541 -8.833 -16.84 -7.712 C -18.476 -7.084 -20.346 -6.053 -21.196 -3.273 C -21.302 -2.936 -21.366 -2.578 -21.366 -2.219 C -21.366 -0.47 -20.176 1.301 -18.816 1.772 C -17.966 2.063 -17.138 2.198 -16.288 2.198 C -13.632 2.198 -10.636 0.897 -5.048 -0.941 C -4.963 -0.56 -4.836 -0.156 -4.687 0.202 C -11.996 2.803 -15.162 3.386 -17.329 6.547 C -17.733 7.13 -17.945 7.914 -17.945 8.744 C -17.945 12.241 -14.737 13.385 -12.867 13.385 C -11.996 13.385 -11.189 13.205 -10.466 12.981 C -10.381 14.82 -10.041 17.017 -7.789 18.743 C -7.194 19.214 -6.45 19.415 -5.707 19.415 C -4.432 19.415 -3.157 18.833 -2.52 17.913 C -0.841 15.47 -0.714 12.824 -0.714 8.228 C -0.714 7.444 -0.735 6.614 -0.735 5.717 C -0.735 4.933 -0.714 4.126 -0.714 3.251 C -0.523 3.274 -0.331 3.274 -0.14 3.274 C 0.051 3.274 0.242 3.274 0.434 3.251 C 0.434 4.126 0.455 4.933 0.455 5.717 C 0.455 6.614 0.434 7.444 0.434 8.228 C 0.434 12.824 0.561 15.47 2.24 17.913 C 2.877 18.833 4.152 19.415 5.427 19.415 C 6.17 19.415 6.914 19.214 7.509 18.743 C 9.761 17.017 10.101 14.82 10.186 12.981 C 10.908 13.205 11.716 13.385 12.587 13.385 C 14.605 13.385 17.665 12.152 17.665 8.744 C 17.665 7.914 17.452 7.13 17.049 6.547 C 14.882 3.386 11.716 2.803 4.407 0.202 C 4.555 -0.156 4.683 -0.56 4.768 -0.941 C 10.356 0.897 13.352 2.198 16.008 2.198 C 16.857 2.198 17.686 2.063 18.536 1.772 C 19.896 1.301 21.086 -0.47 21.086 -2.219 Z" style="stroke-width: 0;"/>
  <circle cx="1019" cy="975" r="182.4" fill="none" stroke="#ffbb22" transform="matrix(0.021247, 0, 0, -0.022419, -21.790823, 19.863789)" style="stroke-width: 0;"/>
</svg>