<svg width="30%" viewBox="-31 -31 62 68" xmlns="http://www.w3.org/2000/svg"><path d="M14.614-23.322c.137.002.264.04.375.118.167.118.307.324.421.617.063.167.12.364.166.585a6.316 6.316 0 0 1 .09.598c.043.431-.022.77-.159 1.151.012.047.009.064.004.069a.048.048 0 0 0 .014.006c.184-.34 1.868-.099 1.939.683a1.24 1.24 0 0 1-.028.392c-.05-.192-.123-.322-.22-.395-.146-.107-.334-.084-.56.07l-.006.003-.004.004-.005.006c-.052.051-.102.101-.152.146-.048.044-.1.084-.148.121-.239.186-.451.282-.641.283.188.169.458.003.599-.092a3.848 3.848 0 0 1-.154.782c-.221.695-.654 1.202-1.299 1.518a2.49 2.49 0 0 1-.22.092c-.015.031-.089.051-.2.061a2.583 2.583 0 0 1-.499.079c-.302.02-.658.043-.992-.032-1.684 1.098-.398 4.853.327 6.203 1.588 2.914 2.9 8.008-.509 10.406-1.587.835-3.831.269-4.919-.751-.091-.207-.305-.566-.638-.652.372.346.606.813.705 1.403.099.597.058 1.317-.122 2.163v.006c-.076.568.104.991.539 1.269.42.268 1.08.398 1.985.386h.033l.021-.026c.793-.914 1.516-1.33 2.166-1.25.125.015.246.047.366.099.086.038.172.086.257.142a2.54 2.54 0 0 0-.955.882 3.085 3.085 0 0 0-.279.531v.003l-.064.152.152-.053c.464-.17.835-.224 1.11-.166.263.055.438.219.53.49.056.218.168.38.335.48.133.08.3.123.5.127a2.41 2.41 0 0 1-.781.647c-.319.161-.67.237-1.059.232-.1-.161-.392-.353-.608-.223a.671.671 0 0 1 .518.369c.116.218.169.535.16.942-.085.342-.055.607.088.792.107.14.276.228.508.27-.771.383-1.36.247-1.767-.41-.09-.281-.183-.468-.278-.56-.085-.082-.175-.098-.266-.051-.005.002-.008.006-.012.008v.19a.271.271 0 0 1 .069-.065c.031-.015.068-.004.106.032.078.078.16.244.242.5.032.372-.028.849-.176 1.431-.151.592-.786 2.18-.786 2.18l.1.018c.544.167.901.424 1.074.767.154.307.163.692.02 1.151-.127-.16-.32-.217-.58-.178a2.233 2.233 0 0 0-.403.118l-.002.004-.015.006c.05-.016.098-.03.142-.04.071-.019.14-.032.204-.04.301-.04.506.038.612.232.025.129.043.253.051.372.008.12.008.231 0 .336-.041.476-.263.817-.668 1.022.039-.367.002-.623-.113-.768-.12-.156-.311-.193-.573-.11.001.009.001.018.003.026.003.05.013.1.021.15a.428.428 0 0 1-.411.026c-.138-.069-.268-.215-.391-.443a2.268 2.268 0 0 1-.063-.12c.05-.227.072-.562-.128-.771.113.753-.128 1.337-.722 1.754a3.111 3.111 0 0 1-.397.229 4 4 0 0 1-.478.19h-.003l-.055.019v.057c-.006 1.177-1.745 1.549-2.177.805a1.21 1.21 0 0 0-.446.582 1.243 1.243 0 0 1-.143-.764 2.73 2.73 0 0 1 .1-.398l.006-.001.013-.052a3.247 3.247 0 0 1 .103-.336c-.04-.111-.168-.238-.108-.45l.002-.021c.001-.031.003-.061.006-.09-.229-.035-.241-.304-.189-.561l.013-.022c-.108-.07-.238-.077-.389-.024-.176.063-.381.217-.617.462-.095-.266-.091-.501.012-.703.119-.233.367-.433.746-.599.112.007.207.025.283.053a.817.817 0 0 0-.379-.117c-.273 0-.198-.325-.103-.372a.592.592 0 0 1-.169-.105.213.213 0 0 1-.066-.114.244.244 0 0 1 .015-.14.821.821 0 0 1 .163-.261c.065-.035.126-.071.182-.107-.069-.128-.172-.185-.31-.17-.123.014-.272.092-.447.234v-.008c-.022-.325.042-.583.189-.772.147-.19.383-.318.706-.382v-.002c.038-.005.078-.013.12-.019.08.086.141.169.184.249a.727.727 0 0 0-.031-.085c-.044-.104-.057-.073-.151-.18.305-.219.473-.38.714-.291.343.127.413.459.547.995l.009.026.018.015c.273.213.515.343.724.401.221.061.411.037.565-.072.343-.247.635-.682.877-1.302.238-.61.429-1.403.572-2.379v-.019a1.199 1.199 0 0 0-.093-.417.4.4 0 0 0-.155-.181.323.323 0 0 0-.221-.041.717.717 0 0 0-.23.085c-.621.228-1.19.218-1.706-.028a2.299 2.299 0 0 1-.569-.386.506.506 0 0 0-.024-.072c-.068-.174-.209-.27-.457-.176.162.024.267.102.321.239.058.148.06.364.003.646a.938.938 0 0 0 .057.639c.076.165.201.325.376.478-.547.155-.973.031-1.28-.369a1.753 1.753 0 0 1-.182-.296 2.855 2.855 0 0 1-.154-.376v-.003l-.112-.321-.03.35a4.705 4.705 0 0 1-.027.248c-.075.523-.246.91-.509 1.161-.261.248-.617.366-1.071.35H2.7c.208-.278.343-.593.408-.945.074-.396.057-.841-.054-1.333l-.021-.089-.082.045a2.11 2.11 0 0 1-.518.216c-.198.046-.366.037-.504-.029-.14-.065-.252-.187-.336-.368v-.004a1.757 1.757 0 0 1-.133-.423c.4-.066.705-.198.911-.398.223-.219.328-.514.317-.884v-.022l-.012-.016c-.202-.318-.315-.76-.342-1.33-.026-.575.035-1.278.187-2.106.112-.383.133-.827.093-1.296a5.307 5.307 0 0 0-1.475.11c-.404.086-2.535.726-3.291 2.458a7.39 7.39 0 0 1 .493-.607c-.002.028 0 .06 0 .089.001.091.006.182.018.271.057.454.238.879.542 1.281l.002.004a.64.64 0 0 0 .221.175c.223.109.557.136.995.079.05 0 .099.001.146.003.353.015.614.097.78.249.16.139.233.35.228.623a.906.906 0 0 0-.361-.044.497.497 0 0 0-.336.18l-.005.007-.004.007c-.107.192-.219.313-.342.359-.118.045-.251.022-.396-.07-.023.153.072.221.187.242.385.406.633.814.745 1.225.099.363.088.731-.03 1.1-.188-.275-.376-.457-.566-.544-.229-.105-.456-.077-.681.083l-.064.044.043.061.003.007c.094.148.177.293.245.432.068.137.124.266.166.395.203.603.116 1.093-.263 1.466a2.061 2.061 0 0 0-.145-.217 1.27 1.27 0 0 0-.626-.448c-.219-.121-.353-.271-.399-.455-.049-.188-.012-.411.114-.671-.225.092-.309.478-.266.681a3.87 3.87 0 0 1-.108.33 3.147 3.147 0 0 1-.14.315c-.258.509-.622.879-1.092 1.107l.027.07-.039.067c.444.249.715.542.807.878.082.3.026.637-.169 1.015a.449.449 0 0 0-.219-.202c.08.051.133.127.158.225h.001c-.013.445-.1.795-.261 1.05a1.04 1.04 0 0 1-.561.438c.098-.329.114-.568.048-.722-.075-.173-.24-.239-.493-.195.001-.031.004-.061.007-.092l.011-.086-.01.045a1.582 1.582 0 0 0-.027.178c-.032.401-.71-.205-.735-.566.044-.211.088-.277.082-.646-.021.48-.175.856-.464 1.127-.291.274-.723.442-1.294.509l-.058.009-.012.057c-.309.677-.986.892-1.625.722a1.43 1.43 0 0 1-.227-.19.866.866 0 0 1-.194-.397 1.82 1.82 0 0 0-.381.409 1.042 1.042 0 0 1 .04-.615 2.035 2.035 0 0 1 .143-.322h.006l.019-.045v-.001c.037-.082.073-.155.11-.222a1.802 1.802 0 0 1 .118-.189.152.152 0 0 0-.059.039c-.179-.262-.294-.567-.179-.855a.385.385 0 0 0-.298-.147c-.124-.006-.273.036-.444.123-.096.051-.2.113-.31.19-.038-.259.009-.471.137-.637.151-.193.416-.332.796-.415.094.027.172.058.235.094a.792.792 0 0 0-.262-.131c-.157-.022-.112-.254.015-.357-.152-.142-.087-.395.009-.546a.242.242 0 0 1 .112-.09.274.274 0 0 0-.237-.177c-.114-.012-.262.034-.443.138.039-.332.141-.58.306-.741.168-.164.406-.243.712-.24h.001l.108.003c.071.132.119.25.14.36a.715.715 0 0 1 .014.127.645.645 0 0 0-.011-.23 1.11 1.11 0 0 0-.127-.311c.297-.133.524-.133.684.006.18.155.284.485.312.986v.025l.018.019c.295.348.559.538.795.573a.541.541 0 0 0 .282-.038l.003-.003c.342-.158.67-.492.986-1.002.311-.5.611-1.172.902-2.017.197-.509.186-.984-.037-1.426-.218-.431-.639-.827-1.264-1.186-.48-.35-.83-.728-1.047-1.133a2.263 2.263 0 0 1-.264-1.294l.012-.099-.093.023-.009.003a2.069 2.069 0 0 0-.451.146c-.26.121-.434.281-.52.48-.373-.868-.308-1.581.193-2.141l.103-.111-.142-.016c-.597-.06-.985-.281-1.161-.664-.163-.355-.154-.851.032-1.489l.067.133c.052.094.106.177.164.255.301.404.69.585 1.167.537l.091-.009-.024-.089c-.111-.437-.089-.839.063-1.209.139-.339.388-.653.748-.939 0 .098.002.186.006.268.01.207.035.365.072.471.056.157.172.166.254.292.026.039.05.079.07.118.095.188.11.356.048.503l-.078.222.2-.15c.123-.152.28-.311.462-.473a6.84 6.84 0 0 1 .629-.496C-3.248-2.006.308-3.807 1.12-3.095c.07.045-.076-.31-.111-.329l-.115-.06c-1.456-.784-2.54-1.682-3.255-2.698a6.048 6.048 0 0 1-.403-.658c.06.044.128.032.204-.026a1.939 1.939 0 0 1-.525-.732l-.021-.056h-.003a2.14 2.14 0 0 1-.06-.182c-.241.431-.577.896-.854 1.276-.026.037-.055.077-.081.124a2.792 2.792 0 0 0-.076.146v.003l-.009.019v.013c-.077.611-.294 1.002-.647 1.177a1.035 1.035 0 0 1-.372.102c.233-.612.295-1.059.187-1.346a.553.553 0 0 0-.242-.289l-.006-.003-.09-.048-.019.108c-.083.512-.232.946-.447 1.305a2.457 2.457 0 0 1-.705.753c.057-.366.014-.649-.13-.846a.66.66 0 0 0-.261-.213l-.006-.003h-.003a1.706 1.706 0 0 0-.281-.099c-.171-.042-.317-.042-.436.007-.101.042-.297.481-.309.434a.675.675 0 0 0-.496-.177c.308.034.513.171.614.413a.854.854 0 0 1 .049.16h-.003c.012.055.023.114.027.178a1.018 1.018 0 0 1-.042.204.463.463 0 0 1-.164.254.426.426 0 0 1-.284.07.961.961 0 0 1-.203-.035 1.07 1.07 0 0 0-.101-.084c.026.032.051.067.076.107a2.604 2.604 0 0 1-.023.289 1.879 1.879 0 0 1-.06.281c-.12.399-.37.671-.752.816l.013-.05c.014-.056.025-.111.034-.162.044-.254-.175-.439-.257-.554l-.008-.047-.017.063a1.508 1.508 0 0 1-.269-.067.528.528 0 0 1-.275-.207.464.464 0 0 1-.049-.318.99.99 0 0 1 .061-.207c.013-.019.021-.039.03-.061a.296.296 0 0 0 .024-.225.348.348 0 0 0-.142-.178.613.613 0 0 0-.109-.061l-.015-.006c-.212-.041-.442.143-.693.553a8.114 8.114 0 0 0-.142.251c-.048.091-.096.19-.145.296l-.004.01-.005.009-.003.013c-.045.35-.184.663-.415.935a2.35 2.35 0 0 1-.145.156c-.054.051-.111.1-.169.147a1.221 1.221 0 0 1-.282.127.375.375 0 0 1-.242 0 .314.314 0 0 1-.154-.159.84.84 0 0 1-.073-.216 1.802 1.802 0 0 0-.014-.205h-.032l.032-.002a1.146 1.146 0 0 0-.075-.294c.023.083.037.182.043.296a1.29 1.29 0 0 0-.551.38 2.034 2.034 0 0 0-.349.605 1.429 1.429 0 0 1-.16-.492h.002a1.173 1.173 0 0 1-.012-.128 1.986 1.986 0 0 1 .165-.838c.152-.079.284-.127.397-.146a1.248 1.248 0 0 0-.51.149c-.07-.213-.04-.435.093-.664.12-.188-.123-.11-.278-.16-.179-.051-.306-.13-.378-.241-.072-.11-.095-.254-.067-.43.006-.031.078-.192.086-.225a.44.44 0 0 1 .265.212c.017-.034.033-.068.046-.101a.423.423 0 0 0-.361-.162.852.852 0 0 0-.401.148 2.87 2.87 0 0 0-.508.431 2.23 2.23 0 0 1 .385-1.168c.052-.079.111-.155.175-.23.053-.063.11-.123.169-.183.037.02.071.038.104.058.163.099.29.204.379.315a1.36 1.36 0 0 0-.445-.403c-.031-.018-.061-.037-.094-.053.133-.353.368-.557.705-.611a1.797 1.797 0 0 1 .466.006l.133-.073c.058-.077.108-.151.149-.221l-.044.064c-.059-.096-.169-.157-.328-.182-.176-.027-.417-.01-.722.053.106-.244.243-.42.411-.532.191-.127.426-.17.703-.129a.435.435 0 0 1 .091.084.488.488 0 0 0-.12-.162l.287-.273c.283-.175.53-.159.738.048.225.224.413.662.563 1.314l.003.009.006.01c.126.235.297.345.514.333.206-.012.448-.139.726-.381l.004-.003a9.065 9.065 0 0 1 1.839-1.518 9.94 9.94 0 0 1 .808-.445 5.96 5.96 0 0 0 1.446-.929c.295-.249.723-.549.974-.91l.092-.086a1.192 1.192 0 0 1 .024-.319c-.186.033-.363.123-.55.317-.488.391-2.876 2.215-3.626.993.352.02 1.116-.501 1.829-1.032a4.587 4.587 0 0 1-1.229-.399c-1.609.29-3.122 1.059-3.328 1.588-.043-.003.193-.8.141-.797-.048.003-.103.006-.157.016l-.009.003c-.478.076-.779.458-1.289.115a.983.983 0 0 1-.263-.274c.607-.147 1.001-.352 1.18-.614a.625.625 0 0 0 .115-.379v-.003l-.003-.006-.003-.112-.097.048c-.452.223-.877.34-1.271.356a1.993 1.993 0 0 1-.95-.188c.323-.16.529-.364.618-.607a.772.772 0 0 0 .045-.353v-.013a2.055 2.055 0 0 0-.057-.305c-.05-.178-.123-.306-.218-.385a.432.432 0 0 0-.369-.083h-.007c.026-.213-.011-.402-.223-.483.122.294.11.556-.037.785a.913.913 0 0 1-.102.134c-.04.042-.084.083-.134.124a.96.96 0 0 1-.184.083.399.399 0 0 1-.285.003.42.42 0 0 1-.196-.216 3.93 3.93 0 0 1-.138-.365l.042-.069a.608.608 0 0 0 .034-.066.33.33 0 0 1-.066.057 2.182 2.182 0 0 1-.5.256c-.381.124-.722.06-1.024-.196l.045-.017a4.75 4.75 0 0 0 .149-.064c.218-.105.355-.223.413-.355l-.093.033a1.522 1.522 0 0 1-.075-.277.63.63 0 0 1 .03-.366.48.48 0 0 1 .236-.225.89.89 0 0 1 .197-.07.265.265 0 0 0 .063-.007.284.284 0 0 0 .193-.111.402.402 0 0 0 .073-.229.829.829 0 0 0-.003-.13l-.003-.017c-.07-.21-.33-.308-.784-.295a3.404 3.404 0 0 0-.268.019 7.305 7.305 0 0 0-.312.041h-.009l-.013.003-.012.006a1.49 1.49 0 0 1-.953.172 1.853 1.853 0 0 1-.196-.041 2.11 2.11 0 0 1-.2-.064 1.023 1.023 0 0 1-.239-.178.386.386 0 0 1-.118-.213.388.388 0 0 1 .051-.232c.033-.06.08-.122.14-.188.171-.13.294-.257.372-.385a.602.602 0 0 0 .094-.321.572.572 0 0 0-.1-.309 1.234 1.234 0 0 0-.342-.324.748.748 0 0 1 .584-.302l.051-.156a1.68 1.68 0 0 1-.057-.181c-.047-.189-.045-.349.009-.478a.718.718 0 0 1 .324-.356c.027-.014.191-.082.222-.094.219.136.772-.366.773-.711v-.114a.96.96 0 0 1 .248-.032.723.723 0 0 1 .587.309c.044.057.082.12.121.194.035.068.069.143.1.223l.124.076c.273.019.483-.01.632-.092a.5.5 0 0 0 .26-.376l.364.095c.278.152.385.38.32.684-.071.33-.332.751-.787 1.263l-.006.006-.006.01c-.127.248-.134.467-.018.652.109.177.33.316.66.423l.006.004h.003a7.668 7.668 0 0 1 2.871 1.218c.062-.147 1.033-.274 2.084-.285a5.922 5.922 0 0 1-.546-.697c3.025 1.187 3.879-.904 5.638.022-.925-.646-1.768-1.578-1.635-2.059.97.838 4.268 1.43 5.486.76.142-.115.281-.219.414-.312.352-.377.654-.686.912-.938-.461-.188-.905-.18-1.384-.061l-.019.004-.138.533-.416-.619c-.081.113.25.717.087.754-.32.016-.587-.387-.702-.719-.196-.565.036-1.215.484-1.263l.015.014c.125-.267.305-.501.541-.702a2.64 2.64 0 0 0-.017.623.965.965 0 0 0 .069.271c.152-.046.32-.065.504-.055.294.017.629.103 1.003.263l.017.009.019-.004a.81.81 0 0 0 .202-.043.686.686 0 0 0 .317-.343.639.639 0 0 1-.221.256.765.765 0 0 1-.311.125c.174-.704-.046-2.186-.822-2.659a.957.957 0 0 0-.105.046h-.003a2.765 2.765 0 0 1-.778.185.582.582 0 0 0 .404-.055.765.765 0 0 0-.147.379 1.22 1.22 0 0 0 .035.428.966.966 0 0 1-.256-.2v-.001a.9.9 0 0 1-.052-.062 1.247 1.247 0 0 1-.213-.485 1.562 1.562 0 0 1-.098-.006.747.747 0 0 0-.195.313 1.216 1.216 0 0 0-.054.425 1.03 1.03 0 0 1-.209-.253v-.001a1.299 1.299 0 0 1-.038-.073 1.267 1.267 0 0 1-.108-.523c.167-.039.242.131.53.104a1.914 1.914 0 0 1-.383-.09c-.131-.075-.202-.205-.213-.385-.01-.19.043-.436.157-.738.176-.029.745-.005.713-.187-.035.07-.336.131-.529.143a1.776 1.776 0 0 1-.291 0h-.003a.185.185 0 0 1-.042-.006c-.108-.225.013-.586.113-.662-.006-.065 1.179-.679 2.025-.849l.032-.008c.51-.716 1.563-.838 2.522-.71h.001c1.087.144 2.057.608 1.98.891-.114.112-.415.431-.485.611.072-.092.146-.174.226-.246.078-.068.161-.128.245-.178.43-.25.941-.225 1.534.074.054.036.108.068.16.099.051.029.102.057.156.084.222.112.437.178.64.201a4.594 4.594 0 0 1-.218.288 3.212 3.212 0 0 1-.29.307 1.689 1.689 0 0 1-.541.351c.071.066.132.124.152.136a.94.94 0 0 1 .157.114c.248.226.372.605.376 1.139v.016a2.34 2.34 0 0 0 .157.569c.169.414.442.751.823 1.012a1.164 1.164 0 0 1-.572.099c-.232-.024-.466-.125-.699-.3l-.209-.158.097.254h.003a2.66 2.66 0 0 0 .169.344c.164.272.377.498.642.677a1.762 1.762 0 0 1 .275.497c.179.468.201 1.034.064 1.698l-.003.003v.007a5.008 5.008 0 0 0-.057.556c-.023.349-.001.604.066.76a.614.614 0 0 1-.533-.139c-.193-.159-.366-.441-.514-.85-.069.345.06.718.103.933.144.729.138 1.413-.021 2.051a23.39 23.39 0 0 0-.149.446c-.044.14-.084.272-.121.397-.138.484-.21.85-.211 1.101a5.692 5.692 0 0 1-.4-.436c-.395-.488-.625-.979-.69-1.479-.216.36.187 1.021.309 1.212.056.389.028.771-.081 1.145a3.392 3.392 0 0 1-.59 1.116l-.004.007h-.003v.003a4.379 4.379 0 0 0-.269.509h.003c-.173.404-.258.81-.251 1.225-.466-.182-.781-.634-.946-1.358.002.307.012.564.051.648.002.173.028.35.072.532.047.183.112.373.203.569.456.988 1.485 2.119 3.086 3.391a10.55 10.55 0 0 1 .569.614c.61.713.807 1.409 1.561 1.928 1.512.975 3.098 1 4.468-.449 1.395-1.839.488-4.471-.281-6.27-.671-1.527-1.594-2.873-1.83-4.59-.169-.887.203-2.939.599-3.818l.045.023a1.564 1.564 0 0 1-.566-.993c-.064-.451.045-.983.33-1.603.189-.352.235-.617.139-.789-.079-.141-.248-.212-.508-.216.104-.079.199-.141.293-.184a.68.68 0 0 1 .436-.07.595.595 0 0 1 .348.232c.072.09.135.206.193.347l.137.321-.016-.35v-.003a2.687 2.687 0 0 1 0-.22 1.68 1.68 0 0 1 .019-.188c.051-.279.191-.444.411-.499h.021c.188.013.335-.028.442-.127.106-.098.168-.248.187-.452l.003-.045v-.003c-.001-.171-.053-.299-.153-.384a.466.466 0 0 0-.213-.102.544.544 0 0 1 .333-.07c.095.016.177.077.242.181a.544.544 0 0 1 .037.067 2.086 2.086 0 0 1 .087.439c.03.368-.053.717-.26 1.043a.824.824 0 0 0 .366-.592 3.28 3.28 0 0 1 .188-.241c.165-.184.335-.297.508-.344l.003-.003.01-.003.005-.003c.045-.022.4-.544.321-.827a.93.93 0 0 0-.103-.284.672.672 0 0 0-.402-.289.89.89 0 0 1 .072-.01c.024-.002.047 0 .07 0zM-8.217 12.583l-.021.047a.278.278 0 0 0 .011-.008l.01-.039zM2.691 1.135c.038.002-.202-1.472-.077-.005l.077.005zm-18.682-20.57c-.063-.172-.194-.375-.394-.612.249-.046.458-.027.63.058.195.096.38.326.482.597-.009.15-.141.328-.257.393-.111.063-.272.088-.482.079a.83.83 0 0 0 .021-.515zm-2.31.294a2.308 2.308 0 0 0-.565-.189 1.893 1.893 0 0 1 1.332-.301c.073.009.144.022.218.041l.003.12c-.002.311-.69.585-.69.585a.746.746 0 0 0-.298-.256zm-.834 3.026a1.11 1.11 0 0 0-.575-.27 1.735 1.735 0 0 0-.659.039c.086-.163.193-.306.32-.426h.001c.033-.031.067-.06.098-.084.205-.162.458-.274.757-.339.159.104.273.207.341.311.05.076.076.153.076.229a.452.452 0 0 1-.071.233c-.061.1-.156.201-.288.307zm20.842-7.906c-.122.191-.172.268.004.469.143-.194.104-.275-.004-.469zm.29.449c.15-.051.316-.129.499-.236a.836.836 0 0 1-.058-.062l-.002-.004h-.002a.077.077 0 0 0-.016-.016 1.722 1.722 0 0 0-.308-.162h-.001a.636.636 0 0 0-.224-.044l.009.014c.02.038.035.076.047.112.046.155.011.302-.107.443.053-.012.106-.026.163-.045zm-.787-.132a.522.522 0 0 0 .319.187l.016.003a.549.549 0 0 1-.099-.352.376.376 0 0 1 .074-.185c-.11.031-.212.074-.298.123a.484.484 0 0 1-.122.05.848.848 0 0 0 .11.174z" style="strokeWidth:0" fill="#009"/></svg>