<?xml version="1.0" encoding="utf-8"?>
<svg width="30%" viewBox="-31 -31 62 68" xmlns="http://www.w3.org/2000/svg">
  <path d="M -11.34 -18.278 C -11.329 -18.277 -11.355 -18.274 -11.41 -18.268 C -11.49 -18.273 -11.365 -18.28 -11.34 -18.278 Z M -11.41 -18.268 C -11.369 -18.266 -11.275 -18.264 -11.079 -18.266 C -10.159 -18.272 -7.94 -17.98 -5.665 -17.638 C -3.391 -17.295 -1.828 -17.162 0.707 -16.907 C 3.241 -16.651 6.192 -16.396 8.237 -15.847 C 10.283 -15.299 12.529 -13.693 13.451 -13.108 C 14.375 -12.523 15.95 -10.46 16.493 -9.82 C 17.036 -9.182 17.921 -8.937 18.232 -8.764 C 18.543 -8.591 19.405 -7.975 19.625 -7.737 C 19.845 -7.498 19.944 -7.385 20.071 -7.182 C 20.2 -6.98 20.318 -6.853 20.37 -6.769 C 20.421 -6.684 20.299 -6.556 20.305 -6.498 C 20.312 -6.439 20.408 -6.408 20.478 -6.375 C 20.548 -6.342 20.53 -6.052 20.548 -6.02 C 20.567 -5.987 20.709 -5.981 20.779 -5.91 C 20.85 -5.839 20.818 -5.342 20.748 -5.277 C 20.677 -5.213 20.496 -5.331 20.44 -5.277 C 20.385 -5.223 20.434 -5.2 20.434 -5.122 C 20.434 -5.044 20.497 -4.741 20.53 -4.631 C 20.561 -4.522 20.618 -3.844 20.632 -3.689 C 20.645 -3.534 20.389 -3.359 20.415 -3.231 C 20.439 -3.102 20.561 -3.114 20.618 -3.043 C 20.677 -2.972 20.913 -2.708 21.035 -2.565 C 21.156 -2.423 21.556 -2.127 21.816 -2.061 C 22.076 -1.996 21.915 -2.252 22.274 -2.088 C 22.632 -1.923 22.087 -1.164 22.033 -1.054 C 21.978 -0.944 21.707 -1.054 21.508 -0.89 C 21.309 -0.725 21.272 -0.032 20.874 0.17 C 20.476 0.37 20.15 0.115 20.023 0.17 C 19.897 0.224 19.807 0.407 19.227 0.425 C 18.647 0.443 18.376 0.243 18.231 0.243 C 18.087 0.243 16.548 0.389 15.841 0.298 C 15.136 0.206 14.447 -0.068 14.249 -0.087 C 14.048 -0.104 13.868 -0.068 13.433 -0.104 C 12.999 -0.141 12.184 -0.561 11.985 -0.561 C 11.786 -0.561 11.134 -0.488 10.374 -0.47 C 9.613 -0.451 8.726 -0.963 8.256 -1.219 C 7.785 -1.474 7.323 -1.629 7.133 -1.438 C 6.945 -1.247 7.17 -1.274 7.223 -0.981 C 7.278 -0.689 7.243 0.279 6.989 1.01 C 6.735 1.74 6.789 2.38 6.789 3.201 C 6.789 4.024 7.133 4.607 7.278 4.863 C 7.424 5.119 7.876 5.612 8.094 5.868 C 8.31 6.123 8.654 6.543 8.582 6.653 C 8.509 6.763 7.948 6.744 7.532 6.689 C 7.115 6.635 6.211 6.58 5.867 6.525 C 5.522 6.47 5.36 6.087 5.287 5.849 C 5.215 5.612 5.034 5.32 4.798 5.32 C 4.562 5.32 4.389 5.082 4.11 4.991 C 3.832 4.9 3.477 4.918 3.133 4.809 C 2.789 4.699 2.59 3.986 2.536 3.749 C 2.481 3.512 2.554 2.014 2.644 1.485 C 2.734 0.955 2.373 0.37 2.227 -0.561 C 2.082 -1.493 1.178 -1.346 0.616 -1.164 C 0.055 -0.981 -3.656 -1.291 -4.562 -1.328 C -5.466 -1.365 -6.743 -1.797 -6.897 -1.713 C -7.051 -1.629 -7.479 -0.893 -7.786 -0.9 C -8.094 -0.906 -9.227 -1.526 -9.496 -1.706 C -9.765 -1.887 -10.02 -2.714 -10.135 -2.714 C -10.251 -2.714 -10.322 -2.546 -10.424 -2.514 C -10.525 -2.481 -11.269 -3.024 -11.499 -3.114 C -11.729 -3.205 -12.145 -3.16 -12.248 -3.249 C -12.35 -3.34 -12.325 -3.656 -12.395 -3.656 C -12.466 -3.656 -12.715 -3.74 -12.869 -3.746 C -13.023 -3.753 -13.15 -3.392 -13.317 -3.114 C -13.482 -2.836 -13.796 -2.295 -13.886 -1.945 C -13.976 -1.597 -14.2 -0.919 -14.271 -0.635 C -14.341 -0.35 -14.533 0.082 -14.591 0.199 C -14.648 0.314 -14.655 0.837 -14.68 0.999 C -14.706 1.16 -14.591 1.638 -14.54 2.019 C -14.488 2.4 -14.29 2.897 -14.207 3.311 C -14.123 3.724 -13.893 4.034 -13.79 4.098 C -13.688 4.163 -13.592 4.228 -13.528 4.331 C -13.464 4.434 -13.31 4.628 -13.182 4.731 C -13.055 4.835 -12.984 5.047 -12.85 5.325 C -12.715 5.603 -12.663 5.751 -12.939 5.868 C -13.214 5.984 -13.937 5.952 -14.347 5.906 C -14.757 5.861 -14.777 5.932 -14.788 6.042 C -14.801 6.152 -14.706 6.314 -14.648 6.384 C -14.591 6.455 -14.251 6.727 -13.963 6.978 C -13.675 7.23 -13.795 7.493 -14.156 7.512 C -14.518 7.53 -15.55 7.566 -15.713 7.493 C -15.876 7.42 -15.922 6.77 -16.13 6.708 C -16.336 6.646 -16.238 6.781 -16.491 6.909 C -16.745 7.036 -17.143 6.196 -17.197 5.777 C -17.252 5.356 -17.47 3.95 -17.595 2.927 C -17.723 1.904 -18.121 0.864 -18.411 0.17 C -18.7 -0.524 -18.392 -0.798 -18.266 -1.036 C -18.139 -1.274 -18.248 -2.223 -18.52 -3.027 C -18.791 -3.83 -19.41 -4.967 -19.832 -5.251 C -20.254 -5.536 -20.588 -6.763 -20.639 -7.253 C -20.69 -7.744 -20.366 -8.871 -20.329 -9.199 C -20.294 -9.528 -20.429 -11.127 -20.547 -11.172 C -20.665 -11.218 -21.144 -10.433 -21.388 -10.094 C -21.633 -9.757 -21.859 -9.264 -22.04 -9.309 C -22.221 -9.355 -22.049 -10.241 -21.733 -10.843 C -21.416 -11.446 -21.459 -12.212 -21.817 -12.432 C -22.175 -12.651 -22.158 -13.492 -22.031 -13.638 C -21.905 -13.784 -20.094 -13.857 -19.895 -13.875 C -19.696 -13.893 -19.515 -14.459 -19.08 -14.935 C -18.645 -15.409 -16.963 -16.213 -16.002 -16.925 C -15.043 -17.638 -12.795 -18.168 -11.766 -18.24 C -11.567 -18.254 -11.47 -18.262 -11.41 -18.268 Z M -21.222 -12.813 C -21.222 -12.813 -20.665 -12.315 -20.562 -12.355 C -20.46 -12.393 -20.243 -12.723 -20.243 -12.723 C -20.427 -12.729 -21.222 -12.813 -21.222 -12.813 Z" style="fill:#000099;strokeWidth:0"/>
</svg>