<?xml version="1.0" encoding="utf-8"?>
<svg width="30%" viewBox="-31 -31 62 68" xmlns="http://www.w3.org/2000/svg">
  <path d="M 12.534 -12.174 L 12.52 -12.174 L 14.804 10.531 L -13.776 10.531 L -11.492 -12.174 L -11.506 -12.174 L -13.79 -14.963 L -13.79 -19.333 C -13.79 -19.73 -13.434 -20.056 -13.001 -20.056 L -10.724 -20.056 C -10.291 -20.056 -9.934 -19.73 -9.934 -19.333 L -9.934 -17.241 L -7.63 -17.241 L -7.63 -19.333 C -7.63 -19.73 -7.273 -20.056 -6.84 -20.056 L -4.543 -20.056 C -4.11 -20.056 -3.753 -19.73 -3.753 -19.333 L -3.753 -17.241 L -1.448 -17.241 L -1.455 -19.333 C -1.455 -19.525 -1.372 -19.71 -1.225 -19.845 C -1.078 -19.979 -0.876 -20.056 -0.666 -20.056 L 1.646 -20.056 C 2.079 -20.056 2.428 -19.742 2.435 -19.346 L 2.463 -17.241 L 4.768 -17.241 L 4.768 -19.333 C 4.768 -19.73 5.124 -20.056 5.557 -20.056 L 7.855 -20.056 C 8.288 -20.056 8.644 -19.73 8.644 -19.333 L 8.644 -17.241 L 10.949 -17.241 L 10.949 -19.333 C 10.949 -19.73 11.305 -20.056 11.738 -20.056 L 14.029 -20.056 C 14.462 -20.056 14.818 -19.73 14.818 -19.333 L 14.818 -14.963 Z" style="fill:#000099;strokeWidth:0"/>
</svg>