<?xml version="1.0" encoding="utf-8"?>
<svg width="30%" viewBox="-31 -31 62 68" xmlns="http://www.w3.org/2000/svg">
  <path d="M 20.742 -7.599 C 20.287 -6.848 19.808 -6.101 19.301 -5.377 C 18.827 -4.699 18.229 -4.018 17.827 -3.306 C 17.465 -2.662 16.701 -2.155 16.168 -1.633 C 15.471 -0.949 15.055 -0.185 14.713 0.673 C 14.512 1.18 14.131 1.644 14.041 2.157 C 13.777 3.654 13.367 5.128 13.07 6.622 C 12.908 7.435 12.755 8.249 12.565 9.045 C 12.379 9.826 12.3 10.762 11.921 11.489 C 11.544 12.213 11.076 12.736 11.207 13.584 C 11.33 14.387 11.927 15.2 12.294 15.932 C 12.8 16.942 9.214 17.786 8.532 17.986 C 6.707 18.521 4.836 18.943 2.964 19.328 C 1.088 19.712 -0.848 20.133 -2.772 20.246 C -3.516 20.29 -3.872 19.092 -4.171 18.604 C -4.392 18.243 -4.623 17.884 -4.846 17.523 C -4.99 17.29 -5.51 17.121 -5.764 16.991 C -6.476 16.629 -6.925 16.318 -7.51 15.82 C -8.244 15.199 -8.939 14.548 -9.671 13.925 C -10.356 13.34 -10.899 12.63 -11.614 12.072 C -12.254 11.574 -12.942 11.081 -13.537 10.554 C -14.274 9.901 -14.994 9.299 -15.319 8.395 C -15.594 7.627 -15.864 6.835 -16.313 6.131 C -17.019 5.019 -18.11 4.202 -18.866 3.126 C -19.676 1.975 -20.877 0.977 -22.128 0.07 C -22.712 -0.353 -23.499 -0.647 -23.337 -1.424 C -23.23 -1.943 -22.79 -2.21 -22.28 -2.407 C -20.575 -3.069 -18.694 -2.873 -17.068 -2.145 C -16.253 -1.781 -15.413 -1.472 -14.962 -0.735 C -14.513 -0.001 -14.42 0.761 -13.708 1.367 C -13.075 1.906 -12.349 2.559 -11.559 2.916 C -10.653 3.327 -10.067 2.521 -9.547 1.921 C -8.39 0.577 -8.202 -0.72 -8.218 -2.378 C -8.232 -3.933 -8.474 -5.474 -8.905 -6.98 C -9.43 -8.808 -9.657 -10.712 -9.99 -12.575 C -10.287 -14.246 -10.614 -15.916 -10.89 -17.591 C -11.101 -18.864 -11.242 -20.527 -9.523 -21.08 C -8.975 -21.257 -7.834 -21.278 -7.422 -20.798 C -6.973 -20.277 -6.776 -19.519 -6.581 -18.885 C -6.201 -17.656 -5.695 -16.396 -5.344 -15.146 C -4.929 -13.669 -4.602 -12.171 -4.207 -10.69 C -4.065 -10.162 -3.213 -6.267 -2.485 -6.468 C -1.84 -6.646 -1.743 -8.055 -1.641 -8.553 C -1.471 -9.382 -1.329 -10.211 -1.238 -11.051 C -1.057 -12.714 -1.109 -14.384 -0.852 -16.054 C -0.619 -17.569 -0.296 -19.06 -0.156 -20.585 C -0.036 -21.909 -0.296 -23.765 0.847 -24.795 C 1.985 -25.82 3.694 -25.434 4.27 -24.111 C 4.562 -23.441 4.408 -22.554 4.454 -21.843 C 4.506 -21.054 4.528 -20.278 4.484 -19.489 C 4.396 -17.937 4.218 -16.349 4.26 -14.801 C 4.302 -13.273 4.036 -11.707 3.958 -10.178 C 3.921 -9.43 3.861 -8.673 3.948 -7.929 C 4.018 -7.328 4.058 -5.93 4.677 -5.577 C 5.188 -7.052 5.646 -8.54 6.084 -10.018 C 6.54 -11.56 7.131 -13.075 7.442 -14.628 C 7.743 -16.13 9.311 -22.4 12.295 -20.449 C 13.672 -19.549 12.899 -17.258 12.693 -16.039 C 12.564 -15.289 12.322 -14.526 12.215 -13.752 C 12.12 -13.063 12.14 -12.354 12.017 -11.67 C 11.736 -10.089 11.454 -8.49 11.055 -6.928 C 10.69 -5.504 10.274 -4.002 10.189 -2.539 C 10.738 -2.528 11.512 -3.297 11.864 -3.632 C 12.384 -4.131 12.982 -4.584 13.472 -5.101 C 14.593 -6.286 15.666 -7.456 16.742 -8.671 C 17.47 -9.495 17.917 -10.672 18.974 -11.206 C 20.266 -11.859 21.415 -10.975 21.591 -9.812 C 21.652 -8.968 21.178 -8.317 20.742 -7.599 Z" style="fill:#000099;strokeWidth:0"/>
</svg>