<?xml version="1.0" encoding="utf-8"?>
<svg width="30%" viewBox="-31 -31 62 68" xmlns="http://www.w3.org/2000/svg">
  <path d="M -23.33 -0.987 L -23.324 -0.987 C -23.328 -0.937 -23.33 -0.903 -23.33 -0.903 Z M -23.208 -1.448 C -23.133 -1.397 -23.115 -1.416 -23.16 -1.498 C -23.246 -1.654 -23.087 -2.028 -22.732 -2.503 L -22.482 -2.838 L -21.687 -4.096 L -20.839 -4.946 C -19.914 -5.872 -18.359 -7.191 -17.016 -8.187 C -15.583 -9.249 -15.6 -9.244 -14.552 -9.088 C -14.051 -9.013 -13.604 -8.926 -13.558 -8.895 C -13.192 -8.643 -10.67 -8.195 -10.362 -8.327 C -10.27 -8.366 -10.1 -8.619 -9.984 -8.89 C -9.501 -10.015 -9.443 -11.198 -9.857 -11.445 C -10.116 -11.599 -10.185 -11.497 -10.185 -10.966 C -10.185 -10.637 -10.236 -10.503 -10.381 -10.451 C -10.489 -10.413 -10.631 -10.25 -10.697 -10.089 C -10.826 -9.774 -11.093 -9.715 -11.357 -9.948 C -11.612 -10.168 -11.987 -11.127 -11.987 -11.551 C -11.987 -11.968 -11.66 -12.782 -11.331 -13.182 L -11.123 -13.436 L -11.688 -13.522 C -12.614 -13.663 -12.659 -14.05 -11.835 -14.799 C -11.263 -15.319 -11.261 -15.322 -11.517 -15.453 C -11.689 -15.54 -11.775 -15.681 -11.775 -15.874 C -11.775 -16.277 -11.923 -16.341 -12.316 -16.114 C -12.593 -15.955 -12.667 -15.948 -12.742 -16.08 C -12.904 -16.366 -12.841 -16.603 -12.507 -16.955 C -12.326 -17.148 -12.068 -17.556 -11.933 -17.864 L -11.689 -18.426 L -11.999 -18.426 C -12.23 -18.426 -12.342 -18.505 -12.433 -18.727 C -12.541 -18.993 -12.522 -19.066 -12.274 -19.342 C -12.037 -19.606 -11.879 -19.664 -11.274 -19.704 C -10.879 -19.731 -10.517 -19.792 -10.47 -19.841 C -10.423 -19.89 -10.505 -20.171 -10.653 -20.464 L -10.92 -21.001 L -10.42 -21.247 C -10.145 -21.382 -9.979 -21.494 -10.053 -21.497 C -10.135 -21.499 -10.185 -21.673 -10.185 -21.959 C -10.185 -22.319 -10.128 -22.461 -9.92 -22.613 C -9.774 -22.718 -9.655 -22.885 -9.655 -22.981 C -9.655 -23.268 -9.452 -23.179 -9.38 -22.859 C -9.341 -22.686 -9.214 -22.535 -9.074 -22.496 C -8.746 -22.404 -7.986 -22.642 -7.511 -22.988 C -7.293 -23.145 -7.049 -23.274 -6.967 -23.274 C -6.885 -23.274 -6.638 -23.358 -6.416 -23.461 C -6.162 -23.58 -5.854 -23.626 -5.582 -23.586 C -3.969 -23.353 -3.955 -23.354 -3.659 -23.613 C -3.358 -23.878 -3.158 -23.854 -3.258 -23.564 C -3.354 -23.284 -3.087 -23.037 -2.688 -23.037 L -2.319 -23.037 L -2.39 -22.357 C -2.455 -21.729 -2.437 -21.639 -2.152 -21.201 C -1.841 -20.722 -1.068 -18.488 -1.068 -18.069 C -1.068 -17.745 -0.569 -16.456 -0.14 -15.675 C 0.071 -15.288 0.089 -15.167 -0.003 -14.787 C -0.2 -13.987 -0.478 -13.62 -1.048 -13.408 C -1.763 -13.144 -2.071 -13.248 -2.277 -13.823 C -2.369 -14.075 -2.454 -14.449 -2.468 -14.654 C -2.482 -14.858 -2.554 -15.051 -2.629 -15.084 C -2.703 -15.115 -2.764 -15.213 -2.764 -15.302 C -2.764 -15.54 -3.878 -16.096 -4.157 -15.998 C -4.371 -15.922 -4.38 -15.865 -4.321 -15.002 C -4.163 -12.723 -3.555 -11.786 -1.228 -10.232 C -1.111 -10.155 -0.896 -10.006 -0.751 -9.901 C -0.493 -9.717 1.419 -8.641 2.059 -8.32 C 3.209 -7.743 4.653 -7.55 6.088 -7.78 C 7.774 -8.052 8.467 -8.055 9.851 -7.797 C 12.349 -7.332 12.544 -7.41 14.649 -9.721 C 16.064 -11.276 16.129 -11.33 16.861 -11.572 C 17.42 -11.758 17.798 -11.809 18.318 -11.769 C 19.297 -11.694 19.544 -11.606 20.464 -11.013 L 21.27 -10.492 L 21.877 -9.037 C 22.475 -7.604 22.483 -7.568 22.438 -6.709 C 22.412 -6.227 22.337 -5.613 22.272 -5.345 C 22.106 -4.665 21.471 -3.487 20.814 -2.642 C 20.364 -2.065 20.122 -1.869 19.51 -1.586 C 19.096 -1.395 18.641 -1.101 18.497 -0.934 L 18.236 -0.63 L 18.445 -0.262 C 18.706 0.197 19.024 0.276 20.092 0.142 C 21.405 -0.022 22.316 0.227 22.785 0.882 C 23.008 1.191 23.05 1.375 23.05 2.04 C 23.05 2.989 22.85 3.329 22.291 3.329 C 21.908 3.329 21.874 3.256 22.053 2.819 C 22.144 2.595 22.132 2.453 21.998 2.164 C 21.705 1.532 20.911 1.483 20.739 2.087 C 20.521 2.848 19.825 3.261 19.727 2.687 C 19.677 2.398 19.311 2.058 18.968 1.981 C 18.822 1.948 18.314 1.888 17.839 1.845 C 17.023 1.774 16.953 1.744 16.555 1.318 C 16.013 0.737 15.754 0.31 15.587 -0.279 C 15.446 -0.777 15.432 -0.702 15.959 -2.269 C 16.126 -2.764 16.67 -3.603 17.007 -3.881 C 17.902 -4.622 18.602 -5.624 18.492 -6.009 C 18.457 -6.13 18.24 -6.421 18.009 -6.653 C 17.667 -6.997 17.507 -7.076 17.143 -7.076 C 16.711 -7.076 15.876 -6.801 15.601 -6.567 C 15.401 -6.396 14.816 -6.027 14.516 -5.882 C 14.37 -5.812 14.003 -5.627 13.7 -5.474 L 13.15 -5.194 L 13.421 -4.096 C 13.641 -3.204 13.67 -2.933 13.577 -2.655 C 13.514 -2.466 13.484 -2.272 13.512 -2.223 C 13.539 -2.174 13.609 -1.617 13.667 -0.985 C 13.728 -0.338 13.868 0.399 13.988 0.701 C 14.356 1.629 15.827 3.713 16.414 4.137 C 16.704 4.347 16.969 4.617 17.004 4.736 C 17.037 4.855 17.159 5.047 17.275 5.163 C 17.468 5.36 17.484 5.536 17.486 7.574 C 17.487 9.028 17.539 10.043 17.64 10.575 C 17.724 11.017 17.825 11.901 17.865 12.537 L 17.936 13.696 L 17.394 14.363 C 17.097 14.729 16.825 15.177 16.791 15.357 C 16.756 15.537 16.708 15.798 16.682 15.94 C 16.657 16.08 16.696 16.224 16.769 16.258 C 16.844 16.291 17.272 16.984 17.272 16.984 L 14.6 16.984 L 14.646 16.481 C 14.683 16.079 14.849 15.641 15.237 14.935 C 15.937 13.658 16.046 13.28 16.04 12.136 C 16.03 10.187 15.893 7.948 15.747 7.333 C 15.532 6.431 15.494 6.349 15.167 6.079 C 14.818 5.791 13.296 4.983 13.103 4.983 C 13.029 4.983 12.922 4.934 12.867 4.875 C 12.73 4.726 11.5 4.273 11.233 4.273 C 10.838 4.273 11.117 5 11.91 6.027 C 12.177 6.374 12.396 6.724 12.396 6.803 C 12.396 7.034 11.61 8.77 11.2 9.441 C 10.995 9.779 10.623 10.326 10.374 10.654 C 9.903 11.277 9.583 11.822 8.72 13.466 C 8.439 14.003 8.151 14.442 8.082 14.442 C 8.011 14.442 7.827 14.565 7.67 14.715 C 7.335 15.036 7.13 16.042 7.377 16.147 C 7.455 16.181 7.519 16.289 7.519 16.39 C 7.519 16.544 7.302 16.57 6.088 16.57 C 4.43 16.57 4.369 16.515 5.025 15.604 C 5.228 15.322 5.585 14.816 5.82 14.478 C 6.054 14.14 6.311 13.821 6.391 13.768 C 6.472 13.717 6.931 12.982 7.412 12.136 C 7.893 11.292 8.495 10.271 8.751 9.869 C 9.006 9.466 9.215 9.058 9.215 8.961 C 9.215 8.864 9.422 8.287 9.674 7.679 C 10.018 6.854 10.105 6.537 10.019 6.42 C 9.802 6.125 9.113 5.421 8.914 5.291 C 8.288 4.882 7.026 3.863 6.903 3.666 C 6.824 3.54 6.639 3.293 6.492 3.116 C 6.345 2.941 6.112 2.583 5.974 2.324 C 5.835 2.063 5.552 1.723 5.343 1.566 C 5.006 1.311 4.861 1.282 4.03 1.302 C 3.516 1.314 2.935 1.377 2.738 1.44 C 2.148 1.629 -1.348 1.717 -2.129 1.561 C -2.507 1.486 -3.093 1.379 -3.43 1.321 C -3.767 1.264 -4.244 1.138 -4.49 1.041 C -4.736 0.944 -5.295 0.745 -5.733 0.6 C -7.361 0.059 -9.51 -0.896 -11.033 -1.754 C -11.354 -1.935 -11.722 -2.119 -11.852 -2.163 C -11.981 -2.206 -12.473 -2.486 -12.943 -2.783 L -13.799 -3.324 L -14.23 -3.107 C -14.725 -2.858 -15.739 -1.593 -16.03 -0.861 C -16.134 -0.597 -16.293 -0.064 -16.381 0.321 C -16.504 0.853 -16.633 1.109 -16.912 1.378 L -17.283 1.732 L -17.11 2.446 C -16.959 3.068 -16.956 3.205 -17.086 3.506 C -17.248 3.88 -18.371 4.664 -18.658 4.603 C -18.857 4.561 -18.953 3.31 -18.788 2.919 C -18.731 2.787 -18.515 2.199 -18.307 1.614 C -17.861 0.359 -17.09 -1.434 -16.603 -2.347 C -16.413 -2.705 -15.985 -3.509 -15.653 -4.136 C -14.828 -5.688 -14.661 -5.776 -13.176 -5.421 C -12.586 -5.279 -12.022 -5.182 -11.922 -5.204 C -11.822 -5.226 -12.368 -5.579 -13.136 -5.989 C -14.293 -6.608 -14.655 -6.746 -15.247 -6.8 C -16.407 -6.905 -17.267 -6.411 -18.645 -4.852 C -19.355 -4.049 -19.96 -3.533 -20.601 -3.188 C -21.044 -2.95 -21.105 -2.871 -21.105 -2.543 C -21.106 -1.913 -21.302 -1.314 -21.529 -1.248 C -21.605 -1.226 -21.654 -1.193 -21.686 -0.903 L -22.482 -0.903 L -22.482 -0.999 L -22.907 -0.992 L -23.324 -0.987 C -23.312 -1.152 -23.277 -1.496 -23.208 -1.448 Z" style="fill:#000099;strokeWidth:0"/>
</svg>