<?xml version="1.0" encoding="utf-8"?>
<svg width="30%" viewBox="-31 -31 62 68" xmlns="http://www.w3.org/2000/svg">
  <path d="M -11.079 12.605 C -11.794 12.432 -12.064 12.153 -11.925 11.733 C -11.803 11.367 -10.723 11.084 -9.055 10.982 C -8.213 10.93 -7.245 10.808 -6.904 10.71 C -5.125 10.2 -3.386 9.155 -2.95 8.333 C -2.835 8.116 -2.616 6.685 -2.432 4.948 C -2.137 2.174 -2.13 1.924 -2.344 1.738 C -2.471 1.627 -3.521 1.163 -4.677 0.707 C -6.525 -0.021 -6.911 -0.224 -7.884 -0.979 C -8.887 -1.758 -9.053 -1.952 -9.672 -3.08 C -10.428 -4.455 -11.727 -7.475 -12.122 -8.774 C -12.359 -9.554 -12.44 -9.661 -13.271 -10.299 C -13.942 -10.814 -14.19 -11.091 -14.265 -11.408 C -14.444 -12.171 -14.235 -12.628 -13.44 -13.209 L -12.715 -13.739 L -12.818 -16.035 C -12.917 -18.265 -12.911 -18.339 -12.616 -18.635 C -12.449 -18.802 -12.074 -18.991 -11.782 -19.055 C -11.053 -19.215 11.055 -19.215 11.783 -19.055 C 12.076 -18.991 12.453 -18.801 12.621 -18.632 C 12.92 -18.334 12.925 -18.267 12.82 -16.236 C 12.76 -15.087 12.718 -14.051 12.727 -13.933 C 12.736 -13.816 13.063 -13.486 13.455 -13.199 C 14.235 -12.629 14.445 -12.167 14.266 -11.408 C 14.192 -11.09 13.944 -10.814 13.268 -10.295 C 12.433 -9.655 12.35 -9.546 12.113 -8.771 C 11.704 -7.434 10.416 -4.428 9.674 -3.08 C 9.054 -1.953 8.888 -1.758 7.885 -0.979 C 6.912 -0.224 6.527 -0.021 4.678 0.707 C 3.523 1.163 2.473 1.627 2.346 1.738 C 2.132 1.924 2.139 2.175 2.433 4.964 C 2.613 6.662 2.839 8.15 2.948 8.358 C 3.364 9.149 5.144 10.207 6.905 10.709 C 7.247 10.807 8.225 10.933 9.079 10.989 C 10.763 11.1 11.807 11.373 11.926 11.733 C 12.07 12.167 11.799 12.429 11.019 12.612 C 9.926 12.868 -10.02 12.862 -11.079 12.605 Z" style="fill:#000099;strokeWidth:0"/>
</svg>