<?xml version="1.0" encoding="utf-8"?>
<svg width="30%" viewBox="-31 -31 62 68" xmlns="http://www.w3.org/2000/svg">
  <path d="M 7.408 -11.28 L 12.22 -16.73 L 15.264 -17.294 L 17.917 -16.484 L 18.448 -15.003 L 21.366 -14.017 L 21.366 -12.044 L 20.103 -10.669 L 15.948 -10.669 L 15.706 -9.73 L 15.056 -9.366 L 14.658 -7.885 L 13.408 -2.918 L 11.816 0.289 L 9.959 2.262 L 9.429 8.428 C 9.663 9.061 9.967 9.529 10.326 9.85 C 10.685 10.172 11.098 10.348 11.551 10.401 L 11.942 11.635 L 11.658 12.357 L 10.616 12.374 L 7.913 12.328 L 6.245 9.168 L 5.98 3.249 L 4.919 2.262 L 2.468 2.145 L 0.624 1.581 L -0.589 0.723 L -3.039 0.289 L -4.163 1.299 L -6.173 1.017 L -7.814 2.755 L -9.734 4.67 L -10.201 7.935 L -9.834 9.62 L -8.584 10.483 L -7.321 10.753 L -7.044 11.734 L -7.649 12.304 L -10.201 12.374 L -12.198 8.934 L -12.589 5.222 L -12.867 4.634 L -14.869 5.733 L -15.734 8.416 L -15.696 10.613 L -14.231 11.259 L -13.694 11.94 L -14.42 12.856 L -16.834 12.868 L -17.718 10.895 L -17.579 5.27 L -13.902 0.359 L -13.208 -1.462 L -13.776 -4.574 L -13.372 -7.287 L -12.261 -9.401 L -13.423 -11.721 L -14.206 -14.157 L -14.894 -18.192 L -14.383 -22.227 L -13.65 -23.143 L -12.855 -18.457 L -11.793 -14.264 L -9.76 -10.681 L -1.713 -10.511 L 3.826 -10.631 Z" style="fill:#000099;strokeWidth:0"/>
</svg>