<?xml version="1.0" encoding="utf-8"?>
<svg width="30%" viewBox="-31 -31 62 68" xmlns="http://www.w3.org/2000/svg">
  <path d="M 2.225 -18.166 C 2.519 -13.971 2.283 -13.286 3.131 -10.864 C 3.744 -9.113 4.206 -8.251 4.309 -7.934 C 7.616 -9.683 8.795 -9.986 12.599 -9.779 C 16.642 -9.558 19.35 -13.188 19.35 -13.188 C 19.35 -13.188 20.077 -9.92 16.527 -7.572 C 12.976 -5.224 12.255 -5.084 10.544 -3.151 C 9.357 -1.809 8.821 -0.993 8.578 -0.712 C 11.765 1.223 12.621 2.077 14.338 5.414 C 16.166 8.965 20.718 9.455 20.718 9.455 C 20.718 9.455 18.202 11.707 14.358 9.859 C 10.514 8.012 10.029 7.468 7.47 6.979 C 5.655 6.632 4.667 6.589 4.317 6.521 C 4.23 6.818 3.759 7.68 3.131 9.475 C 2.283 11.897 2.519 12.582 2.225 16.777 C 1.931 20.972 -1.311 21.988 -1.311 21.988 C -1.311 21.988 0.533 17.868 -1.683 14.538 C -3.774 11.394 -4.092 10.24 -4.203 6.521 C -4.546 6.591 -5.535 6.632 -7.362 6.981 C -9.921 7.47 -10.406 8.014 -14.25 9.862 C -18.095 11.709 -20.611 9.457 -20.611 9.457 C -20.611 9.457 -16.058 8.967 -14.231 5.416 C -12.509 2.069 -11.652 1.22 -8.443 -0.727 C -8.691 -1.021 -9.227 -1.828 -10.395 -3.149 C -12.106 -5.081 -12.827 -5.222 -16.378 -7.57 C -19.928 -9.918 -19.201 -13.185 -19.201 -13.185 C -19.201 -13.185 -16.493 -9.556 -12.45 -9.776 C -8.662 -9.983 -7.478 -9.684 -4.202 -7.954 C -4.09 -11.64 -3.767 -12.795 -1.683 -15.927 C 0.533 -19.258 -1.311 -23.377 -1.311 -23.377 C -1.311 -23.377 1.931 -22.362 2.225 -18.166 Z" style="fill:#000099;strokeWidth:0"/>
</svg>