<?xml version="1.0" encoding="utf-8"?>
<svg width="30%" viewBox="-31 -31 62 68" xmlns="http://www.w3.org/2000/svg">
  <path d="M 5.759 4.177 C 4.898 3.72 3.686 2.147 3.409 1.124 C 3.342 0.88 2.815 0.322 2.236 -0.115 C 1.659 -0.553 0.655 -1.659 0.008 -2.574 C -1.602 -4.849 -2.774 -5.501 -4.519 -5.093 C -5.165 -4.942 -5.199 -4.873 -5.199 -3.741 C -5.199 -2.306 -5.86 -1.418 -7.453 -0.711 C -8.349 -0.315 -8.435 -0.21 -8.195 0.174 C -8.026 0.443 -7.48 0.67 -6.759 0.77 C -5.484 0.947 -5.22 1.291 -5.602 2.27 C -5.824 2.841 -5.965 2.891 -7.347 2.891 C -8.83 2.891 -8.859 2.878 -9.466 1.936 C -9.805 1.412 -10.356 0.679 -10.69 0.307 C -11.025 -0.064 -11.298 -0.547 -11.298 -0.768 C -11.298 -1.103 -11.396 -1.123 -11.898 -0.888 C -12.227 -0.733 -13.084 -0.536 -13.801 -0.449 C -14.807 -0.326 -15.122 -0.188 -15.179 0.158 C -15.231 0.484 -15.069 0.648 -14.579 0.763 C -14.104 0.874 -13.867 1.103 -13.772 1.545 C -13.546 2.598 -14.049 2.919 -15.626 2.727 C -17.572 2.489 -17.835 2.15 -17.652 0.11 C -17.516 -1.421 -17.466 -1.54 -16.878 -1.723 C -16.291 -1.906 -15.219 -2.863 -15.219 -3.204 C -15.219 -3.288 -15.612 -3.313 -16.092 -3.26 C -16.572 -3.206 -17.66 -3.361 -18.508 -3.604 C -20.417 -4.151 -21.962 -4.001 -23.632 -3.108 C -25.173 -2.284 -25.676 -2.263 -25.669 -3.025 C -25.661 -3.901 -24.229 -6.003 -23.347 -6.433 C -22.769 -6.715 -21.845 -6.795 -19.692 -6.749 C -16.916 -6.688 -16.772 -6.711 -15.819 -7.363 C -15.276 -7.735 -13.906 -9.185 -12.775 -10.585 C -9.696 -14.398 -8.317 -14.892 -3.457 -13.918 C -0.977 -13.42 -0.433 -13.204 2.642 -11.489 C 4.628 -10.38 6.886 -9.334 8.124 -8.946 C 9.998 -8.361 10.347 -8.321 11.282 -8.588 C 12.616 -8.967 12.993 -9.19 14.121 -10.255 C 16.076 -12.099 17.835 -12.518 20.252 -11.712 C 21.334 -11.351 21.716 -11.023 23.389 -9.018 C 25.757 -6.18 25.829 -5.755 24.091 -4.857 C 22.626 -4.1 21.643 -4.075 19.78 -4.748 C 18.683 -5.143 18.066 -5.221 17.09 -5.087 C 15.723 -4.9 15.637 -4.827 13.346 -1.916 L 12.221 -0.489 L 13.041 0.142 C 13.491 0.489 14.643 1.125 15.602 1.554 C 17.104 2.228 17.354 2.428 17.413 2.995 C 17.481 3.638 17.451 3.654 16.216 3.652 C 15.351 3.65 14.603 3.461 13.859 3.058 C 13.261 2.733 12.525 2.393 12.226 2.302 C 11.927 2.212 11.338 1.887 10.919 1.581 C 10.277 1.112 9.82 1.021 8.024 1.003 L 5.891 0.982 L 5.954 1.618 C 6.001 2.08 6.267 2.394 6.927 2.764 C 8.151 3.452 8.22 3.569 7.762 4.162 C 7.274 4.792 6.923 4.794 5.759 4.177 Z M 21.592 -8.418 C 21.592 -8.619 21.49 -8.859 21.365 -8.949 C 21.084 -9.152 20.463 -8.587 20.627 -8.277 C 20.822 -7.908 21.592 -8.021 21.592 -8.418 Z" style="fill:#000099;strokeWidth:0"/>
</svg>