<?xml version="1.0" encoding="utf-8"?>
<svg width="30%" viewBox="-31 -31 62 68" xmlns="http://www.w3.org/2000/svg">
  <path d="M -4.671 21.938 C -5.353 19.931 -9.752 6.136 -9.752 6.005 C -9.752 5.941 -9.06 4.331 -8.214 2.427 C -7.368 0.522 -6.63 -1.153 -6.573 -1.296 C -6.477 -1.533 -6.389 -1.601 -5.504 -2.114 C -3.684 -3.17 -3.651 -3.292 -5.299 -2.895 C -6.655 -2.57 -7.832 -2.213 -8.357 -1.969 C -8.618 -1.848 -9.078 -1.66 -9.377 -1.552 C -10.746 -1.059 -12.818 0.052 -14.317 1.097 C -15.103 1.643 -16.374 2.744 -16.809 3.254 C -16.964 3.435 -17.111 3.68 -17.135 3.796 C -17.19 4.059 -17.164 4.28 -16.454 9.434 C -15.889 13.535 -15.041 19.876 -14.951 20.67 C -14.905 21.074 -14.905 21.076 -15.077 21.076 C -15.197 21.076 -15.26 21.035 -15.288 20.941 C -15.31 20.867 -16.052 16.965 -16.937 12.268 L -18.546 3.73 L -18.845 3.337 C -19.269 2.779 -19.254 2.691 -18.65 2.217 C -17.523 1.333 -15.878 0.164 -15.137 -0.278 C -14.701 -0.537 -13.503 -1.221 -12.474 -1.799 L -10.602 -2.848 L -8.935 -3.334 C -6.488 -4.047 -6.391 -4.069 -5.502 -4.13 C -5.055 -4.16 -4.661 -4.211 -4.625 -4.243 C -4.585 -4.278 -4.684 -4.37 -4.893 -4.489 L -5.226 -4.68 L -9.514 -4.64 C -11.871 -4.618 -14.003 -4.603 -14.248 -4.607 C -15.152 -4.619 -18.023 -4.169 -19.248 -3.823 C -19.591 -3.726 -19.932 -3.647 -20.005 -3.647 C -20.079 -3.647 -20.225 -3.726 -20.331 -3.824 L -20.524 -4.001 L -19.69 -5.717 L -19.616 -8.058 L -19.543 -10.398 L -18.327 -15.346 L -17.106 -17.702 C -14.324 -23.07 -14.003 -23.657 -13.846 -23.678 C -13.74 -23.692 -13.699 -23.666 -13.699 -23.584 C -13.699 -23.488 -14.182 -22.284 -15.161 -19.938 C -15.285 -19.642 -15.85 -18.337 -16.415 -17.039 C -17.796 -13.874 -17.936 -13.449 -18.36 -11.15 C -18.515 -10.307 -18.531 -10.058 -18.53 -8.449 L -18.529 -6.677 L -18.04 -6.288 L -17.551 -5.897 L -11.422 -5.897 C -5.665 -5.897 -5.247 -5.89 -4.53 -5.781 C -4.11 -5.717 -3.749 -5.679 -3.729 -5.697 C -3.67 -5.749 -3.935 -6.252 -4.343 -6.863 C -4.717 -7.423 -5.049 -7.803 -5.831 -8.57 C -6.228 -8.957 -6.258 -9.009 -6.369 -9.48 L -6.487 -9.98 L -5.769 -13.429 C -5.373 -15.326 -4.776 -18.201 -4.44 -19.818 C -4.104 -21.436 -3.815 -22.793 -3.798 -22.834 C -3.781 -22.875 -3.72 -22.908 -3.663 -22.908 C -3.605 -22.908 -3.558 -22.875 -3.558 -22.834 C -3.559 -22.793 -3.849 -20.504 -4.203 -17.748 C -4.557 -14.992 -4.924 -12.078 -5.017 -11.273 L -5.188 -9.807 L -4.807 -9.412 C -4.104 -8.684 -2.778 -7.417 -2.662 -7.361 C -2.425 -7.25 -2.272 -7.303 -2.115 -7.549 C -1.916 -7.857 -1.713 -7.909 -1.426 -7.723 C -1.307 -7.646 -1.155 -7.521 -1.086 -7.445 C -0.966 -7.311 -0.933 -7.307 0.244 -7.307 L 1.452 -7.307 L 1.667 -7.577 C 1.786 -7.726 1.92 -7.847 1.965 -7.847 C 2.01 -7.847 2.233 -7.742 2.46 -7.613 C 3.151 -7.222 3.103 -7.213 3.842 -7.886 C 4.896 -8.848 5.477 -9.457 5.666 -9.796 C 5.819 -10.074 5.834 -10.145 5.772 -10.346 C 5.647 -10.76 5.44 -12.03 5.089 -14.538 C 4.56 -18.323 3.996 -22.558 3.996 -22.743 C 3.996 -22.878 4.026 -22.908 4.161 -22.908 C 4.359 -22.908 4.226 -23.45 5.285 -18.348 C 5.734 -16.187 6.317 -13.381 6.58 -12.114 C 6.843 -10.847 7.058 -9.738 7.058 -9.651 C 7.058 -9.391 6.626 -8.832 5.926 -8.19 C 5.289 -7.604 4.678 -6.854 4.165 -6.029 C 4.026 -5.805 3.926 -5.609 3.944 -5.593 C 3.962 -5.577 4.177 -5.606 4.422 -5.656 C 5.04 -5.782 6.398 -5.914 7.783 -5.98 C 9.021 -6.04 10.815 -6.004 15.124 -5.832 L 17.643 -5.732 L 18.208 -5.959 C 18.606 -6.12 18.801 -6.235 18.868 -6.35 C 18.93 -6.457 19 -6.993 19.068 -7.913 C 19.252 -10.372 19.239 -10.51 18.622 -12.767 C 18.178 -14.392 18.203 -14.328 16.143 -19.068 C 14.122 -23.717 14.139 -23.675 14.277 -23.752 C 14.526 -23.891 14.59 -23.808 15.514 -22.143 C 16.449 -20.461 16.797 -19.746 18.426 -16.158 L 19.324 -14.178 L 20.07 -10.098 L 20.152 -7.877 L 20.235 -5.656 L 20.66 -4.851 L 21.085 -4.045 L 20.855 -3.842 L 20.624 -3.639 L 19.779 -3.854 C 18.284 -4.233 15.696 -4.609 14.545 -4.613 C 14.264 -4.614 12.51 -4.63 10.648 -4.647 C 8.499 -4.667 7.262 -4.658 7.262 -4.621 C 7.262 -4.587 6.96 -4.566 6.531 -4.57 C 5.904 -4.576 5.752 -4.557 5.464 -4.441 C 5.274 -4.363 5.156 -4.283 5.192 -4.255 C 5.227 -4.228 5.714 -4.162 6.276 -4.11 C 7.199 -4.024 7.395 -3.983 8.317 -3.688 C 9.787 -3.219 11.659 -2.548 12.612 -2.148 C 13.512 -1.772 13.907 -1.524 16.818 0.491 C 19.069 2.048 19.542 2.41 19.567 2.602 C 19.579 2.687 19.461 3.05 19.305 3.41 C 18.999 4.118 19.098 3.634 17.709 11.144 C 17.032 14.797 15.867 20.612 15.728 21.03 C 15.708 21.088 15.639 21.136 15.573 21.136 C 15.435 21.136 15.377 21.632 16.518 12.975 C 17.43 6.052 17.675 4.129 17.675 3.903 C 17.675 3.554 17.397 3.181 16.59 2.452 C 15.455 1.424 14.331 0.663 12.503 -0.319 C 11.729 -0.734 8.929 -2.012 8.227 -2.271 C 7.659 -2.479 5.461 -3.023 4.931 -3.085 L 4.577 -3.126 L 4.686 -2.982 C 4.745 -2.902 5.293 -2.54 5.902 -2.177 L 7.01 -1.517 L 7.193 -1.096 C 7.293 -0.866 8.039 0.837 8.85 2.685 C 9.662 4.535 10.325 6.08 10.325 6.119 C 10.325 6.185 8.699 11.281 6.308 18.705 C 5.776 20.355 5.299 21.78 5.246 21.87 C 5.142 22.048 4.949 22.095 4.949 21.942 C 4.949 21.668 5.534 19.402 7.472 12.158 L 8.968 6.572 L 7.716 3.998 C 5.994 0.457 5.707 -0.108 5.523 -0.324 C 5.309 -0.575 3.222 -1.785 3.135 -1.708 C 3.115 -1.69 3.244 -1.271 3.421 -0.776 L 3.743 0.124 L 3.248 1.254 C 2.308 3.403 0.944 6.42 0.803 6.664 L 0.661 6.909 L 0.22 6.894 C -0.024 6.886 -0.25 6.853 -0.283 6.822 C -0.317 6.79 -0.99 5.279 -1.78 3.464 L -3.215 0.163 L -2.91 -0.667 C -2.568 -1.599 -2.556 -1.667 -2.727 -1.667 C -2.92 -1.667 -3.745 -1.293 -4.409 -0.903 L -5.022 -0.544 L -5.512 0.44 C -5.781 0.981 -6.569 2.556 -7.264 3.94 C -7.959 5.325 -8.527 6.499 -8.527 6.551 C -8.528 6.602 -7.59 10.056 -6.444 14.226 L -4.36 21.809 L -4.497 21.93 C -4.628 22.045 -4.635 22.045 -4.671 21.938 Z" style="fill:#000099;strokeWidth:0"/>
</svg>