<?xml version="1.0" encoding="utf-8"?>
<svg width="30%" viewBox="-31 -31 62 68" xmlns="http://www.w3.org/2000/svg">
  <path d="M 16.207 -21.379 C 16.193 -21.27 16.084 -21.191 15.959 -21.198 C 8.452 -21.61 4.71 -17.426 4.089 -16.659 C 4.49 -16.228 4.74 -15.686 4.74 -15.088 C 4.74 -14.081 4.056 -13.218 3.076 -12.821 C 3.843 -11.973 4.507 -10.865 5.026 -9.557 L 9.297 -10.104 C 9.185 -12.455 10.131 -14.692 11.623 -16.166 C 12.256 -16.882 13.468 -17.648 13.598 -17.739 C 13.805 -17.885 14.07 -17.629 13.882 -17.465 C 13.509 -17.128 10.814 -15.256 10.668 -11.74 C 10.643 -11.079 10.698 -10.299 10.891 -9.68 C 10.891 -9.68 10.897 -9.652 10.903 -9.623 C 10.965 -9.253 10.671 -8.907 10.246 -8.853 L 5.48 -8.242 C 5.844 -7.01 6.108 -5.476 6.21 -4.027 C 9.659 -3.432 12.25 -2.066 13.602 -1.215 C 13.667 -1.174 13.686 -1.096 13.645 -1.036 C 13.605 -0.975 13.519 -0.951 13.446 -0.98 C 9.643 -2.48 7.286 -2.843 6.317 -2.93 C 6.306 -0.524 5.833 2.216 4.878 4.445 L 8.441 6.001 C 8.642 6.091 8.801 6.257 8.853 6.465 L 10.116 11.561 L 10.128 11.609 C 10.148 11.692 10.144 11.781 10.111 11.868 L 8.053 17.28 C 8.014 17.384 7.892 17.451 7.764 17.432 C 7.622 17.412 7.526 17.295 7.549 17.171 L 8.567 11.73 L 7.412 7.07 L 4.269 5.698 C 3.596 6.884 2.78 7.806 1.874 8.403 C 1.992 8.724 2.5 9.883 3.962 10.855 C 4.048 10.913 4.075 11.017 4.024 11.101 C 3.973 11.186 3.86 11.226 3.757 11.196 C 2.821 10.927 1.552 10.321 0.746 8.959 C 0.473 9.047 0.053 9.126 -0.234 9.126 C -0.521 9.126 -0.941 9.047 -1.214 8.959 C -2.02 10.321 -3.289 10.927 -4.225 11.196 C -4.328 11.226 -4.441 11.186 -4.492 11.101 C -4.543 11.017 -4.516 10.913 -4.43 10.855 C -2.968 9.883 -2.46 8.724 -2.342 8.403 C -3.248 7.806 -4.064 6.884 -4.737 5.698 L -7.88 7.07 L -9.034 11.73 L -8.017 17.171 C -7.994 17.295 -8.09 17.412 -8.232 17.432 C -8.36 17.451 -8.482 17.384 -8.521 17.28 L -10.579 11.868 C -10.612 11.781 -10.616 11.692 -10.596 11.609 L -10.584 11.561 L -9.321 6.465 C -9.269 6.257 -9.11 6.091 -8.909 6.001 L -5.346 4.445 C -6.301 2.216 -6.774 -0.524 -6.785 -2.93 C -7.754 -2.843 -10.111 -2.48 -13.914 -0.98 C -13.987 -0.951 -14.073 -0.975 -14.113 -1.036 C -14.154 -1.096 -14.135 -1.174 -14.07 -1.215 C -12.718 -2.066 -10.127 -3.432 -6.678 -4.027 C -6.576 -5.476 -6.312 -7.01 -5.948 -8.242 L -10.714 -8.853 C -11.139 -8.907 -11.433 -9.253 -11.371 -9.623 C -11.365 -9.652 -11.359 -9.68 -11.359 -9.68 C -11.166 -10.299 -11.111 -11.079 -11.136 -11.74 C -11.282 -15.256 -13.977 -17.128 -14.35 -17.465 C -14.538 -17.629 -14.273 -17.885 -14.066 -17.739 C -13.936 -17.648 -12.724 -16.882 -12.091 -16.166 C -10.6 -14.692 -9.652 -12.455 -9.765 -10.104 L -5.494 -9.557 C -4.975 -10.865 -4.311 -11.973 -3.544 -12.821 C -4.524 -13.218 -5.208 -14.081 -5.208 -15.088 C -5.208 -15.686 -4.958 -16.228 -4.557 -16.659 C -5.178 -17.426 -8.92 -21.61 -16.427 -21.198 C -16.552 -21.191 -16.661 -21.27 -16.675 -21.379 C -16.689 -21.488 -16.603 -21.587 -16.48 -21.605 C -12.897 -22.114 -7.597 -21.853 -3.302 -17.44 C -2.145 -17.801 -0.975 -17.484 -0.234 -16.774 C 0.507 -17.484 1.677 -17.801 2.834 -17.44 C 7.129 -21.853 12.429 -22.114 16.012 -21.605 C 16.135 -21.587 16.221 -21.488 16.207 -21.379 Z"/>
</svg>