<?xml version="1.0" encoding="utf-8"?>
<svg width="30%" viewBox="-31 -31 62 68" xmlns="http://www.w3.org/2000/svg">
  <path d="M 25.33 -3.645 C 25.233 -3.568 25.136 -3.49 25.038 -3.4130000000000003 C 24.846 -3.259 24.654 -3.106 24.468 -2.946 C 22.833 -1.5390000000000001 21.04 -0.29700000000000004 19.202 0.8350000000000001 C 18.079 1.5270000000000001 16.926 2.173 15.746 2.766 C 14.578 3.354 13.382 3.869 12.169 4.356 C 13.499 3.52 14.793 2.642 16.03 1.674 C 18.094 0.06 20.023 -1.7349999999999999 21.767 -3.685 C 20.218 -4.68 18.648 -5.643 17.041 -6.5440000000000005 C 14.729 -7.8420000000000005 12.347 -9.03 9.868 -9.985 C 9.323 -10.196 8.772 -10.394 8.217 -10.58 C 9.166 -9.104 9.717 -7.353 9.717 -5.478 C 9.717 -0.223 5.399 4.052 0.091 4.052 C -5.217 4.052 -9.535 -0.223 -9.535 -5.478 C -9.535 -7.3629999999999995 -8.979 -9.123 -8.021 -10.604 C -8.458 -10.457 -8.892 -10.301 -9.32 -10.136 C -11.453 -9.317 -13.521 -8.363 -15.534 -7.285 C -17.607 -6.175 -19.62 -4.961 -21.595 -3.687 C -20.553 -2.5220000000000002 -19.442 -1.417 -18.28 -0.369 C -17.3 0.516 -16.281 1.359 -15.226 2.1550000000000002 C -14.181 2.942 -13.095 3.661 -11.987 4.356 C -12.482 4.157 -12.978 3.9619999999999997 -13.467 3.749 C -15.877 2.698 -18.183 1.42 -20.369 -0.031 C -21.47 -0.762 -22.543 -1.536 -23.573 -2.3609999999999998 C -23.983 -2.69 -24.377 -3.037 -24.789 -3.365 C -24.904 -3.457 -25.019 -3.549 -25.134 -3.64 C -25.191 -3.685 -25.201 -3.689 -25.169 -3.735 C -25.01 -3.971 -24.845 -4.202 -24.683 -4.436 C -24.434 -4.794 -24.187 -5.1530000000000005 -23.929 -5.506 C -23.212 -6.488 -22.404 -7.411 -21.564 -8.292 C -20.677 -9.223 -19.739 -10.107 -18.758 -10.941 C -16.778 -12.622 -14.623 -14.099 -12.321 -15.314 C -10.006 -16.536 -7.523 -17.487 -4.956 -18.035 C -2.989 -18.455 -0.97 -18.653 1.042 -18.565 C 3.206 -18.47 5.35 -18.085 7.417 -17.442 C 9.918 -16.664 12.295 -15.543 14.52 -14.174 C 16.73 -12.814 18.777 -11.203 20.645 -9.412 C 22.107 -8.011 23.451 -6.486 24.602 -4.824 C 24.855 -4.458 25.105 -4.091 25.361 -3.727 C 25.388 -3.689 25.379 -3.684 25.33 -3.645 Z M 6.644 -5.478 C 6.644 -9.056 3.7039999999999997 -11.966 0.091 -11.966 C -3.523 -11.966 -6.463 -9.056 -6.463 -5.478 C -6.463 -1.9 -3.523 1.011 0.091 1.011 C 3.7039999999999997 1.011 6.644 -1.9 6.644 -5.478 Z M -2.733 -8.274000000000001 C -4.293 -6.73 -4.293 -4.226 -2.733 -2.682 C -1.174 -1.138 1.355 -1.138 2.915 -2.682 C 4.474 -4.226 4.474 -6.73 2.915 -8.274000000000001 C 1.355 -9.818 -1.174 -9.818 -2.733 -8.274000000000001 Z M 2.806 -5.586 C 2.482 -5.265 1.6360000000000001 -5.583 0.916 -6.295 C 0.196 -7.008 -0.125 -7.846 0.199 -8.166 C 0.523 -8.487 1.369 -8.169 2.089 -7.457 C 2.809 -6.744 3.13 -5.906 2.806 -5.586 Z" style="fill:#000099;strokeWidth:0"/>
</svg>