<?xml version="1.0" encoding="utf-8"?>
<svg width="30%" viewBox="-31 -31 62 68" xmlns="http://www.w3.org/2000/svg">
  <path d="M -1.965 10.583 C -2.442 9.957 -3.057 8.454 -3.057 8.454 C -13.499 5.197 -12.75 -2.879 -12.75 -2.879 C -7.904 3.57 -5.72 3.882 -5.72 3.882 C -3.808 4.634 -4.9 1.379 -4.9 1.379 C -14.934 -5.008 -11.248 -10.519 -11.248 -10.519 C -8.313 -4.258 -5.377 -3.004 -5.377 -3.004 C -3.534 -2.252 -5.31 -6.511 -5.31 -6.511 C -13.296 -14.463 -5.583 -18.284 -5.583 -18.284 C -7.561 -12.773 -2.648 -9.016 -2.648 -9.016 C -0.941 -3.568 -1.965 -1.189 -1.965 -1.189 C -3.261 3.632 -1.146 7.828 -1.146 7.828 C -1.146 7.828 -0.892 8.391 -0.241 8.391 C 0.185 8.391 0.561 7.327 0.561 7.327 C 3.564 0.314 -0.327 -7.075 -0.327 -7.075 C -9.61 -19.724 -1.214 -24.42 -1.214 -24.42 C -1.965 -16.53 1.175 -12.398 1.175 -12.398 C 3.086 -10.393 3.769 -12.585 3.769 -12.585 C 5.749 -15.653 5.203 -17.97 5.203 -17.97 C 11.687 -14.15 5.816 -8.076 5.816 -8.076 C 3.223 -4.759 4.451 -3.568 4.451 -3.568 C 9.64 -6.198 10.459 -10.707 10.459 -10.707 C 13.803 -5.446 8.342 -1.564 8.342 -1.564 C 3.496 1.315 3.905 3.695 3.905 3.695 C 9.367 1.315 12.37 -4.445 12.37 -4.445 C 12.846 7.202 3.223 8.892 3.223 8.892 C 2.881 10.144 2.267 10.583 2.267 10.583 L 1.834 10.583 C 2.542 10.623 3.244 10.734 3.924 11.094 C 6.323 12.364 7.8 14.712 7.8 17.252 C 7.8 22.726 1.34 26.146 -3.827 23.41 C -6.225 22.139 -7.702 19.792 -7.702 17.252 C -7.702 13.443 -4.575 10.951 -0.931 10.583 Z M 0.702 -24.729 C 0.7 -24.731 0.699 -24.732 0.697 -24.733 C 0.699 -24.732 0.7 -24.731 0.702 -24.729 Z M 3.496 -14.902 C 2.199 -12.022 1.243 -14.088 1.243 -14.088 C -0.258 -16.686 0.697 -18.158 0.697 -18.158 C 1.709 -21.004 0.855 -24.585 0.702 -24.729 C 5.611 -21.223 3.496 -14.902 3.496 -14.902 Z" style="fill:#000099;strokeWidth:0"/>
</svg>