<?xml version="1.0" encoding="utf-8"?>
<svg width="30%" viewBox="-31 -31 62 68" xmlns="http://www.w3.org/2000/svg">
  <path d="M -2.792 -0.566 C -3.767 3.696 0.485 4.096 1.875 0.566 C 1.221 -3.263 -1.367 -3.464 -4.562 -2.528 C -7.477 -0.946 -8.076 0.998 -7.942 3.056 C -7.416 6.724 -4.863 9.13 -0.298 9.441 C 3.643 9.326 7.317 7.697 9.24 3.031 C 10.769 -1.401 9.299 -4.678 6.864 -7.583 C -0.518 -16.352 -11.422 -9.978 -14.782 -7.055 L -17.437 -16.487 C -15.278 -19.129 -12.763 -21.343 -7.379 -20.11 C -4.682 -23.156 -0.832 -24.147 3.331 -21.137 C 5.839 -21.575 11.529 -23.23 12.094 -15.431 C 13.056 -14.793 19.443 -15.127 16.363 -6.941 C 18.575 -5.103 20.79 -2.582 16.443 1.737 C 18.855 5.72 17.403 7.984 13.791 9.287 C 13.376 14.249 10.538 14.952 6.868 14.192 C 4.968 17.769 2.087 17.728 -1.344 15.657 C -3.597 16.171 -6.77 18.096 -8.754 12.531 C -12.016 12.295 -14.696 11.405 -13.816 6.527 C -15.205 5.952 -18.289 4.882 -14.782 0.642 C -15.271 -1.421 -15.856 -3.509 -11.563 -4.263 C -10.697 -6.621 -8.921 -7.615 -6.011 -6.904 C -3.307 -9.671 -1.545 -8.216 0.266 -6.98 C 4.957 -7.305 3.876 -4.768 4.166 -3.483 C 7.17 -2.306 6.122 -0.532 4.933 1.019 C 5.7 3.654 4.943 4.903 2.438 4.565 C -0.034 7.84 -1.374 5.994 -2.229 4.641 C -3.992 5.128 -7.411 4.013 -2.792 -0.566 Z" style="fill:#000099;strokeWidth:0"/>
</svg>