<?xml version="1.0" encoding="utf-8"?>
<svg width="30%" viewBox="-31 -31 62 68" xmlns="http://www.w3.org/2000/svg">
  <path d="M 20.535 -16.722 C 20.217 -14.286 20.533 -10.756 21.085 -9.602 C 20.415 -9.865 19.669 -10.486 19.301 -11.3 C 19.04 -10.411 18.778 -9.523 18.517 -8.634 C 20.174 -4.951 15.865 -2.052 12.279 -1.851 C 14.468 -0.551 17.333 1.067 17.333 1.919 C 16.462 2.277 15.943 1.262 15.248 0.933 C 15.993 3.055 15.533 4.627 15.148 6.721 C 14.771 7.211 15.147 7.536 15.298 7.944 C 15.643 8.09 15.988 8.236 16.332 8.382 C 16.387 8.437 16.443 8.492 16.499 8.547 C 16.499 8.547 17.227 8.583 17.427 9.697 C 16.942 9.053 16.282 9.259 16.282 9.259 C 16.199 9.319 16.115 9.38 16.032 9.441 C 15.837 9.313 15.643 9.186 15.448 9.058 C 14.803 8.589 14.148 8.614 13.447 8.948 C 13.091 9.183 12.724 9.17 12.379 8.985 C 11.985 8.516 11.128 8.93 11.112 8.93 C 11.095 8.93 10.195 9.587 10.195 9.587 C 10.195 9.587 9.978 9.533 9.961 9.533 C 9.945 9.533 9.377 9.518 8.627 10.044 C 8.824 8.927 9.561 8.948 9.561 8.948 C 9.493 8.715 9.65 8.753 9.694 8.656 C 9.937 8.361 10.45 8.413 10.828 8.291 C 10.106 8.255 9.383 8.218 8.66 8.181 C 8.672 8.145 8.682 8.109 8.694 8.072 C 8.22 8.027 7.847 8.006 7.576 8.492 C 7.549 7.676 8.176 7.527 8.577 7.342 C 8.758 7.034 9.154 7.084 9.527 7.123 C 9.527 7.123 10.9 7.68 11.327 7.857 C 10.829 7.633 9.011 6.777 9.011 6.777 C 8.898 6.592 9.044 6.483 9.044 6.465 C 9.044 6.447 8.428 6.039 7.993 6.502 C 8.078 5.533 9.128 5.79 9.128 5.79 C 9.187 5.475 9.472 5.519 9.611 5.662 C 9.884 5.954 10.156 6.246 10.428 6.538 C 10.684 6.715 10.94 6.891 11.196 7.068 C 11.907 7.411 12.664 7.286 13.297 6.173 C 13.081 5.598 13.181 5.345 13.664 5.004 C 13.539 4.621 13.584 4.226 13.73 3.855 C 13.516 3.509 13.388 2.543 13.597 2.321 C 13.118 2.136 12.93 1.609 12.896 1.609 C 12.457 1.708 12.076 1.551 11.896 1.353 C 11.216 1.681 10.638 1.504 10.195 1.079 C 9.414 1.37 8.701 1.168 8.327 0.805 C 7.729 0.966 6.789 0.496 6.625 -0.034 C 6.282 -0.034 5.931 -0.455 5.559 -0.418 C 5.253 0.133 5.172 0.079 4.708 0.532 C 4.234 1.072 4.403 1.983 4.775 2.412 C 5.358 2.655 5.942 2.899 6.526 3.143 C 7.86 3.227 8.179 4.064 8.16 4.877 C 7.656 4.711 7.637 4.62 7.393 4.603 C 7.048 4.469 6.704 4.335 6.359 4.201 C 5.282 6.103 3.755 7.436 1.572 8.054 C 1.99 8.269 2.406 8.187 2.824 8.255 C 2.974 8.352 3.124 8.449 3.274 8.547 C 3.922 8.696 4.38 8.92 4.374 9.587 C 3.94 9.058 3.517 9.071 3.174 9.332 C 2.482 9.649 2.084 8.954 1.539 8.766 C 1.077 8.402 0.627 8.555 0.222 8.784 C -0.234 8.457 -0.756 8.624 -1.28 8.693 C -1.931 8.763 -2.673 8.946 -2.997 9.35 C -3.211 9.535 -3.297 9.259 -3.314 9.277 C -4.063 9.011 -4.398 9.733 -4.398 9.733 C -4.576 8.899 -4.19 8.719 -3.781 8.601 C -4.059 8.425 -4.337 8.249 -4.615 8.072 C -4.632 7.968 -4.695 7.95 -4.531 7.908 C -4.86 7.678 -5.187 7.855 -5.548 8.218 C -5.515 7.457 -4.659 6.981 -4.298 7.232 C -4.038 7.022 -3.564 6.984 -3.214 7.305 C -2.82 7.631 -2.224 7.673 -1.83 7.543 C -2 7.028 -2.542 6.723 -2.847 6.703 C -3.278 6.588 -3.776 6.424 -3.631 6.137 C -3.897 5.723 -4.275 5.852 -4.698 6.191 C -4.547 5.25 -3.639 5.345 -3.398 5.552 C -3.31 5.263 -3.031 5.195 -2.797 5.498 C -2.428 5.606 -2.374 5.887 -2.163 6.082 C -1.753 6.541 -1.118 6.778 -0.595 6.867 C -0.107 6.56 0.471 6.512 1.039 6.502 C 1.148 5.98 1.459 5.866 1.873 5.863 C 1.859 5.398 2.07 5.192 2.473 4.987 C 2.473 4.987 1.834 4.925 1.789 4.475 C 0.718 4.469 0.012 4.309 -0.078 3.544 C -1.054 3.208 -1.668 2.403 -1.28 1.536 C -1.764 1.696 -2.08 1.708 -2.497 1.536 C -3.174 2.185 -4.222 2.971 -4.865 2.535 C -5.17 2.88 -5.882 3.289 -5.899 3.289 C -5.983 4.116 -6.566 5.132 -6.566 5.132 C -6.855 4.336 -7.405 3.464 -7.367 2.68 C -8.342 4.068 -8.912 4.481 -9.685 5.388 C -10.311 6.092 -10.632 6.92 -10.852 7.834 C -10.385 8.127 -9.785 8.078 -9.251 8.2 C -9.107 8.407 -9.14 8.321 -9.084 8.382 C -8.515 8.395 -8.095 8.739 -8.1 9.387 C -8.608 8.812 -9.117 9.167 -9.117 9.167 C -9.534 9.546 -10.063 9.375 -10.568 9.167 C -11.008 8.654 -11.647 8.362 -12.186 8.802 C -12.837 9.382 -13.13 8.496 -14.138 9.113 C -14.855 9.827 -15.851 9.894 -16.123 9.459 C -16.123 9.459 -16.62 9.243 -17.323 10.062 C -17.122 8.73 -16.372 8.857 -16.372 8.857 C -16.383 8.717 -16.395 8.577 -16.406 8.437 C -16.5 8.401 -16.595 8.364 -16.689 8.327 C -17.195 8.083 -17.824 8.144 -18.107 8.401 C -17.914 7.528 -17.173 7.523 -16.623 7.615 C -16.522 7.494 -16.423 7.372 -16.322 7.25 C -16.551 7.153 -16.501 6.983 -16.439 6.812 C -16.745 6.476 -16.972 6.409 -17.356 6.757 C -17.236 5.909 -16.501 5.964 -15.989 6.337 C -15.711 6.147 -15.11 6.507 -14.721 6.757 C -13.537 7.192 -12.799 7.249 -11.603 5.57 C -11.593 4.772 -11.548 4.463 -10.902 3.982 C -11.149 3.495 -11.015 3.008 -10.402 2.777 C -10.619 2.552 -10.451 2.221 -10.3 1.874 C -11.179 1.83 -12.165 1.931 -12.853 2.193 C -13.081 2.954 -13.375 3.752 -13.871 4.256 C -13.859 2.274 -14.903 0.869 -16.172 -0.619 C -17.629 -1.663 -18.273 -3.766 -18.391 -4.453 C -18.658 -3.683 -18.841 -3.558 -18.841 -3.54 C -19.164 -3.155 -18.944 -2.281 -19.614 -2.262 C -20.239 -1.425 -20.992 -1.915 -20.992 -1.915 C -20.279 -2.024 -20.157 -2.34 -20.025 -2.864 C -20.471 -2.98 -20.081 -3.388 -19.858 -3.54 C -19.72 -3.569 -19.369 -4.54 -19.141 -4.508 C -19.046 -5.463 -18.952 -6.419 -18.858 -7.374 C -19.431 -7.635 -19.815 -8.043 -19.774 -8.743 C -19.986 -9.042 -20.131 -9.474 -19.841 -9.638 C -19.969 -9.998 -20.119 -10.393 -20.592 -10.533 C -19.494 -10.741 -19.357 -10.009 -19.074 -9.949 C -18.752 -9.737 -18.53 -8.524 -18.14 -7.885 C -18.436 -8.933 -18.285 -9.638 -17.99 -10.551 C -17.989 -11.044 -18.178 -11.525 -18.623 -11.811 C -17.686 -11.835 -17.306 -10.77 -17.273 -10.734 C -16.682 -9.891 -17.48 -9.305 -17.223 -8.926 C -17.039 -9.078 -16.945 -9.426 -16.672 -9.383 C -16.444 -9.656 -16.272 -9.954 -16.289 -10.569 C -15.715 -10.211 -15.855 -9.681 -16.039 -9.163 C -16.005 -8.389 -16.104 -8.177 -16.573 -7.904 C -17.042 -7.598 -17.128 -7.345 -17.073 -6.973 C -16.503 -6.306 -16.389 -4.252 -16.389 -4.252 C -15.816 -4.063 -15.607 -3.522 -15.639 -3.084 C -15.097 -3.136 -14.604 -2.678 -14.521 -2.262 C -14.201 -2.591 -13.75 -2.285 -13.437 -1.933 C -13.327 -2.117 -13.092 -2.202 -12.837 -2.098 C -12.837 -2.42 -12.672 -2.621 -12.404 -2.883 C -13.05 -3.433 -13.229 -4.791 -12.503 -5.53 C -12.649 -6.526 -12.372 -7.465 -11.903 -7.575 C -12.055 -8.666 -11.458 -9.013 -11.219 -9.273 C -11.375 -9.774 -10.87 -10.691 -10.585 -10.697 C -10.87 -11.216 -10.342 -12.164 -9.918 -12.231 C -9.918 -12.249 -10.202 -12.961 -10.202 -12.961 C -10.202 -12.961 -11.56 -12.738 -11.803 -11.373 C -11.97 -11.657 -12.136 -12.085 -12.136 -12.085 C -12.136 -12.085 -12.679 -10.496 -12.695 -10.533 C -13.164 -10.844 -12.953 -11.61 -12.953 -11.61 C -13.293 -12.018 -13.232 -12.535 -13.371 -12.997 C -14.644 -13.059 -15.916 -13.119 -17.189 -13.18 C -17.189 -13.18 -16.773 -12.339 -16.757 -12.322 C -17.21 -12.315 -19.414 -14.38 -19.841 -16.138 C -18.71 -15.165 -17.504 -14.908 -16.222 -14.623 C -16.561 -14.44 -16.9 -14.257 -17.24 -14.075 C -13.725 -13.745 -10.085 -14.458 -10.102 -14.477 C -10.495 -15.374 -11.786 -15.371 -11.786 -15.371 C -11.786 -15.17 -11.786 -14.969 -11.786 -14.769 C -11.903 -14.86 -12.019 -14.951 -12.136 -15.042 C -12.142 -14.89 -12.148 -14.738 -12.153 -14.586 C -12.242 -14.653 -12.331 -14.72 -12.42 -14.787 C -12.448 -14.659 -12.475 -14.531 -12.503 -14.403 C -12.592 -14.47 -12.681 -14.537 -12.77 -14.604 C -12.809 -14.489 -12.848 -14.373 -12.887 -14.257 C -12.987 -14.343 -13.087 -14.428 -13.187 -14.513 C -13.187 -14.513 -13.437 -14.513 -13.454 -14.549 C -13.617 -15.462 -14.404 -15.481 -14.404 -15.481 C -15.329 -15.611 -16.05 -15.395 -16.873 -15.353 C -15.665 -17.012 -14.004 -16.857 -12.42 -17.033 C -12.304 -17.77 -11.712 -17.986 -11.019 -18.092 C -11.019 -18.092 -7.767 -17.909 -7.75 -17.909 C -7.332 -18.514 -6.032 -18.767 -6.032 -18.767 C -5.577 -19.017 -5.071 -18.909 -4.665 -19.516 C -4.771 -18.687 -4.776 -18.517 -4.832 -18.018 C -4.693 -18 -4.553 -17.982 -4.414 -17.964 C -4.793 -17.696 -5.296 -17.318 -5.675 -17.05 C -6.095 -16.352 -6.014 -16.342 -5.832 -15.973 C -5.704 -15.73 -5.576 -15.487 -5.449 -15.243 C -4.8 -15.025 -4.327 -14.723 -4.181 -14.257 C -4.883 -14.349 -5.393 -14.207 -5.382 -13.874 C -5.368 -13.629 -4.836 -13.52 -4.619 -13.374 C -4.216 -12.961 -4.084 -12.597 -4.064 -12.085 C -4.581 -12.115 -5.257 -12.96 -5.616 -12.176 C -5.787 -11.792 -5.597 -11.272 -5.149 -11.099 C -4.325 -10.852 -4.248 -9.62 -4.264 -9.62 C -4.281 -9.62 -6.073 -10.929 -5.983 -9.707 C -6.013 -9.167 -5.783 -9.047 -5.599 -8.89 C -5.062 -8.672 -4.604 -8.419 -4.665 -7.794 C -5.437 -8.099 -5.804 -7.86 -5.899 -7.374 C -5.799 -7.058 -5.699 -6.741 -5.599 -6.425 C -4.553 -6.656 -3.508 -6.887 -2.463 -7.119 C -2.006 -7.574 -1.801 -8.332 -1.846 -9.145 C -1.792 -10.356 -2.189 -11.43 -0.779 -12.779 C 2.161 -15.461 5.151 -17.566 8.494 -19.589 C 7.816 -18.352 7.328 -16.047 9.102 -15.9 C 9.671 -15.891 15.915 -18.767 15.915 -18.767 C 13.744 -17.033 11.246 -14.611 14.147 -13.563 C 11.486 -12.656 9.279 -9.711 11.212 -7.338 C 9.831 -7.768 8.019 -6.794 7.693 -5.694 C 9.264 -5.707 10.684 -5.802 12.18 -5.238 C 12.18 -5.238 16.348 -4.329 16.632 -6.333 C 14.406 -5.809 12.755 -6.052 12.68 -8.251 C 12.699 -10.136 15.287 -11.197 17.49 -9.784 C 17.718 -10.295 17.939 -10.807 18.167 -11.318 C 17.361 -11.209 16.632 -11.059 15.798 -11.272 C 17.494 -13.034 19.09 -14.768 20.535 -16.722 Z M -16.757 -12.322 C -16.756 -12.322 -16.756 -12.322 -16.756 -12.322 C -16.756 -12.322 -16.756 -12.322 -16.757 -12.322 Z" style="fill:#000099;strokeWidth:0"/>
</svg>