<?xml version="1.0" encoding="utf-8"?>
<svg width="30%" viewBox="-31 -31 62 68" xmlns="http://www.w3.org/2000/svg">
  <path d="M 24.078 -17.656 C 24.078 -13.834 18.139 -2.411 15.993 -1.19 C 15.104 -0.684 13.987 -0.556 12.948 -0.761 C 14.226 0.316 15.155 1.968 15.155 4.236 C 15.155 9.685 11.446 12.494 7.802 12.494 C 3.865 12.494 2.022 9.029 2.022 0.462 C 1.606 1.5 1.144 2.584 1.144 4.473 C 1.144 7.74 1.823 11.886 0.582 11.972 L 0.582 11.975 C 0.575 11.975 0.569 11.974 0.562 11.973 C 0.555 11.974 0.549 11.975 0.542 11.975 L 0.542 11.973 C -0.699 11.887 -0.02 7.741 -0.02 4.473 C -0.02 2.585 -0.483 1.5 -0.898 0.462 C -0.898 9.029 -2.741 12.494 -6.679 12.494 C -10.323 12.494 -14.032 9.685 -14.032 4.236 C -14.032 1.968 -13.103 0.316 -11.824 -0.76 C -12.864 -0.555 -13.981 -0.684 -14.87 -1.189 C -17.017 -2.41 -22.956 -13.834 -22.956 -17.656 C -22.956 -18.977 -21.892 -19.401 -19.488 -19.401 C -12.228 -19.401 -2.378 -10.154 -1.037 -4.397 C -0.744 -5.056 -0.34 -5.523 0.023 -5.778 C -0.625 -8.03 -3.761 -10.933 -4.274 -13.268 C -4.33 -13.522 -3.817 -13.763 -3.752 -13.5 C -3.074 -10.731 -0.419 -8.28 0.153 -5.861 C 0.296 -5.944 0.428 -5.991 0.541 -6 L 0.541 -6.002 C 0.548 -6.002 0.554 -6.001 0.561 -6.001 C 0.567 -6.001 0.574 -6.002 0.58 -6.002 L 0.58 -6 C 0.693 -5.991 0.826 -5.944 0.969 -5.861 C 1.54 -8.28 4.196 -10.731 4.875 -13.5 C 4.938 -13.762 5.453 -13.522 5.397 -13.268 C 4.883 -10.933 1.748 -8.031 1.099 -5.778 C 1.462 -5.524 1.867 -5.056 2.16 -4.397 C 3.502 -10.154 13.35 -19.401 20.61 -19.401 C 23.015 -19.401 24.078 -18.977 24.078 -17.656 Z" style="fill:#000099;strokeWidth:0"/>
</svg>