<?xml version="1.0" encoding="utf-8"?>
<svg width="30%" viewBox="-31 -31 62 68" xmlns="http://www.w3.org/2000/svg">
  <path d="M -1.077 4.111 C -2.005 2.987 -6.113 2.57 -6.582 3.255 C -7.358 4.387 -8.19 5.455 -7.14 3.162 C -8.298 4.735 -8.131 3.756 -6.947 1.989 C -6.947 1.989 -5.569 1.561 -5.834 0.489 C -6.118 -0.655 -10.203 -3.65 -13.513 -2.912 C -17.382 -2.05 -15.887 -1.996 -17.088 -4.007 C -17.531 -4.75 -17.818 -5.497 -21.439 -5.114 C -21.797 -7.687 -22.208 -9.492 -24.733 -10.274 C -17.587 -16.296 -14.981 -16.208 -15.014 -16.591 C -15.172 -18.429 -15.662 -20.513 -14.55 -16.833 C -14.575 -20.032 -14.756 -19.105 -14.092 -16.69 C -13.938 -16.133 -10.82 -14.317 -8.253 -13.63 C -4.718 -12.684 -3.634 -11.674 -3.634 -12.33 C -3.634 -12.81 -3.979 -14.111 -4.275 -14.343 C -4.941 -14.865 -5.509 -18.638 -4.676 -19.436 C -4.464 -19.709 -0.209 -15.526 -0.209 -15.526 C -0.209 -15.526 3.623 -19.465 4.037 -19.682 C 4.636 -19.095 4.84 -16.672 3.618 -14.449 C 3.365 -13.99 3.205 -12.988 3.205 -12.562 C 3.205 -11.649 9.346 -13.29 13.094 -16.297 C 13.833 -16.889 13.841 -18.402 13.84 -18.535 C 13.841 -18.47 13.855 -18.052 13.957 -17.044 C 14.762 -19.919 14.588 -18.77 14.233 -16.702 C 14.158 -16.263 19.562 -15.325 24.172 -9.428 C 23.031 -9.428 21.335 -9.148 20.99 -5.053 C 17.687 -5.07 17.34 -5.133 15.944 -2.517 C 12.192 -2.905 8.614 -3.053 6.957 -1.179 L 5.159 0.857 L 6.494 2.297 C 7.272 3.135 7.906 4.382 6.506 2.966 C 6.682 5.619 6.681 4.219 5.714 2.773 C 4.221 2.775 0.955 3.071 0.655 4.212 C -0.4 8.234 -0.392 8.089 -1.077 4.111 Z M 13.84 -18.535 C 13.839 -18.548 13.84 -18.548 13.84 -18.535 Z" style="fill:#000099;strokeWidth:0"/>
</svg>