<?xml version="1.0" encoding="utf-8"?>
<svg width="30%" viewBox="-31 -31 62 68" xmlns="http://www.w3.org/2000/svg">
  <path d="M -7.219 16.652 C -10.27 16.437 -11.864 15.349 -12.683 14.141 C -12.526 11.2 -12.072 7.537 -10.793 4.213 C -10.061 2.31 -9.021 0.587 -7.745 -0.68 C -6.35 -2.19 -5.061 -3.352 -3.763 -4.31 C -1.199 -6.189 1.049 -7.008 1.761 -7.296 C 2.481 -7.571 3.772 -8.087 5.333 -8.663 C 6.89 -9.19 8.776 -9.954 10.385 -10.888 C 13.679 -12.671 16.41 -14.683 16.416 -14.691 C 16.409 -14.684 13.49 -13.082 10.099 -11.754 C 8.385 -11.03 6.633 -10.555 4.998 -10.18 C 3.389 -9.77 2.03 -9.353 1.282 -9.067 C -0.117 -8.488 -8.501 -5.833 -12.783 3.069 C -13.751 5.343 -14.359 7.695 -14.752 9.899 C -15.72 9.358 -16.925 8.311 -17.253 6.374 C -17.825 2.999 -17.507 -7.129 -8.236 -12.756 C 1.036 -18.381 11.388 -17.257 16.342 -18.907 C 21.295 -20.557 23.264 -24.308 23.264 -24.308 C 23.264 -24.308 19.136 13.876 -7.219 16.652 Z" id="path134" style="fill: rgb(127, 255, 0); fill-rule: nonzero; stroke: none; stroke-width: 0.642259; stroke-linecap: butt; stroke-linejoin: miter; stroke-dasharray: none;"/>
</svg>