<?xml version="1.0" encoding="utf-8"?>
<svg width="30%" viewBox="-31 -31 62 68" xmlns="http://www.w3.org/2000/svg">
  <path d="M 14.792 10.136 C 12.82 14.399 6.705 16.199 1.811 16.596 C 0.895 16.684 0.003 16.71 -0.866 16.702 C -6.863 16.578 -11.276 14.178 -14.598 8.961 C -16.724 5.351 -16.031 0.487 -13.319 -3.431 C -10.079 -7.226 -10.42 -11.216 -12.65 -14.578 C -8.354 -11.984 -5.772 -8.541 -6.957 -4.746 L -6.993 -4.552 L -6.547 -5.294 C -5.807 -6.414 -4.881 -7.508 -3.753 -8.586 C 2.115 -14.234 2.385 -20.617 -0.514 -26.23 C 5.777 -21.587 9.227 -15.815 6.586 -9.919 C 5.26 -6.909 5.459 -3.978 6.81 -1.199 L 7.76 0.435 L 7.983 0.373 L 7.948 -0.192 C 7.854 -0.66 7.726 -1.118 7.526 -1.587 C 5.952 -5.267 8.206 -8.913 12.208 -11.86 C 10.319 -8.33 10.389 -4.332 14.005 -0.827 C 17.667 2.737 16.74 6.48 14.792 10.136 Z" style="fill:#000099;strokeWidth:0"/>
</svg>