<?xml version="1.0" encoding="utf-8"?>
<svg width="30%" viewBox="-31 -31 62 68" xmlns="http://www.w3.org/2000/svg">
  <path d="M 4.789 -19.632 L 4.789 -17.44 L 1.574 -17.26 L 1.711 -15.373 L 4.302 -15.312 L 6.225 -14.069 L 4.302 -12.792 L 1.887 -12.761 L 1.887 -11.789 L 3.603 -11.729 L 3.565 -10.054 L 1.959 -9.994 L 1.887 -8.842 L 5.457 -10.298 L 5.839 -6.987 L 6.958 -7.442 L 6.225 -8.718 L 7.798 -9.569 L 8.741 -8.234 L 9.828 -8.81 L 8.673 -10.602 L 8.741 -12.761 L 11.153 -11.94 L 12.377 -10.086 L 14.407 -10.906 L 13.008 -13.217 L 15.247 -14.373 L 19.932 -12.033 L 20 -7.258 L 17.797 -6.195 L 16.085 -8.414 L 14.127 -7.474 L 15.454 -5.495 L 15.247 -3.459 L 12.869 -4.25 L 11.679 -6.195 L 10.454 -5.651 L 11.434 -4.25 L 9.686 -3.37 L 8.848 -4.767 L 7.588 -4.13 L 10.947 -2.002 L 7.588 0.125 L 8.848 0.764 L 9.686 -0.635 L 11.434 0.247 L 10.454 1.676 L 11.679 2.192 L 12.869 0.247 L 15.247 -0.544 L 15.454 1.492 L 14.127 3.468 L 16.085 4.411 L 17.797 2.192 L 20 3.288 L 19.932 8.028 L 15.247 10.37 L 13.008 9.243 L 14.407 6.903 L 12.377 6.084 L 11.153 7.939 L 8.741 8.758 L 8.673 6.602 L 9.828 4.807 L 8.741 4.228 L 7.798 5.566 L 6.225 4.716 L 6.958 3.439 L 5.839 2.984 L 5.457 6.295 L 1.887 4.836 L 1.959 6.023 L 3.565 6.055 L 3.603 7.756 L 1.887 7.786 L 1.887 8.758 L 4.302 8.787 L 6.225 10.066 L 4.302 11.309 L 1.711 11.374 L 1.574 13.257 L 4.789 13.469 L 4.789 15.626 L 0 18 L -4.789 15.626 L -4.789 13.469 L -1.573 13.257 L -1.711 11.374 L -4.301 11.309 L -6.224 10.066 L -4.301 8.787 L -1.922 8.758 L -1.922 7.786 L -3.634 7.756 L -3.565 6.055 L -1.959 6.023 L -1.922 4.836 L -5.488 6.295 L -5.839 2.984 L -6.955 3.439 L -6.224 4.716 L -7.798 5.566 L -8.778 4.228 L -9.827 4.807 L -8.672 6.602 L -8.778 8.758 L -11.153 7.939 L -12.377 6.084 L -14.405 6.903 L -13.008 9.243 L -15.247 10.37 L -19.932 8.028 L -20 3.288 L -17.797 2.192 L -16.085 4.411 L -14.124 3.468 L -15.491 1.492 L -15.247 -0.544 L -12.868 0.247 L -11.677 2.192 L -10.49 1.676 L -11.433 0.247 L -9.685 -0.635 L -8.847 0.764 L -7.587 0.125 L -10.944 -2.002 L -7.587 -4.13 L -8.847 -4.767 L -9.685 -3.37 L -11.433 -4.25 L -10.49 -5.651 L -11.677 -6.195 L -12.868 -4.25 L -15.247 -3.459 L -15.491 -5.495 L -14.124 -7.474 L -16.085 -8.414 L -17.797 -6.195 L -20 -7.258 L -19.932 -12.033 L -15.247 -14.373 L -13.008 -13.217 L -14.405 -10.906 L -12.377 -10.086 L -11.153 -11.94 L -8.778 -12.761 L -8.672 -10.602 L -9.827 -8.81 L -8.778 -8.234 L -7.798 -9.569 L -6.224 -8.718 L -6.955 -7.442 L -5.839 -6.987 L -5.488 -10.298 L -1.922 -8.842 L -1.959 -9.994 L -3.565 -10.054 L -3.634 -11.729 L -1.922 -11.789 L -1.922 -12.761 L -4.301 -12.792 L -6.224 -14.069 L -4.301 -15.312 L -1.711 -15.373 L -1.573 -17.26 L -4.789 -17.44 L -4.789 -19.632 L 0 -22 Z" style="fill:#000099;strokeWidth:0"/>
</svg>