<?xml version="1.0" encoding="utf-8"?>
<svg width="30%" viewBox="-31 -31 62 68" xmlns="http://www.w3.org/2000/svg">
  <path d="M -17.17 -18.165 C -17.104 -18.6 -16.772 -18.89 -16.294 -19.109 C -16.523 -19.366 -16.789 -19.705 -16.604 -20.03 C -16.547 -20.132 -16.489 -20.172 -16.486 -20.295 C -16.483 -20.473 -16.71 -20.59 -16.722 -20.737 C -16.737 -20.924 -16.619 -21.07 -16.354 -21.063 C -16.474 -21.22 -16.449 -21.562 -16.123 -21.478 C -16.199 -22.093 -15.85 -21.951 -15.313 -21.775 C -15.451 -22.098 -15.295 -22.344 -15.228 -22.635 C -15.207 -22.721 -15.122 -22.818 -15.209 -22.9 C -15.275 -22.961 -15.394 -23.071 -15.337 -23.156 C -15.121 -23.47 -14.474 -22.391 -14.229 -22.278 C -14.271 -22.588 -14.356 -23.217 -14.126 -23.488 C -13.746 -23.933 -13.634 -23.029 -13.273 -22.94 C -13.254 -23.246 -13.232 -23.551 -13.16 -23.853 C -13.116 -24.037 -13.136 -24.387 -13 -24.543 C -12.721 -24.871 -12.549 -24.553 -12.547 -24.311 C -12.543 -23.846 -12.618 -23.479 -12.263 -23.075 C -12.151 -22.949 -12.067 -22.848 -12.069 -22.689 C -12.071 -22.514 -12.246 -22.42 -12.063 -22.305 C -11.712 -22.684 -11.193 -22.93 -10.799 -23.271 C -10.52 -23.512 -10.202 -23.79 -9.879 -23.985 C -9.639 -24.129 -9.416 -24.375 -9.349 -24 C -9.263 -23.515 -9.353 -23.021 -9.57 -22.566 C -9.011 -22.599 -8.557 -22.974 -8.009 -22.981 C -7.646 -22.986 -7.324 -22.863 -7.056 -22.72 C -6.903 -22.639 -6.848 -22.505 -6.806 -22.371 C -6.743 -22.178 -6.726 -22.084 -6.63 -21.916 C -6.539 -21.757 -6.632 -21.642 -6.653 -21.492 C -6.667 -21.399 -6.656 -21.291 -6.69 -21.199 C -6.798 -20.913 -6.963 -20.948 -7.301 -20.897 C -7.633 -20.848 -8.046 -20.63 -7.659 -20.381 C -7.352 -20.185 -7.874 -19.932 -8.088 -19.921 C -8.75 -19.887 -8.335 -19.774 -8.62 -19.539 C -7.201 -19.146 -6.309 -18.44 -5.399 -17.518 C -5.098 -17.212 -2.646 -14.64 -3.177 -14.36 C -2.844 -14.039 -2.716 -13.56 -2.577 -13.19 C -2.416 -12.762 -2.184 -12.319 -1.918 -11.912 C -1.669 -11.535 -1.427 -11.143 -1.101 -10.805 C -0.68 -10.369 -0.44 -10.387 0.205 -10.404 C 0.586 -10.414 0.948 -10.322 1.326 -10.365 C 1.97 -10.436 2.593 -10.578 3.248 -10.605 C 3.473 -10.615 4.058 -11.507 4.295 -11.678 C 4.532 -11.852 4.976 -12.226 5.307 -12.205 C 5.242 -12.334 5.286 -12.432 5.47 -12.409 C 5.241 -12.764 5.687 -12.792 5.742 -12.386 C 5.82 -12.577 5.706 -12.818 5.855 -12.987 C 6.103 -13.269 6.09 -12.636 6.087 -12.542 C 6.347 -13.073 6.586 -13.665 7.074 -14.092 C 7.236 -14.233 7.454 -14.335 7.673 -14.407 C 7.89 -14.476 8.272 -14.434 8.447 -14.515 C 8.637 -14.601 8.716 -15.049 8.813 -15.256 C 8.954 -15.554 9.121 -15.842 9.319 -16.12 C 9.732 -16.701 10.298 -17.202 10.958 -17.61 C 12.132 -18.338 13.63 -18.575 15.076 -18.483 C 15.817 -18.435 16.522 -18.215 17.13 -17.877 C 17.393 -17.73 17.631 -17.556 17.85 -17.368 C 18.094 -17.157 18.064 -16.931 18.264 -16.764 C 19.15 -16.033 19.817 -15.026 20.102 -14.03 C 20.249 -13.52 20.393 -12.993 20.322 -12.466 C 20.305 -12.33 20.144 -11.421 19.755 -11.61 C 19.54 -11.713 19.553 -12.754 19.49 -12.977 C 19.373 -13.384 19.169 -13.764 18.957 -14.122 C 18.456 -14.969 17.544 -15.567 16.452 -15.951 C 16.684 -15.653 17.008 -15.322 17.133 -14.982 C 17.225 -14.73 17.15 -14.549 17.281 -14.314 C 17.4 -14.099 18.115 -12.868 17.686 -12.686 C 17.39 -12.56 16.621 -13.461 16.592 -13.667 C 16.488 -14.366 15.542 -14.367 14.879 -14.63 C 14.907 -14.433 15.245 -14.397 15.448 -14.301 C 15.738 -14.163 15.969 -13.982 16.195 -13.782 C 16.644 -13.387 16.969 -12.809 17.221 -12.316 C 17.481 -11.804 17.507 -11.227 17.423 -10.685 C 17.33 -10.091 17.065 -10.456 17.111 -10.833 C 16.91 -10.642 16.456 -10.847 16.355 -11.031 C 16.237 -10.753 15.952 -10.547 16.046 -10.282 C 16.485 -10.65 16.73 -10.304 16.85 -9.909 C 16.908 -9.72 16.944 -9.484 16.968 -9.292 C 17.01 -8.957 16.906 -8.938 17.263 -8.749 C 17.691 -8.521 17.806 -7.825 17.97 -7.458 C 18.188 -6.97 18.444 -6.606 18.441 -6.076 C 18.44 -5.87 18.611 -4.919 18.169 -4.962 C 17.846 -4.995 17.653 -5.6 17.608 -5.776 C 17.505 -6.192 17.657 -6.866 17.185 -7.092 C 16.662 -7.344 16.129 -7.334 15.797 -7.764 C 15.891 -7.047 15.58 -7.414 15.211 -7.66 C 15.088 -7.38 14.609 -7.394 14.454 -7.144 C 14.364 -7 14.458 -6.474 14.536 -6.374 C 14.703 -6.156 14.909 -5.402 14.653 -5.195 C 14.389 -4.981 14.245 -5.614 14.146 -5.695 C 14.103 -5.52 13.977 -5.108 14.136 -4.964 C 14.257 -4.853 14.415 -4.612 14.211 -4.514 C 13.915 -4.371 13.466 -4.971 13.255 -5.091 C 13.415 -4.833 13.835 -3.305 13.159 -3.438 C 13.694 -3.044 13.303 -2.794 12.904 -3.17 C 13.035 -2.783 12.826 -2.617 12.578 -2.951 C 12.384 -3.211 12.31 -3.519 12.039 -3.752 C 12.121 -3.385 12.206 -3.021 12.3 -2.656 C 12.378 -2.357 12.689 -1.746 12.638 -1.464 C 12.539 -0.919 11.872 -1.842 11.761 -2.022 C 11.719 -1.798 11.92 -0.888 11.6 -0.83 C 11.298 -0.776 11.261 -1.312 11.252 -1.481 C 11.202 -1.198 11.528 -0.084 11.118 0.006 C 10.657 0.109 10.541 -0.653 10.484 -0.853 C 10.46 -0.579 10.235 -0.443 10.236 -0.191 C 10.236 0.264 10.32 0.714 10.311 1.17 C 10.308 1.312 10.39 1.835 10.054 1.792 C 9.861 1.768 9.796 0.91 9.733 0.742 C 9.686 0.938 9.709 1.133 9.654 1.33 C 9.629 1.422 9.517 1.561 9.521 1.648 C 9.528 1.803 9.684 1.954 9.672 2.137 C 9.648 2.52 8.987 3.485 8.601 2.84 C 8.815 3.212 8.679 3.4 8.457 3.744 C 8.206 4.131 8.534 4.598 8.28 4.974 C 8.197 5.097 7.982 5.224 7.875 5.344 C 7.671 5.57 7.585 5.758 7.512 6.04 C 7.386 6.522 7.12 6.918 6.888 7.383 C 6.34 8.482 5.599 9.226 4.316 9.866 C 4.038 10.004 3.738 10.139 3.415 10.192 C 3.315 10.208 2.839 10.191 2.814 10.242 C 2.76 10.345 2.694 10.512 2.634 10.587 C 2.491 10.768 2.347 10.719 2.186 10.821 C 2.168 10.833 2.132 10.959 2.078 11.001 C 1.946 11.101 1.815 11.174 1.714 11.3 C 1.479 11.597 1.321 11.946 1.147 12.268 C 0.959 12.613 1.319 12.866 1.666 13.039 C 1.945 13.177 2.696 13.236 2.689 13.596 C 2.677 14.073 1.799 13.864 1.448 13.831 C 1.619 14.174 1.816 14.512 2.04 14.836 C 2.123 14.955 2.216 15.069 2.319 15.167 C 2.48 15.318 2.527 15.449 2.646 15.598 C 2.717 15.688 3.349 16.083 2.996 16.196 C 2.898 16.228 2.585 15.971 2.467 15.922 C 2.358 15.876 2.155 15.923 2.007 15.886 C 1.591 15.784 1.512 15.355 1.145 15.192 C 0.6 14.952 0.259 14.902 0.213 15.457 C 0.189 15.76 0.418 16.305 0.159 16.555 C -0.074 16.779 -0.484 16.83 -0.822 16.77 C -0.82 16.888 -0.975 17.339 -1.179 17.34 C -1.302 17.34 -1.443 17.026 -1.584 17.111 C -1.686 17.175 -1.643 17.589 -1.677 17.72 C -1.732 17.926 -1.877 17.87 -2.044 17.943 C -2.379 18.093 -2.724 18.397 -2.885 18.718 C -3.018 18.985 -3.109 19.205 -3.29 18.786 C -3.474 18.361 -2.79 17.845 -3.308 17.591 C -3.72 17.389 -4.725 17.799 -5.251 17.824 C -5.85 17.854 -6.372 17.845 -6.95 17.709 C -7.027 17.69 -7.252 17.568 -7.292 17.619 C -7.349 17.691 -7.432 17.74 -7.531 17.767 C -7.718 17.819 -7.84 17.768 -8.022 17.826 C -8.13 17.862 -8.223 18.122 -8.409 17.959 C -8.523 17.858 -8.331 17.61 -8.24 17.535 C -7.909 17.268 -8.008 16.87 -7.477 16.69 C -7.232 16.608 -6.799 16.789 -6.545 16.813 C -6.097 16.856 -5.654 16.814 -5.209 16.777 C -5.407 16.719 -6.886 16.703 -6.648 16.393 C -6.377 16.039 -5.535 16.302 -5.141 16.351 C -4.77 16.395 -4.406 16.417 -4.034 16.379 C -3.761 16.352 -3.275 16.375 -3.029 16.308 C -2.725 16.223 -2.543 15.944 -2.373 15.725 C -2.234 15.545 -2.391 15.485 -2.37 15.286 C -2.662 15.318 -2.933 15.295 -3.223 15.296 C -3.557 15.298 -3.846 15.402 -4.173 15.419 C -4.573 15.441 -4.887 15.266 -4.584 14.983 C -3.781 14.23 -1.892 15.194 -1.454 13.922 C -1.262 13.364 -0.974 12.792 -0.93 12.211 C -0.88 11.551 -1.022 10.893 -1.227 10.256 C -1.298 10.041 -1.63 9.999 -1.746 9.768 C -2.012 9.234 -2.305 8.71 -2.628 8.183 C -4.03 5.902 -6.435 4.198 -8.796 2.547 C -9.78 1.862 -10.815 1.229 -11.893 0.685 C -12.559 0.349 -13.23 -0.003 -13.84 -0.403 C -14.033 -0.53 -13.953 -0.622 -14.039 -0.748 C -14.165 -0.934 -14.389 -1.04 -14.463 -1.257 C -14.619 -1.72 -15.151 -2.101 -15.413 -2.537 C -15.738 -3.079 -16.02 -3.635 -16.18 -4.226 C -16.483 -5.344 -16.481 -6.646 -16.28 -7.775 C -16.067 -8.967 -16.272 -10.229 -16.012 -11.424 C -15.957 -11.676 -15.875 -11.871 -15.934 -12.12 C -15.973 -12.285 -15.953 -12.52 -15.834 -12.664 C -15.715 -12.809 -15.599 -12.816 -15.555 -12.966 C -15.51 -13.125 -15.62 -13.295 -15.707 -13.408 C -15.798 -13.526 -15.975 -13.581 -16.025 -13.738 C -16.093 -13.957 -16.253 -13.982 -16.4 -14.17 C -16.54 -14.35 -16.657 -14.444 -16.705 -14.656 C -16.769 -14.936 -16.547 -15.33 -16.653 -15.575 C -17.043 -16.465 -16.589 -17.296 -15.803 -17.968 C -16.033 -17.986 -16.842 -18.08 -16.95 -17.907 C -17.164 -17.563 -17.19 -17.96 -17.17 -18.165 Z" style="fill:#000099;strokeWidth:0"/>
</svg>