<?xml version="1.0" encoding="utf-8"?>
<svg width="30%" viewBox="-31 -31 62 68" xmlns="http://www.w3.org/2000/svg">
  <path d="M -6.983 6.471 C -9.361 7.562 -12.194 9.473 -12.194 12.281 C -12.194 14.698 -9.512 15.829 -6.679 15.829 C -4.605 15.829 -2.582 15.244 -0.76 14.425 C 1.617 13.334 4.45 11.423 4.45 8.615 C 4.45 8.607 4.45 8.598 4.45 8.59 C 4.451 8.586 4.452 8.581 4.452 8.577 L 4.452 -13.533 C 8.095 -10.609 12.901 -6.553 12.901 -2.497 C 12.901 0.076 12.091 2.611 10.776 4.99 C 10.624 5.613 11.282 6.043 11.94 6.043 C 12.294 6.043 12.648 5.886 12.901 5.575 C 14.216 3.001 15.026 0.271 15.026 -2.497 C 15.026 -10.218 4.452 -15.561 4.452 -23.281 L 4.452 -23.633 C 4.452 -23.655 4.434 -23.673 4.412 -23.673 L 2.848 -23.673 C 2.826 -23.673 2.808 -23.655 2.808 -23.633 L 2.808 5.965 C 1.778 5.36 0.377 5.067 -1.064 5.067 C -3.138 5.067 -5.162 5.652 -6.983 6.471 Z" style="fill:#000099;strokeWidth:0"/>
</svg>