<?xml version="1.0" encoding="utf-8"?>
<svg width="30%" viewBox="-31 -31 62 68" xmlns="http://www.w3.org/2000/svg">
  <path d="M 19.688 -7.822 C 19.434 -6.015 18.304 -1.143 21.273 -1.967 C 19.442 -1.075 18.537 -2.744 18.501 -4.191 C 17.529 -2.288 16.443 0.548 17.839 2.453 C 16.595 1.426 16.376 0.53 16.207 -0.933 C 15.769 -0.062 15.585 0.751 16.116 1.644 C 14.545 0.334 15.588 -1.526 15.906 -3.321 C 16.012 -3.915 16.241 -4.814 15.88 -5.378 C 15.064 -6.646 13.98 -6.346 13.492 -5.489 C 13.27 -5.098 11.948 -5.133 11.581 -5.239 C 12.976 -3.34 13.538 -0.837 13.666 1.339 C 13.768 3.091 13.631 3.978 13.865 5.281 C 14.075 6.44 15.148 7.201 15.186 7.891 C 15.255 9.137 15.36 12.864 15.799 13.763 C 16.22 14.626 17.122 15.312 16.73 16.22 C 16.37 17.051 15.569 17.492 14.891 16.31 C 14.461 15.561 14.516 14.764 14.496 13.935 C 14.478 13.169 14.273 11.702 13.998 10.793 C 13.768 10.032 12.887 9.445 12.849 8.72 C 12.803 7.852 11.734 6.878 11.421 6.108 C 10.465 3.752 8.398 2.719 7.854 0.96 C 6.877 2.089 5.52 3.027 3.997 3.679 C 3.161 4.943 1.465 7.255 1.341 8.67 C 1.279 9.371 1.338 10.093 0.919 10.714 C 0.442 11.425 -0.287 12.14 -0.854 12.784 C -1.41 13.416 -1.763 14.061 -1.883 14.859 C -1.988 15.562 -2.353 15.841 -2.999 16.215 C -3.649 16.59 -3.557 17.053 -3.536 17.711 C -3.521 18.174 -4.469 18.252 -5.026 18.263 C -5.049 18.532 -5.143 18.758 -5.518 18.841 C -6.18 18.989 -6.94 18.965 -7.61 18.874 C -8.277 18.784 -6.984 17.458 -6.443 16.379 C -5.554 14.6 -5.145 13.452 -5.579 12.001 C -5.747 11.44 -5.382 10.562 -5.196 9.999 C -4.94 9.224 -4.858 8.523 -4.583 7.754 C -4.255 6.835 -4.542 5.613 -4.622 4.416 C -5.313 4.242 -5.924 4.042 -6.464 3.82 C -6.722 4.331 -7.258 5.058 -8.212 4.999 C -9.507 4.919 -10.377 5.318 -11.165 5.136 C -12.025 4.937 -14.805 4.675 -15.091 5.791 C -15.237 6.36 -15.094 6.938 -14.845 7.444 C -14.543 8.059 -14.544 8.694 -14.343 9.329 C -14.253 9.616 -14.06 9.825 -13.773 9.847 C -13.508 9.866 -12.984 9.947 -12.79 10.088 C -12.187 10.529 -12.293 11.002 -12.27 11.704 C -12.255 12.159 -12.335 12.781 -12.978 12.496 C -13.652 12.195 -14.234 11.675 -14.765 11.205 C -16.092 10.033 -16.105 8.835 -16.743 7.021 C -17.267 5.531 -17.427 3.992 -14.971 3.377 C -14.041 3.144 -13.103 2.98 -12.253 2.554 C -11.771 2.313 -11.347 1.98 -10.909 1.681 C -10.613 1.478 -10.094 1.271 -9.661 1.3 C -10.548 -0.167 -10.565 -1.883 -10.539 -3.542 C -10.487 -6.725 -6.396 -11.027 -6.566 -14.148 C -6.996 -13.664 -8.668 -13.326 -9.189 -13.321 C -9.68 -13.316 -10.192 -13.312 -10.562 -12.962 C -10.855 -12.684 -11.019 -12.314 -11.504 -12.357 C -11.906 -12.393 -12.253 -12.164 -12.645 -12.342 C -13.126 -12.561 -13.197 -12.702 -13.24 -13.152 C -13.274 -13.518 -13.833 -13.825 -13.712 -14.193 C -13.615 -14.487 -13.247 -14.689 -13.042 -14.908 C -12.398 -15.596 -10.567 -17.868 -9.372 -19.43 C -9.326 -19.49 -9.279 -19.546 -9.231 -19.598 C -10.495 -21.219 -14.708 -26.637 -14.035 -25.99 C -13.458 -25.436 -10.4 -22.144 -8.971 -20.601 C -8.967 -21.299 -8.553 -22.338 -7.041 -22.336 C -8.831 -22.078 -8.583 -20.517 -7.416 -20.527 C -7.942 -20.914 -8.056 -21.506 -7.079 -22.031 C -7.655 -21.146 -7.098 -20.918 -6.03 -20.675 C -5.739 -21.012 -3.218 -21.74 -3.51 -21.448 C -3.782 -21.176 -4.047 -20.818 -4.23 -20.554 C -3.164 -20.926 -1.576 -20.839 -0.897 -21.267 C -1.378 -20.818 -1.82 -20.634 -2.445 -20.371 C -1.095 -20.722 0.964 -20.978 2.157 -20.03 C 0.944 -20.838 -1.091 -20.445 -2.769 -20.112 C -2.74 -20.108 -2.712 -20.104 -2.683 -20.099 C 3.937 -20.838 6.003 -17.537 4.989 -16.58 C 5.071 -16.251 5.702 -15.658 6.306 -16.298 C 5.984 -14.607 2.934 -14.806 2.133 -15.39 C 2.737 -14.595 3.99 -14.559 4.84 -14.809 C 5.69 -15.059 6.975 -15.498 7.954 -14.488 C 5.92 -15.647 6.404 -13.061 4.428 -12.329 C 5.561 -12.475 6.796 -12.824 7.33 -13.937 C 7.211 -13.169 6.759 -12.636 6.083 -12.282 C 6.251 -11.564 5.125 -10.329 3.49 -10.739 C 3.161 -9.697 1.469 -9.618 2.05 -8.813 C 2.518 -8.166 4.303 -8.588 4.839 -9.555 C 4.911 -8.555 3.175 -7.951 2.624 -7.741 C 8.328 -9.151 9.483 -7.176 10.312 -6.583 C 10.821 -6.219 12.055 -7.421 13.322 -8.61 C 15.504 -10.659 20.105 -10.796 19.688 -7.822 Z M 6.066 -12.273 C 5.345 -11.715 4.603 -11.54 3.753 -11.505 C 3.758 -11.485 3.761 -11.466 3.764 -11.447 C 4.411 -11.263 5.914 -11.176 6.066 -12.273 Z M 4.943 -16.641 C 5.411 -17.655 3.405 -19.057 2.39 -18.56 C 3.49 -18.765 4.589 -17.871 4.943 -16.641 Z M -0.984 8.66 C -0.679 7.807 -1.442 5.618 -0.678 4.676 C -0.863 4.676 -1.047 4.673 -1.23 4.664 C -1.979 6.572 -2.413 8.758 -2.973 9.584 C -3.382 10.185 -3.31 11.012 -3.406 11.686 C -3.503 12.36 -3.892 12.684 -4.123 13.314 C -4.323 13.858 -4.28 14.555 -4.282 15.189 C -3.591 14.346 -2.829 13.444 -2.284 12.67 C -1.394 11.404 -1.595 10.367 -0.984 8.66 Z" style="fill:#000099;strokeWidth:0"/>
</svg>