<svg width="30%" viewBox="-31 -31 62 68" xmlns="http://www.w3.org/2000/svg"><path d="M-6.799 13.636s.355.902 1.441 1.514c-1.945-.219-1.945-.219-5.844-3.362 0 0-.213 2.553-3.541 6.671 1.747-6.207 1.555-7.076.227-10.095-.471-1.011-1.083 1.161-.995 2.152-3.321-11.881 8.266-16.35 8.266-16.35L-9.623-7.67c2.83 1.004 23.641-1.734 9.804-6.784 0 0 1.136 1.254.991 2.054-.249-.674-1.051-.907-1.051-.907s.56 2.03.154 3.017c-.14-1.172-1.892-3.025-1.892-3.025s.58 3.135-4.555 2.968c-2.67-.125-3.861.388-4.77 1.365-.717.771-.891.9-1.216.9-.376 0-.784-.257-1.28-.806-.194-.215-.242-.404-.239-.954.003-.592.059-.776.412-1.341.384-.614.468-.678 1.345-1.025a26.452 26.452 0 0 0 1.544-.67c.539-.265.621-.354.715-.765.113-.496.181-.549 1.517-1.174.485-.228.882-.567 1.637-1.398.902-.993.876-1.268.899-1.398.114-1.664-3.012-.005-3.012-.005s.664-1.046 1.258-1.498c1.617-1.229 3.748-.089 3.748-.089s3.669-4.519 8.903-6.417c-.253.184-3.737 3.961-3.68 4.386.719.017 1.103.44 1.103.44-1.506-.062-2.405 1.491-2.405 1.491.698-.435 4.711-1.106 4.711-1.106s-.552.39-.533.569c4.037-1.261 12.474-1.009 12.474-1.009-2.995.447-8.795 2.805-8.795 2.805s4.279-.338 6.742.597c-2.41-.139-4.046.441-4.868.925 3.139 1.81 5.307 7.547 5.307 7.547s-4.755-5.604-6.555-5.022c0 0 6.589 10.741.784 15.027.273-1.432.95-6.752-1.027-7.917 0 0-7.526 7.048-12.161 6.93 1.18-.445 1.588-1.249 1.588-1.249-4.668-1.06-6.118 4.824-5.186 7.097-1.344-.526-3.283-3.112-3.283-3.112s.307 5.768 6.771 4.954c-.979.635-2.397 1.283-3.964 1.179.345 1.099 7.073-.14 7.49-1.014C.003 7.474.963 5.391-1.423 4.55c1.431-.825 3.682 2.287 3.682 2.287s.419-.309 2.417-.687c1.998-.379-1.414-1.104-1.414-1.104 2.975-.034 4.378.539 4.378.539C8.13 4.213 2.09.786 2.09.786s26.674 8.802 11.926 20.427c1.434-3.947 1.44-4.912.802-6.964-.23-.741-.504-1.312-.705-1.465-.054-.043.2.511-.79 1.304-1.301-4.822-6.865-4.782-7.426-4.483-3.068 1.307.038 3.412 1.43 2.564-.806 1.241-3.12 1.225-3.12 1.225s2.937 2.688 5.517 1.479C8.03 19.373.556 12.005.544 11.98c-.013-.024-2.589.932-2.589.932s3.352 3.026 4.955 9.076c-3.661-5.848-9.709-8.352-9.709-8.352zm1.966-28.36c1.086-1.246 1-1.407-.346-.647-.779.44-2.142 1.249-2.011 1.664.899.038 1.438.038 1.438.038z" style="strokeWidth:0" fill="#009"/></svg>