<?xml version="1.0" encoding="utf-8"?>
<svg width="30%" viewBox="-31 -31 62 68" xmlns="http://www.w3.org/2000/svg">
  <path d="M -23.76 -6.525 C -23.377 -6.515 -23.013 -6.363 -22.631 -6.424 C -22.624 -6.45 -22.616 -6.5 -22.612 -6.525 C -22.942 -6.677 -23.307 -6.773 -23.607 -6.993 C -23.768 -7.152 -23.999 -7.342 -23.891 -7.604 C -23.771 -8.143 -23.288 -8.477 -22.871 -8.768 C -22.374 -9.126 -21.814 -9.362 -21.282 -9.645 C -20.698 -9.9 -19.912 -10.835 -11.98 -12.366 C -9.055 -12.939 -6.092 -13.199 -5.969 -13.294 C -3.236 -13.243 -0.479 -16.42 0.362 -16.675 C 0.491 -16.762 0.588 -16.417 0.652 -16.417 L 0.651 -16.417 C 0.73 -15.912 0.954 -12.143 0.501 -12.003 C 1.011 -11.847 1.544 -11.866 2.062 -11.751 C 2.913 -11.585 7.231 -10.254 9.444 -9.735 C 10.228 -9.586 11.031 -9.616 11.824 -9.613 C 12.591 -9.627 13.345 -9.801 14.081 -9.998 C 14.979 -10.259 22.212 -13.349 22.261 -13.095 C 22.242 -11.042 21.171 -9.651 20.406 -7.825 C 20.38 -7.56 20.273 -7.303 20.309 -7.03 C 20.734 -5.618 22.343 -4.399 22.74 -2.938 C 22.737 -2.658 22.855 -2.407 22.956 -2.154 C 22.625 -2.131 22.294 -2.112 21.96 -2.119 C 21.235 -2.206 16.986 -3.299 16.333 -3.456 C 15.694 -3.607 15.097 -3.885 14.465 -4.043 C 14.107 -4.131 13.784 -4.321 13.425 -4.382 C 12.711 -4.477 11.989 -4.567 11.269 -4.495 C 10.766 -4.443 10.266 -4.392 9.77 -4.283 C 9.396 -4.2 6.624 -3.664 4.964 -3.084 C 3.873 -2.997 -0.268 -1.274 -0.659 -1.19 C -0.021 -0.129 -0.091 0.452 0.073 1.713 C 0.18 2.157 0.199 2.667 -0.104 3.034 C -0.242 3.167 -0.466 3.173 -0.621 3.068 C -2.859 0.638 -5.37 -0.298 -5.478 -0.644 C -6.841 -0.477 -8.214 -0.621 -9.58 -0.614 C -17.101 -0.694 -22.321 -4.773 -22.8 -5.042 C -23.203 -5.251 -23.632 -5.484 -23.872 -5.888 C -24.065 -6.067 -23.999 -6.43 -23.76 -6.525 Z M 0.652 -16.417 C 0.652 -16.417 0.652 -16.417 0.652 -16.417 Z M -19.209 -6.767 C -18.766 -6.767 -18.407 -7.135 -18.407 -7.587 C -18.407 -8.04 -18.766 -8.407 -19.209 -8.407 C -19.653 -8.407 -20.013 -8.04 -20.013 -7.587 C -20.013 -7.135 -19.654 -6.767 -19.209 -6.767 Z" style="fill:#000099;strokeWidth:0"/>
</svg>