<?xml version="1.0" encoding="utf-8"?>
<svg width="30%" viewBox="-31 -31 62 68" xmlns="http://www.w3.org/2000/svg">
  <path d="M -6.885 13.807 C -6.464 13.82 -5.016 13.836 -3.203 13.849 C -3.249 4.473 -3.431 -8.834 -3.112 -18.182 C -2.89 -20.8 -1.459 -23.248 -0.634 -25.778 C 0.497 -23.28 2.48 -20.953 2.762 -18.28 C 2.978 -9.124 2.997 4.695 2.93 13.884 C 4.888 13.89 6.475 13.892 6.898 13.884 C 6.999 14.096 7.046 14.421 6.939 14.583 C 6.059 14.555 3.472 14.492 3.108 14.607 C 2.902 14.67 2.928 14.801 2.989 14.902 L 3.167 14.905 C 3.123 14.934 3.088 14.964 3.057 14.994 C 3.084 15.023 3.103 15.041 3.103 15.041 L 3.018 15.041 C 2.925 15.16 2.897 15.291 2.866 15.397 C 2.717 17.721 2.802 19.83 3.127 22.292 C 3.109 22.476 3.25 22.52 3.322 22.596 L -0.028 22.598 L -3.323 22.552 C -3.246 22.479 -3.099 22.436 -3.114 22.251 C -2.725 19.796 -2.58 17.687 -2.669 15.362 C -2.698 15.247 -2.726 15.102 -2.837 14.974 L -3.09 14.968 C -3.09 14.968 -2.757 14.698 -3.118 14.58 C -3.478 14.46 -6.066 14.488 -6.947 14.505 C -7.049 14.342 -6.991 14.017 -6.885 13.807 Z M 3.294 22.651 C 3.309 22.635 3.322 22.621 3.329 22.603 C 3.342 22.617 3.353 22.632 3.359 22.652 Z M -3.358 22.603 C -3.357 22.603 -3.353 22.606 -3.352 22.607 L -3.361 22.607 C -3.36 22.605 -3.358 22.604 -3.358 22.603 Z M -0.001 22.606 L 3.294 22.651 C 3.219 22.725 3.076 22.766 3.092 22.952 C 3.131 23.872 4.348 24.131 4.39 25.593 C 4.366 27.732 -4.37 27.811 -4.563 25.673 C -4.647 24.098 -3.154 23.775 -3.152 22.912 C -3.132 22.727 -3.277 22.683 -3.352 22.607 Z M 3.333 22.596 C 3.331 22.598 3.329 22.601 3.329 22.603 C 3.328 22.601 3.326 22.598 3.322 22.596 Z M -3.389 22.551 L -3.323 22.552 C -3.336 22.568 -3.35 22.583 -3.358 22.603 C -3.372 22.587 -3.383 22.571 -3.389 22.551 Z M -0.784 13.865 C -0.41 13.868 -0.032 13.87 0.343 13.872 C -0.03 13.863 -0.413 13.861 -0.784 13.865 Z" style="fill: rgb(0, 0, 153);"/>
</svg>