<?xml version="1.0" encoding="utf-8"?>
<svg width="30%" viewBox="-31 -31 62 68" xmlns="http://www.w3.org/2000/svg">
  <path d="M 19.963 -3.986 C 19.964 -3.942 19.95 -3.862 19.829 -3.817 C 19.747 -3.786 19.451 -3.658 19.109 -3.509 C 18.621 -3.296 18.069 -3.056 17.846 -2.973 C 17.509 -2.848 17.24 -2.489 16.781 -0.953 C 16.735 -0.8 16.69 -0.636 16.641 -0.461 C 16.183 1.193 15.49 3.694 11.98 6.606 C 7.856 10.028 4.021 10.572 0.312 11.098 C -2.832 11.545 -5.802 11.967 -8.525 14.218 C -8.894 14.523 -9.232 14.666 -9.585 14.666 C -9.741 14.666 -9.882 14.64 -10.018 14.615 C -10.143 14.592 -10.261 14.57 -10.381 14.57 C -10.594 14.57 -10.781 14.64 -10.988 14.798 C -12.088 15.639 -13.043 16.048 -13.91 16.048 C -14.741 16.048 -15.364 15.67 -15.883 15.315 C -16.091 15.174 -16.281 15.104 -16.464 15.104 C -16.627 15.104 -16.773 15.159 -16.912 15.211 C -17.049 15.263 -17.19 15.316 -17.345 15.316 C -17.563 15.316 -17.766 15.211 -17.984 14.984 C -18.147 14.814 -18.212 14.624 -18.177 14.422 C -18.021 13.533 -15.787 12.395 -10.839 10.18 C -6.745 8.346 -2.127 4.61 -0.857 3.192 C -1.039 3.222 -1.227 3.237 -1.418 3.237 C -4.612 3.237 -8.374 -0.988 -10.332 -3.507 C -13.045 -6.998 -15.008 -10.615 -15.008 -11.351 C -15.008 -11.417 -14.996 -11.469 -14.969 -11.511 C -14.914 -11.597 -14.815 -11.62 -14.692 -11.562 C -14.458 -11.453 -14.278 -11.373 -14.152 -11.325 C -14.41 -11.598 -15.016 -12.141 -15.789 -12.831 L -16.365 -13.347 C -16.579 -13.539 -16.668 -13.643 -16.631 -13.754 C -16.621 -13.783 -16.588 -13.85 -16.487 -13.85 C -16.331 -13.85 -15.935 -13.682 -15.055 -13.302 C -13.185 -12.496 -9.707 -10.995 -6.119 -10.387 C -3.931 -10.017 -1.84 -9.139 -0.432 -8.443 C -0.945 -8.894 -1.406 -9.335 -1.545 -9.554 C -1.93 -10.165 -1.781 -10.721 -1.65 -11.212 C -1.595 -11.418 -1.543 -11.612 -1.535 -11.794 C -1.524 -12.033 -1.674 -12.174 -1.92 -12.384 C -2.176 -12.602 -2.466 -12.849 -2.536 -13.322 C -2.645 -14.039 -2.316 -14.337 -2.052 -14.576 C -1.85 -14.759 -1.692 -14.903 -1.687 -15.193 C -1.683 -15.535 -1.863 -15.775 -2.054 -16.029 C -2.272 -16.32 -2.498 -16.62 -2.463 -17.083 C -2.428 -17.532 -2.225 -17.776 -2.029 -18.013 C -1.845 -18.235 -1.672 -18.446 -1.616 -18.834 C -1.562 -19.204 -1.661 -19.426 -1.765 -19.661 C -1.888 -19.94 -2.015 -20.229 -1.888 -20.731 C -1.761 -21.233 -1.489 -21.5 -1.226 -21.757 C -1.004 -21.974 -0.794 -22.18 -0.659 -22.528 C -0.554 -22.798 -0.5 -23.346 -0.443 -23.926 C -0.332 -25.057 -0.206 -26.338 0.367 -26.571 C 0.419 -26.593 0.473 -26.604 0.525 -26.604 C 0.858 -26.604 1.074 -26.169 1.257 -25.696 C 1.32 -25.595 1.376 -25.459 1.425 -25.28 C 1.457 -25.168 1.489 -25.057 1.521 -24.948 C 1.857 -23.947 2.246 -22.887 2.801 -21.953 C 2.931 -21.735 3.108 -21.528 3.296 -21.31 C 3.425 -21.158 3.559 -21.002 3.688 -20.831 C 4.023 -20.457 4.413 -20.05 4.827 -19.62 C 6.483 -17.896 8.543 -15.751 9.465 -13.088 C 10.031 -11.456 9.982 -9.374 9.938 -7.537 C 9.912 -6.427 9.887 -5.379 9.996 -4.538 C 10.025 -4.314 10.18 -4.2 10.457 -4.2 C 10.534 -4.2 10.62 -4.21 10.711 -4.229 C 11.001 -4.289 11.259 -4.673 11.585 -5.159 C 12.151 -6.004 12.927 -7.16 14.542 -7.669 C 14.831 -7.759 15.115 -7.806 15.385 -7.806 C 17.104 -7.806 17.955 -5.989 18.319 -5.212 C 18.38 -5.08 18.429 -4.976 18.461 -4.927 C 18.658 -4.623 19.377 -4.31 19.645 -4.212 C 19.955 -4.135 19.96 -4.03 19.963 -3.986 Z" style="fill:#000099;strokeWidth:0"/>
</svg>