<?xml version="1.0" encoding="utf-8"?>
<svg width="30%" viewBox="-31 -31 62 68" xmlns="http://www.w3.org/2000/svg">
  <path d="M 21.106 6.304 C 20.401 7.829 17.538 7.974 15.898 9.421 C 14.26 10.866 14.097 13.391 12.37 14.016 C 9.856 14.924 8.196 13.874 5.682 11.655 C 3.743 9.944 2.145 6.72 1.111 3.598 C 1.563 7.625 3.257 12.669 8.145 17.521 C 9.918 19.283 8.433 20.593 7.913 21.05 C 7.395 21.505 6.065 22.671 4.386 20.816 C 0.23 16.228 -0.758 8.659 -0.43 2.989 C -1.452 6.295 -3.133 9.834 -5.198 11.655 C -7.712 13.871 -9.37 14.924 -11.883 14.016 C -13.61 13.394 -13.777 10.869 -15.415 9.421 C -17.055 7.976 -19.915 7.831 -20.623 6.309 C -21.653 4.089 -20.465 2.626 -17.949 0.408 C -15.332 -1.901 -9.589 -3.672 -5.223 -4.392 C -9.589 -5.114 -15.332 -6.884 -17.949 -9.192 C -20.463 -11.411 -21.653 -12.874 -20.624 -15.09 C -19.919 -16.615 -17.055 -16.76 -15.415 -18.207 C -13.777 -19.654 -13.615 -22.176 -11.887 -22.801 C -9.374 -23.709 -7.717 -22.661 -5.198 -20.441 C -2.582 -18.134 -0.575 -13.067 0.241 -9.215 C 1.06 -13.067 3.065 -18.132 5.682 -20.441 C 8.195 -22.66 9.853 -23.709 12.365 -22.801 C 14.093 -22.179 14.258 -19.655 15.898 -18.207 C 17.537 -16.761 20.397 -16.619 21.106 -15.094 C 22.133 -12.876 20.947 -11.412 18.43 -9.192 C 15.813 -6.884 10.072 -5.114 5.707 -4.392 C 10.072 -3.672 15.813 -1.902 18.43 0.408 C 20.945 2.624 22.133 4.086 21.106 6.304 Z" style="fill:#000099;strokeWidth:0"/>
</svg>