<?xml version="1.0" encoding="utf-8"?>
<svg width="30%" viewBox="-31 -31 62 68" xmlns="http://www.w3.org/2000/svg">
  <path d="M -6.799 13.636 C -6.799 13.636 -6.444 14.538 -5.358 15.15 C -7.303 14.931 -7.303 14.931 -11.202 11.788 C -11.202 11.788 -11.415 14.341 -14.743 18.459 C -12.996 12.252 -13.188 11.383 -14.516 8.364 C -14.987 7.353 -15.599 9.525 -15.511 10.516 C -18.832 -1.365 -7.245 -5.834 -7.245 -5.834 L -9.623 -7.67 C -6.793 -6.666 14.018 -9.404 0.181 -14.454 C 0.181 -14.454 1.317 -13.2 1.172 -12.4 C 0.923 -13.074 0.121 -13.307 0.121 -13.307 C 0.121 -13.307 0.681 -11.277 0.275 -10.29 C 0.135 -11.462 -1.617 -13.315 -1.617 -13.315 C -1.617 -13.315 -1.037 -10.18 -6.172 -10.347 C -8.842 -10.472 -10.033 -9.959 -10.942 -8.982 C -11.659 -8.211 -11.833 -8.082 -12.158 -8.082 C -12.534 -8.082 -12.942 -8.339 -13.438 -8.888 C -13.632 -9.103 -13.68 -9.292 -13.677 -9.842 C -13.674 -10.434 -13.618 -10.618 -13.265 -11.183 C -12.881 -11.797 -12.797 -11.861 -11.92 -12.208 C -11.406 -12.412 -10.711 -12.713 -10.376 -12.878 C -9.837 -13.143 -9.755 -13.232 -9.661 -13.643 C -9.548 -14.139 -9.48 -14.192 -8.144 -14.817 C -7.659 -15.045 -7.262 -15.384 -6.507 -16.215 C -5.605 -17.208 -5.631 -17.483 -5.608 -17.613 C -5.494 -19.277 -8.62 -17.618 -8.62 -17.618 C -8.62 -17.618 -7.956 -18.664 -7.362 -19.116 C -5.745 -20.345 -3.614 -19.205 -3.614 -19.205 C -3.614 -19.205 0.055 -23.724 5.289 -25.622 C 5.036 -25.438 1.552 -21.661 1.609 -21.236 C 2.328 -21.219 2.712 -20.796 2.712 -20.796 C 1.206 -20.858 0.307 -19.305 0.307 -19.305 C 1.005 -19.74 5.018 -20.411 5.018 -20.411 C 5.018 -20.411 4.466 -20.021 4.485 -19.842 C 8.522 -21.103 16.959 -20.851 16.959 -20.851 C 13.964 -20.404 8.164 -18.046 8.164 -18.046 C 8.164 -18.046 12.443 -18.384 14.906 -17.449 C 12.496 -17.588 10.86 -17.008 10.038 -16.524 C 13.177 -14.714 15.345 -8.977 15.345 -8.977 C 15.345 -8.977 10.59 -14.581 8.79 -13.999 C 8.79 -13.999 15.379 -3.258 9.574 1.028 C 9.847 -0.404 10.524 -5.724 8.547 -6.889 C 8.547 -6.889 1.021 0.159 -3.614 0.041 C -2.434 -0.404 -2.026 -1.208 -2.026 -1.208 C -6.694 -2.268 -8.144 3.616 -7.212 5.889 C -8.556 5.363 -10.495 2.777 -10.495 2.777 C -10.495 2.777 -10.188 8.545 -3.724 7.731 C -4.703 8.366 -6.121 9.014 -7.688 8.91 C -7.343 10.009 -0.615 8.77 -0.198 7.896 C 0.003 7.474 0.963 5.391 -1.423 4.55 C 0.008 3.725 2.259 6.837 2.259 6.837 C 2.259 6.837 2.678 6.528 4.676 6.15 C 6.674 5.771 3.262 5.046 3.262 5.046 C 6.237 5.012 7.64 5.585 7.64 5.585 C 8.13 4.213 2.09 0.786 2.09 0.786 C 2.09 0.786 28.764 9.588 14.016 21.213 C 15.45 17.266 15.456 16.301 14.818 14.249 C 14.588 13.508 14.314 12.937 14.113 12.784 C 14.059 12.741 14.313 13.295 13.323 14.088 C 12.022 9.266 6.458 9.306 5.897 9.605 C 2.829 10.912 5.935 13.017 7.327 12.169 C 6.521 13.41 4.207 13.394 4.207 13.394 C 4.207 13.394 7.144 16.082 9.724 14.873 C 8.03 19.373 0.556 12.005 0.544 11.98 C 0.531 11.956 -2.045 12.912 -2.045 12.912 C -2.045 12.912 1.307 15.938 2.91 21.988 C -0.751 16.14 -6.799 13.636 -6.799 13.636 Z M -4.833 -14.724 C -3.747 -15.97 -3.833 -16.131 -5.179 -15.371 C -5.958 -14.931 -7.321 -14.122 -7.19 -13.707 C -6.291 -13.669 -5.752 -13.669 -5.752 -13.669 Z" style="fill:#000099;strokeWidth:0"/>
</svg>