<?xml version="1.0" encoding="utf-8"?>
<svg width="30%" viewBox="-31 -31 62 68" xmlns="http://www.w3.org/2000/svg">
  <path d="M 0.104 -22.103 C 0.146 -22.115 0.151 -22.078 0.154 -22.038 C 1.266 -20.28 2.339 -18.211 3.283 -15.786 C 4.18 -13.481 5.025 -10.825 5.319 -8.361 C 5.615 -5.884 5.394 -3.896 4.773 -1.914 C 4.454 -0.895 3.841 0.436 3.084 1.082 C 1.237 2.659 -2.123 2.226 -3.522 0.236 C -4.753 -1.515 -5.288 -4.684 -5.062 -7.71 C -4.778 -11.502 -3.473 -14.834 -2.181 -17.739 C -1.49 -19.292 -0.71 -20.926 0.104 -22.103 Z M -8.39 -21.712 C -6.096 -20.986 -4.135 -19.258 -2.926 -16.893 C -4.026 -13.878 -5.708 -9.85 -5.459 -5.561 C -5.32 -3.166 -4.561 -0.524 -3.274 1.017 C -3.027 1.312 -2.65 1.366 -2.529 1.799 C -6.306 1.867 -9.182 0.097 -9.88 -3.998 C -10.077 -5.468 -10.095 -7.465 -9.781 -9.143 C -9.056 -13.013 -7.207 -16.657 -8.141 -21.321 C -8.226 -21.449 -8.258 -21.647 -8.39 -21.712 Z M 8.548 -21.712 C 8.763 -21.683 8.404 -21.416 8.399 -21.256 C 7.326 -16.172 9.957 -11.693 10.237 -7.319 C 10.273 -6.751 10.297 -6.138 10.286 -5.56 C 10.194 -0.534 7.204 1.955 2.786 1.864 C 2.894 1.462 3.238 1.371 3.481 1.148 C 5.125 -1.166 6.191 -4.407 5.617 -8.621 C 5.236 -11.421 4.095 -14.421 3.183 -16.827 C 4.378 -19.234 6.274 -20.721 8.548 -21.712 Z M -13.705 -21.451 C -11.348 -20.547 -9.309 -19.226 -8.39 -16.437 C -8.711 -15.353 -8.911 -14.204 -9.135 -13.246 C -9.484 -11.749 -9.883 -10.512 -10.128 -8.947 C -10.522 -6.441 -10.381 -3.107 -9.433 -1.262 C -8.912 -0.247 -8.015 0.577 -7.098 1.082 C -6.69 1.307 -6.153 1.567 -5.559 1.799 C -7.37 2.063 -9.057 1.496 -10.128 0.626 C -12.036 -0.922 -13.273 -3.491 -13.456 -6.668 C -13.648 -9.994 -12.931 -12.673 -12.711 -16.046 C -12.576 -18.122 -12.877 -19.857 -13.655 -21.256 C -13.713 -21.267 -13.697 -21.375 -13.705 -21.451 Z M -19.119 -21.386 C -16.062 -21.03 -14.091 -19.251 -12.96 -16.372 C -13.178 -15.407 -13.296 -14.153 -13.456 -12.855 C -13.611 -11.604 -13.829 -10.243 -13.854 -9.143 C -13.938 -5.353 -13.239 -2.301 -11.569 -0.285 C -10.852 0.579 -9.943 1.083 -9.085 1.929 C -12.144 1.573 -15.136 0.196 -16.288 -2.825 C -17.769 -6.712 -16.889 -12.412 -17.778 -16.958 C -18.079 -18.498 -18.592 -19.81 -19.069 -21.191 C -19.095 -21.243 -19.121 -21.297 -19.119 -21.386 Z M 13.863 -21.386 C 13.896 -21.386 13.929 -21.386 13.962 -21.386 C 11.966 -17.852 13.696 -12.264 13.763 -8.361 C 13.839 -4.005 12.414 -0.364 9.442 1.408 C 8.441 1.681 7.307 2.124 6.064 1.864 C 6.617 1.26 7.305 1.198 7.853 0.822 C 8.995 0.038 9.734 -1.046 10.187 -2.825 C 10.376 -3.566 10.601 -4.382 10.634 -5.17 C 10.763 -8.265 9.943 -10.704 9.392 -13.311 C 9.162 -14.399 8.922 -15.35 8.647 -16.372 C 9.545 -19.145 11.582 -20.426 13.863 -21.386 Z M 19.495 -21.321 C 19.202 -21.079 19.183 -20.644 19.029 -20.279 C 18.596 -19.253 18.239 -18.256 18.035 -17.023 C 17.755 -14.843 17.563 -12.713 17.489 -9.859 C 17.404 -6.627 17.196 -3.658 15.949 -1.653 C 15.344 -0.681 14.561 -0.055 13.614 0.561 C 12.441 1.324 10.955 1.949 9.293 1.929 C 12.514 0.04 14.294 -3.544 14.111 -8.947 C 14.066 -10.261 13.874 -11.659 13.714 -12.855 C 13.543 -14.13 13.503 -15.238 13.366 -16.241 C 13.983 -18.625 16.494 -20.915 19.495 -21.321 Z M 16.247 5.109 C 15.249 4.21 13.824 4.662 12.802 4.014 C 12.232 3.652 11.823 2.936 11.198 2.605 C 10.943 2.47 10.695 2.543 10.49 2.24 C 11.299 2.091 12.094 1.927 12.661 1.51 C 14.429 2.076 15.448 3.471 16.247 5.109 Z M -10.079 2.2 C -10.79 2.578 -11.422 3.044 -11.919 3.66 C -12.991 4.25 -14.657 3.941 -15.458 4.756 C -14.796 3.354 -13.838 2.069 -12.532 1.522 C -12.24 1.399 -11.455 1.997 -11.022 2.096 C -10.71 2.166 -10.447 2.082 -10.079 2.2 Z M -6.304 2.252 C -7.98 3.06 -8.778 4.838 -9.182 7.051 C -10.532 8.457 -13.06 8.244 -14.608 9.399 C -14.635 9.181 -14.337 8.977 -14.136 8.721 C -12.437 6.555 -12.243 2.838 -9.041 2.2 C -8.039 2 -7.431 2.369 -6.304 2.252 Z M -2.788 2.277 C -2.705 2.248 -2.619 2.222 -2.53 2.2 C -2.614 2.231 -2.7 2.257 -2.788 2.277 Z M -4.087 8.408 C -3.855 8.865 -3.255 9.471 -3.284 9.921 C -3.331 10.636 -4.808 11.114 -5.502 11.277 C -7.272 11.693 -9.335 11.62 -10.928 12.372 C -10.986 12.165 -10.679 11.99 -10.503 11.746 C -10.003 11.051 -9.668 10.209 -9.324 9.242 C -8.854 7.924 -8.904 6.384 -8.427 5.121 C -7.967 3.901 -6.928 2.725 -5.785 2.356 C -4.998 2.103 -3.773 2.506 -2.788 2.277 C -4.923 3.035 -5.197 6.215 -4.087 8.408 Z M 3.18 2.304 C 3.525 2.159 3.873 2.371 4.265 2.409 C 5.089 2.488 6.01 2.296 6.624 2.513 C 7.066 2.669 7.597 3.115 7.898 3.4 C 9.373 4.793 9.16 7.271 9.88 9.503 C 10.223 10.568 10.65 11.477 11.201 12.216 C 11.275 12.315 11.315 12.362 11.437 12.581 C 9.758 11.752 7.178 11.773 5.303 11.12 C 4.681 10.904 3.875 10.573 3.84 9.973 C 3.809 9.434 4.539 8.863 4.784 8.356 C 5.798 6.25 5.557 2.759 3.18 2.304 Z M 15.211 9.66 C 14.204 9.011 12.845 8.68 11.578 8.303 C 10.862 8.09 10.209 7.771 9.785 7.26 C 9.412 5.012 8.642 3.203 7.001 2.356 C 8.81 2.297 10.394 2.289 11.484 3.191 C 12.404 3.953 12.947 5.245 13.371 6.477 C 13.811 7.758 14.539 8.755 15.211 9.66 Z M 0.301 13.99 C -0.223 12.682 -1.028 11.477 -1.916 10.442 C -2.205 10.106 -2.562 9.85 -2.86 9.503 C -3.834 8.369 -4.55 6.704 -4.322 4.86 C -4.087 2.954 -1.756 1.763 0.349 2.669 C 1.479 2.22 3.042 2.438 3.84 2.93 C 5.823 4.438 4.817 8.006 3.415 9.555 C 3.101 9.902 2.771 10.158 2.472 10.494 C 1.635 11.437 0.687 12.513 0.301 13.99 Z" style="fill:#000099;strokeWidth:0"/>
</svg>