<?xml version="1.0" encoding="utf-8"?>
<svg width="30%" viewBox="-31 -31 62 68" xmlns="http://www.w3.org/2000/svg">
  <path d="M 0.021 12.949 C 1.057 11.952 2.172 11.056 3.34 10.216 C 4.5 9.38 5.728 8.642 7.034 8.013 C 7.022 7.981 7.01 7.949 6.999 7.917 C 6.768 7.95 6.525 7.951 6.307 8.018 C 5.526 8.261 4.736 8.485 3.983 8.788 C 2.815 9.262 1.594 9.492 0.323 9.601 C -1.408 9.748 -3.138 9.805 -4.873 9.479 C -5.956 9.275 -6.994 8.946 -7.863 8.243 C -8.14 8.017 -8.379 7.745 -8.622 7.483 C -8.754 7.342 -8.752 7.188 -8.527 7.161 C -7.526 7.037 -6.706 6.522 -5.82 6.144 C -5.581 6.043 -5.328 5.975 -5.079 5.891 C -5.084 5.866 -5.088 5.84 -5.093 5.815 C -5.203 5.794 -5.313 5.774 -5.424 5.754 C -6.604 5.563 -7.794 5.413 -8.963 5.169 C -10.35 4.878 -11.411 4.095 -12.163 2.931 C -12.225 2.836 -12.244 2.712 -12.283 2.604 C -12.172 2.596 -12.056 2.57 -11.947 2.586 C -11.069 2.706 -10.192 2.727 -9.319 2.624 C -9.248 2.616 -9.182 2.597 -9.107 2.526 C -9.454 2.374 -9.802 2.225 -10.145 2.067 C -12.735 0.877 -15.14 -0.58 -17.168 -2.565 C -18.877 -4.239 -20.192 -6.134 -20.793 -8.4 C -20.986 -9.124 -21.054 -9.872 -21.175 -10.611 C -21.184 -10.663 -21.162 -10.717 -21.145 -10.844 C -20.979 -10.744 -20.836 -10.674 -20.715 -10.58 C -18.783 -9.088 -16.853 -7.593 -14.922 -6.099 C -14.797 -6.003 -14.665 -5.912 -14.537 -5.82 C -14.519 -5.837 -14.501 -5.855 -14.483 -5.872 C -14.615 -6.055 -14.744 -6.238 -14.879 -6.419 C -16.152 -8.137 -17.336 -9.906 -18.272 -11.811 C -19.417 -14.139 -20.261 -16.534 -20.268 -19.105 C -20.273 -20.544 -19.928 -21.895 -19.207 -23.14 C -18.996 -23.504 -18.927 -23.507 -18.688 -23.158 C -17.028 -20.723 -15.368 -18.289 -13.709 -15.853 C -11.814 -13.066 -9.443 -10.721 -6.527 -8.892 C -5.113 -8.005 -3.553 -7.417 -1.96 -6.928 C 1.376 -5.907 4.728 -4.931 8.061 -3.894 C 9.467 -3.456 10.869 -2.979 12.225 -2.41 C 14.468 -1.467 16.053 0.164 17.132 2.242 C 17.943 3.802 18.436 5.452 18.726 7.153 C 18.882 8.071 18.663 8.925 18.291 9.747 C 17.69 11.076 16.817 12.233 15.851 13.327 C 14.643 14.691 13.331 15.957 11.903 17.113 C 11.805 17.191 11.663 17.219 11.542 17.272 C 11.545 17.137 11.519 16.996 11.557 16.873 C 12.32 14.417 13.298 12.055 14.686 9.87 C 14.709 9.833 14.721 9.791 14.768 9.68 C 14.623 9.736 14.536 9.757 14.462 9.799 C 13.518 10.327 12.558 10.833 11.642 11.399 C 11.147 11.705 10.7 12.089 10.276 12.481 C 8.763 13.877 7.144 15.142 5.336 16.182 C 4.987 16.382 4.596 16.518 4.223 16.683 C 4.199 16.657 4.174 16.633 4.15 16.606 C 4.187 16.534 4.208 16.448 4.263 16.391 C 5.675 14.886 6.818 13.191 8.041 11.551 C 8.389 11.086 8.823 10.681 9.218 10.248 C 9.254 10.209 9.289 10.168 9.306 10.098 C 6.101 10.75 3.067 11.84 0.021 12.949 Z M 8.421 5.94 C 8.557 5.945 8.693 5.947 8.83 5.952 C 10.412 6.003 11.993 6.055 13.575 6.098 C 13.687 6.102 13.799 6.042 13.913 6.011 C 12.539 5.697 11.168 5.528 9.845 5.177 C 8.509 4.822 7.217 4.289 5.866 3.821 C 5.964 3.769 6.013 3.74 6.063 3.717 C 6.115 3.692 6.168 3.672 6.222 3.651 C 7.465 3.176 8.771 2.939 10.121 2.976 C 11.055 3.003 11.989 3.16 12.924 3.252 C 13.083 3.269 13.247 3.246 13.407 3.241 C 13.417 3.197 13.426 3.153 13.434 3.109 C 13.278 3.034 13.13 2.928 12.966 2.89 C 12.422 2.763 11.873 2.65 11.322 2.545 C 8.902 2.088 6.48 1.635 4.059 1.176 C 3.896 1.145 3.736 1.096 3.576 1.055 C 3.578 1.029 3.58 1.004 3.582 0.979 C 3.979 0.904 4.375 0.821 4.774 0.755 C 5.874 0.572 6.966 0.311 8.077 0.242 C 9.176 0.173 10.297 0.303 11.409 0.342 C 11.533 0.347 11.657 0.337 11.782 0.333 C 11.787 0.302 11.791 0.273 11.795 0.242 C 11.689 0.184 11.588 0.105 11.477 0.069 C 11.224 -0.009 10.967 -0.081 10.707 -0.132 C 9.004 -0.462 7.287 -0.548 5.566 -0.582 C 4.737 -0.597 3.899 -0.552 3.082 -0.671 C 2.087 -0.815 1.107 -1.101 0.122 -1.328 C 0.091 -1.336 0.066 -1.369 0.021 -1.401 C 0.175 -1.469 0.305 -1.531 0.437 -1.584 C 1.621 -2.053 2.876 -2.292 4.136 -2.52 C 4.247 -2.539 4.355 -2.578 4.463 -2.608 C 4.457 -2.645 4.452 -2.684 4.445 -2.721 C 4.277 -2.74 4.109 -2.772 3.942 -2.777 C 2.371 -2.819 0.799 -2.851 -0.774 -2.9 C -1.722 -2.93 -2.672 -2.964 -3.57 -3.359 C -4.561 -3.794 -5.554 -4.224 -6.547 -4.65 C -6.625 -4.682 -6.721 -4.669 -6.808 -4.678 C -6.79 -4.73 -6.771 -4.781 -6.751 -4.833 C -6.621 -4.852 -6.492 -4.874 -6.362 -4.887 C -4.408 -5.089 -2.443 -4.957 -0.526 -4.544 C 1.494 -4.111 3.496 -3.526 5.461 -2.87 C 8.09 -1.993 10.565 -0.758 12.954 0.634 C 13.105 0.721 13.25 0.83 13.371 0.953 C 15.07 2.69 16.062 4.642 15.597 7.032 C 15.575 7.149 15.592 7.277 15.592 7.399 C 15.632 7.409 15.672 7.419 15.71 7.43 C 15.759 7.306 15.825 7.189 15.851 7.063 C 16.183 5.332 15.715 3.735 14.728 2.243 C 14.117 1.318 13.426 0.441 12.394 -0.104 C 11.292 -0.688 10.178 -1.25 9.055 -1.795 C 6.413 -3.076 3.612 -3.898 0.777 -4.619 C 0.2 -4.765 -0.393 -4.853 -0.982 -4.956 C -1.774 -5.094 -2.581 -5.163 -3.357 -5.363 C -7.724 -6.502 -11.258 -8.87 -14.066 -12.274 C -15.578 -14.106 -16.799 -16.106 -17.888 -18.179 C -18.025 -18.442 -18.168 -18.706 -18.306 -18.968 C -18.285 -18.988 -18.263 -19.007 -18.241 -19.027 C -18.034 -18.922 -17.808 -18.844 -17.626 -18.707 C -16.933 -18.187 -16.254 -17.646 -15.567 -17.115 C -15.473 -17.042 -15.364 -16.985 -15.26 -16.919 C -15.235 -16.947 -15.21 -16.974 -15.185 -17.001 C -15.248 -17.086 -15.297 -17.186 -15.377 -17.254 C -15.849 -17.661 -16.311 -18.082 -16.809 -18.456 C -17.182 -18.735 -17.595 -18.971 -18.011 -19.188 C -18.192 -19.284 -18.424 -19.285 -18.698 -19.342 C -18.634 -19.151 -18.616 -19.049 -18.568 -18.961 C -17.561 -17.117 -16.569 -15.268 -15.349 -13.534 C -15.248 -13.39 -15.175 -13.216 -15.132 -13.047 C -14.945 -12.299 -14.798 -11.543 -14.59 -10.8 C -14.219 -9.459 -13.699 -8.167 -12.898 -6.986 C -12.11 -5.822 -11.133 -4.865 -9.711 -4.413 C -9.666 -4.398 -9.629 -4.36 -9.559 -4.315 C -9.692 -4.287 -9.787 -4.267 -9.88 -4.244 C -10.857 -4.014 -11.835 -3.785 -12.811 -3.547 C -12.915 -3.523 -13.005 -3.452 -13.102 -3.402 C -13.096 -3.363 -13.089 -3.323 -13.082 -3.284 C -10.864 -3.026 -8.677 -2.621 -6.567 -1.849 C -7.385 -1.788 -8.214 -1.94 -9.037 -1.822 C -8.961 -1.702 -8.884 -1.614 -8.789 -1.56 C -8.472 -1.381 -8.156 -1.2 -7.826 -1.048 C -6.231 -0.321 -4.544 -0.053 -2.817 -0.003 C -2.711 -0.001 -2.604 0.016 -2.497 0.026 C -2.494 0.063 -2.493 0.099 -2.491 0.135 C -3.46 0.258 -4.425 0.427 -5.4 0.491 C -6.381 0.554 -7.374 0.51 -8.36 0.515 C -8.372 0.54 -8.384 0.566 -8.395 0.591 C -7.678 1.169 -6.793 1.439 -5.931 1.749 C -5.937 1.777 -5.942 1.803 -5.947 1.828 C -6.683 1.867 -7.419 1.903 -8.153 1.941 C -8.159 1.966 -8.166 1.99 -8.171 2.017 C -8.084 2.101 -8.009 2.204 -7.909 2.265 C -7.541 2.489 -7.179 2.733 -6.787 2.908 C -5.397 3.531 -3.928 3.735 -2.426 3.727 C -2.32 3.728 -2.213 3.75 -2.106 3.76 C -2.512 3.906 -2.904 4.039 -3.31 4.118 C -4.053 4.259 -4.803 4.369 -5.566 4.118 C -5.646 4.093 -5.746 4.131 -5.836 4.14 C -5.794 4.227 -5.772 4.337 -5.702 4.394 C -4.733 5.215 -3.639 5.808 -2.379 6.086 C -2.266 6.111 -2.157 6.158 -2.001 6.208 C -2.79 6.637 -3.602 6.807 -4.534 6.894 C -4.368 7.06 -4.292 7.188 -4.18 7.241 C -3.671 7.489 -3.171 7.789 -2.634 7.935 C -1.164 8.334 0.312 8.335 1.703 7.792 C 2.264 7.573 2.795 7.583 3.365 7.633 C 5.274 7.793 7.104 7.578 8.815 6.784 C 8.917 6.737 9.082 6.753 9.198 6.794 C 9.623 6.946 10.034 7.142 10.463 7.286 C 11.739 7.717 13.044 7.974 14.388 7.899 C 14.513 7.891 14.632 7.836 14.754 7.803 C 14.744 7.768 14.735 7.733 14.725 7.699 C 14.654 7.689 14.581 7.67 14.51 7.672 C 12.66 7.758 10.918 7.302 9.245 6.522 C 8.946 6.383 8.677 6.182 8.393 6.008 C 8.402 5.984 8.411 5.962 8.421 5.94 Z M -14.772 -12.806 C -11.963 -9.155 -8.387 -6.535 -3.828 -5.219 C -5.035 -5.155 -6.251 -5.284 -7.466 -4.826 C -7.297 -4.73 -7.206 -4.666 -7.106 -4.623 C -5.931 -4.12 -4.755 -3.62 -3.579 -3.119 C -2.773 -2.774 -1.919 -2.733 -1.07 -2.703 C 0.189 -2.658 1.449 -2.646 2.708 -2.618 C 2.808 -2.616 2.908 -2.604 3.013 -2.564 C 1.721 -2.238 0.421 -1.948 -0.77 -1.201 C -0.626 -1.158 -0.576 -1.137 -0.523 -1.128 C 0.037 -1.042 0.597 -0.969 1.155 -0.87 C 1.483 -0.81 1.805 -0.713 2.128 -0.63 C 2.836 -0.448 3.548 -0.381 4.278 -0.365 C 5.868 -0.333 7.46 -0.239 9.051 -0.167 C 9.165 -0.162 9.277 -0.13 9.391 -0.082 C 7.068 0.032 4.838 0.536 2.592 0.974 C 2.591 1.022 2.592 1.07 2.593 1.119 C 5.337 1.638 8.08 2.157 10.824 2.677 C 10.828 2.708 10.833 2.74 10.835 2.773 C 8.878 2.694 7.02 2.984 5.31 3.818 C 5.31 3.852 5.31 3.886 5.309 3.921 C 7.29 4.562 9.272 5.204 11.321 5.866 C 10.088 5.802 8.913 5.74 7.735 5.679 C 7.722 5.709 7.71 5.74 7.697 5.771 C 8.028 6.024 8.359 6.277 8.692 6.531 C 7.948 7.215 4.317 7.745 3.021 7.347 C 4.22 6.906 5.388 6.517 6.477 5.973 C 6.466 5.936 6.454 5.899 6.442 5.862 C 6.323 5.882 6.192 5.88 6.084 5.925 C 4.816 6.446 3.475 6.413 2.12 6.278 C 2.06 6.271 2.003 6.235 1.889 6.188 C 2.876 5.753 3.823 5.361 4.699 4.846 C 4.686 4.822 4.673 4.798 4.66 4.772 C 3.91 4.913 3.168 5.093 2.409 5.186 C 1.652 5.276 0.881 5.225 0.055 5.095 C 0.375 4.734 0.772 4.594 1.158 4.45 C 1.866 4.184 2.584 3.942 3.298 3.687 C 3.365 3.664 3.425 3.626 3.487 3.594 C 3.483 3.565 3.478 3.534 3.474 3.504 C 3.363 3.503 3.248 3.484 3.142 3.506 C 1.69 3.815 0.218 3.885 -1.273 3.659 C -1.71 3.592 -2.141 3.49 -2.572 3.395 C -2.669 3.374 -2.759 3.318 -2.85 3.278 C -2.855 3.245 -2.861 3.213 -2.865 3.18 C -1.57 2.714 -0.276 2.246 1.018 1.781 C 1.011 1.747 1.004 1.712 0.997 1.678 C 0.878 1.681 0.753 1.67 0.638 1.692 C -0.786 1.976 -2.225 2.077 -3.69 1.934 C -4.911 1.815 -6.085 1.517 -7.212 1.023 C -7.311 0.979 -7.407 0.93 -7.503 0.88 C -7.536 0.864 -7.564 0.838 -7.656 0.77 C -7.492 0.753 -7.386 0.734 -7.282 0.736 C -5.1 0.803 -2.989 0.496 -0.928 -0.097 C -0.79 -0.137 -0.66 -0.203 -0.525 -0.258 C -0.533 -0.29 -0.541 -0.321 -0.548 -0.351 C -0.642 -0.353 -0.738 -0.371 -0.828 -0.357 C -3.217 0 -5.533 -0.312 -7.783 -1.265 C -7.98 -1.347 -8.178 -1.426 -8.374 -1.506 C -8.361 -1.549 -8.346 -1.592 -8.331 -1.634 C -8.232 -1.64 -8.135 -1.651 -8.034 -1.652 C -5.948 -1.655 -3.859 -1.656 -1.772 -1.662 C -1.671 -1.663 -1.571 -1.714 -1.471 -1.741 C -1.474 -1.768 -1.476 -1.797 -1.48 -1.825 C -1.576 -1.84 -1.674 -1.868 -1.771 -1.87 C -2.561 -1.879 -3.353 -1.911 -4.141 -1.88 C -5.284 -1.836 -6.376 -2.084 -7.464 -2.406 C -8.928 -2.836 -10.418 -3.137 -11.926 -3.351 C -12.018 -3.365 -12.109 -3.395 -12.2 -3.416 C -12.205 -3.442 -12.209 -3.469 -12.213 -3.495 C -11.823 -3.601 -11.442 -3.742 -11.042 -3.807 C -10.098 -3.963 -9.143 -4.08 -8.192 -4.217 C -8.079 -4.233 -7.971 -4.275 -7.863 -4.374 C -7.921 -4.394 -7.98 -4.432 -8.037 -4.43 C -9.974 -4.364 -11.359 -5.298 -12.465 -6.745 C -13.062 -7.526 -13.517 -8.381 -13.838 -9.279 C -14.208 -10.309 -14.481 -11.367 -14.791 -12.416 C -14.825 -12.529 -14.826 -12.65 -14.842 -12.769 C -14.818 -12.781 -14.794 -12.793 -14.772 -12.806 Z M -4.035 7.161 C -3.129 6.836 -2.348 6.549 -1.561 6.281 C -1.422 6.232 -1.256 6.237 -1.102 6.241 C -0.702 6.248 -0.302 6.274 0.099 6.284 C 0.196 6.285 0.294 6.254 0.393 6.24 C 0.393 6.204 0.394 6.169 0.396 6.132 C 0.288 6.114 0.179 6.079 0.072 6.08 C -0.935 6.062 -1.939 6.026 -2.92 5.713 C -3.631 5.49 -4.28 5.154 -4.892 4.739 C -4.977 4.681 -5.052 4.608 -5.163 4.517 C -5.068 4.491 -5.017 4.462 -4.966 4.464 C -3.864 4.509 -2.829 4.237 -1.79 3.974 C -1.527 3.908 -1.237 3.908 -0.957 3.91 C -0.227 3.916 0.504 3.94 1.236 3.957 C 1.358 3.96 1.48 3.963 1.605 3.989 C 0.911 4.332 0.16 4.573 -0.413 5.212 C 0.827 5.479 1.991 5.461 3.169 5.357 C 2.497 5.709 1.827 6.057 1.001 6.191 C 1.098 6.24 1.19 6.314 1.292 6.334 C 2.191 6.519 3.095 6.606 4.004 6.544 C 4.163 6.533 4.323 6.535 4.495 6.589 C 4.411 6.629 4.329 6.676 4.24 6.702 C 3.539 6.904 2.834 7.1 2.13 7.3 C 2.094 7.311 2.042 7.309 2.022 7.332 C 1.592 7.819 0.951 7.842 0.362 7.923 C -0.828 8.085 -2.013 7.961 -3.163 7.542 C -3.443 7.44 -3.711 7.303 -4.035 7.161 Z M -0.849 2.211 C -1.588 2.499 -2.33 2.786 -3.069 3.078 C -3.245 3.147 -3.464 3.214 -3.189 3.497 C -4.771 3.36 -6.248 3.096 -7.642 2.186 C -7.462 2.152 -7.366 2.126 -7.269 2.118 C -6.649 2.065 -6.028 2.004 -5.406 1.973 C -5.109 1.957 -4.803 1.978 -4.506 2.028 C -3.395 2.219 -2.286 2.21 -1.177 2.141 C -1.068 2.136 -0.959 2.143 -0.849 2.145 C -0.849 2.167 -0.848 2.19 -0.849 2.211 Z M 8.392 6.006 C 8.38 5.99 8.366 5.973 8.353 5.957 C 8.375 5.951 8.398 5.946 8.421 5.94 C 8.411 5.962 8.402 5.984 8.392 6.006 Z" style="fill:#000099;strokeWidth:0"/>
</svg>