<?xml version="1.0" encoding="utf-8"?>
<svg width="30%" viewBox="-31 -31 62 68" xmlns="http://www.w3.org/2000/svg">
  <g id="layer1" transform="matrix(0.10145, 0, 0, 0.102266, -38.438236, -46.287758)">
    <g transform="matrix(1.3542246,-0.47798351,0.47798351,1.3542246,-1725.1879,812.24596)" id="g4370" style="fill:#fcef3c;display:inline">
      <path style="fill:#fcef3c;fill-opacity:1;stroke:#000000;stroke-width:1.24006104;stroke-linejoin:round;stroke-miterlimit:4;stroke-opacity:1;stroke-dasharray:none" d="m 1471.2723,155.12135 c 36.1384,-14.36275 71.102,-26.23811 108.9043,-46.02234 10.2746,-5.37733 6.9236,-0.82405 5.468,5.468 -2.0765,8.97602 -15.0718,19.51186 -25.0616,29.61834 l -91.1334,43.28833 1.8227,-32.35233 z" id="path3512"/>
      <path style="fill:#fcef3c;fill-opacity:1;stroke:#000000;stroke-width:1.24006104;stroke-linejoin:round;stroke-miterlimit:4;stroke-opacity:1;stroke-dasharray:none" d="m 1473.1319,182.28323 c 40.3743,-32.87714 83.8096,-33.37899 124.6217,-63.60902 4.5929,-3.40204 8.0527,-3.93243 5.6253,5.62529 -2.1285,8.38084 -6.2231,12.52781 -12.5487,15.57772 0.5453,11.27519 -5.4507,12.73844 -9.087,17.74129 l -105.1496,56.68559 -3.4617,-32.02087 z" id="path4284"/>
      <path style="fill:#fcef3c;fill-opacity:1;stroke:#000000;stroke-width:1.24006104;stroke-linejoin:round;stroke-miterlimit:4;stroke-opacity:1;stroke-dasharray:none" d="m 1477.0263,201.75538 c 32.8465,-3.05388 72.5169,-28.77983 112.5058,-51.0603 9.7444,-5.42927 9.3625,3.18572 7.3561,9.51972 -4.786,15.10912 -14.5344,18.01986 -22.5011,24.23201 2.5153,7.77224 -4.8697,8.47281 -9.9525,10.81786 l -8.6543,9.95243 -65.7726,24.66472 -48.8967,0.43272 35.9153,-28.55916 z" id="path4286"/>
      <path style="fill:#fcef3c;fill-opacity:1;stroke:#000000;stroke-width:1.24006104;stroke-linejoin:round;stroke-miterlimit:4;stroke-opacity:1;stroke-dasharray:none" d="m 1413.169,227.71825 c 45.7014,4.21805 111.8649,-14.57292 152.5638,-27.69372 17.9466,-5.78574 14.7388,12.94715 8.6543,17.74129 -34.825,27.43952 -73.9314,37.75345 -116.833,32.8863 l -44.3851,-22.93387 z" id="path4288"/>
      <path style="fill:#fcef3c;fill-opacity:1;stroke:#000000;stroke-width:1.24006104;stroke-linejoin:round;stroke-miterlimit:4;stroke-opacity:1;stroke-dasharray:none" d="m 1450.6307,264.06627 c 36.0183,3.64733 69.4494,13.5916 116.4002,-9.08701 12.74,-6.1538 6.2382,-10.30738 0.3398,-11.89037 -18.2294,-4.8923 -35.9383,-7.89903 -52.3585,-3.029 -21.9273,6.50338 -43.9935,6.35179 -65.2469,10.15951 l 0.8654,13.84687 z" id="path4290"/>
      <path style="fill:#fcef3c;fill-opacity:1;stroke:#000000;stroke-width:1.24006104;stroke-linejoin:round;stroke-miterlimit:4;stroke-opacity:1;stroke-dasharray:none" d="m 1367.5495,333.30058 c 13.7584,15.19368 25.735,33.44178 47.1659,35.48259 l -26.8283,-42.83873 -20.3376,7.35614 z" id="path4292"/>
      <path style="fill:#fcef3c;fill-opacity:1;stroke:#000000;stroke-width:1.24006104;stroke-linejoin:round;stroke-miterlimit:4;stroke-opacity:1;stroke-dasharray:none" d="m 1383.9927,330.27158 c 10.6264,17.52966 21.7182,33.69251 35.4826,39.37702 9.7614,4.03131 18.1708,3.57882 11.2505,-4.75986 -11.9389,-14.38589 -19.1557,-28.51058 -27.6937,-46.30045 l -19.0394,11.68329 z" id="path4294"/>
      <path style="fill:#fcef3c;fill-opacity:1;stroke:#000000;stroke-width:1.24006104;stroke-linejoin:round;stroke-miterlimit:4;stroke-opacity:1;stroke-dasharray:none" d="m 1403.8976,328.10801 c 6.9614,18.61237 18.8782,28.55283 30.29,39.37701 l 12.5487,7.35615 c 15.8046,9.26479 15.1663,-5.172 11.2506,-10.81786 l -37.2135,-53.6566 -16.8758,17.7413 z" id="path4296"/>
      <path style="fill:#fcef3c;fill-opacity:1;stroke:#000000;stroke-width:1.24006104;stroke-linejoin:round;stroke-miterlimit:4;stroke-opacity:1;stroke-dasharray:none" d="m 1442.4091,306.03957 c 20.4818,21.05883 40.9734,62.75835 61.4455,63.17631 6.9286,0.14146 14.9157,4.5758 11.2506,-10.81786 l -6.4907,-27.26101 -33.7518,-30.29001 -22.9338,-14.7123 -9.5198,19.90487 z" id="path4300"/>
      <path style="fill:#fcef3c;fill-opacity:1;stroke:#000000;stroke-width:1.24006104;stroke-linejoin:round;stroke-miterlimit:4;stroke-opacity:1;stroke-dasharray:none" d="m 1422.937,319.021 c 10.1003,25.84245 26.8015,42.44354 42.406,60.58003 12.6797,7.91987 10.6169,1.09723 12.5487,-1.73086 l -4.3271,-6.49072 c 8.6897,14.45672 14.7522,9.71993 16.4431,-4.75986 3.063,-26.22894 -30.5435,-45.20239 -47.1658,-67.50345 L 1422.937,319.021 z" id="path4298"/>
      <path style="fill:#fcef3c;fill-opacity:1;stroke:#000000;stroke-width:1.24006104;stroke-linejoin:round;stroke-miterlimit:4;stroke-opacity:1;stroke-dasharray:none" d="m 1450.6307,264.06627 c 31.9414,2.76153 73.1496,16.46311 83.0812,28.99187 7.3978,9.33235 -3.6929,23.88952 -10.8179,29.42458 l -65.3399,-39.37702 -6.9234,-19.03943 z" id="path4304"/>
      <path style="fill:#fcef3c;fill-opacity:1;stroke:#000000;stroke-width:1.24006104;stroke-linejoin:round;stroke-miterlimit:4;stroke-opacity:1;stroke-dasharray:none" d="m 1447.6017,292.62542 c 9.087,1.91812 18.3461,4.49423 27.261,13.41415 13.5818,13.5895 30.0589,31.24113 39.377,33.75173 0.741,4.66302 5.2848,6.64343 9.9525,4.32714 3.5527,-1.76301 13.2505,4.01282 6.9234,-11.25057 -0.5754,-10.93451 -9.3458,-15.31295 -15.145,-22.06844 -20.2925,-23.26763 -39.2172,-26.01785 -58.4165,-32.8863 l -9.9524,14.71229 z" id="path4302"/>
      <path style="fill:#fcef3c;fill-opacity:1;stroke:#000000;stroke-width:1.24006104;stroke-linejoin:round;stroke-miterlimit:4;stroke-opacity:1;stroke-dasharray:none" d="m 1442.7931,174.94284 30.5297,-19.36583 c 5.0318,-3.72242 7.0401,-0.18843 9.1133,3.18967 -19.6911,40.62664 -29.3497,19.66066 -44.4275,33.4915 l 4.7845,-17.31534 z" id="path4308"/>
      <path style="fill:#fcef3c;fill-opacity:1;stroke:#000000;stroke-width:1.24006104;stroke-linejoin:round;stroke-miterlimit:4;stroke-opacity:1;stroke-dasharray:none" d="m 1424.7943,167.42435 c 12.3565,-9.45362 25.7687,-13.59568 39.643,-15.49267 8.7064,-1.1904 7.9578,4.48537 7.2907,7.29067 -3.5729,15.02539 -29.4801,13.99019 -46.478,19.13799 l -0.4557,-10.93599 z" id="path4306"/>
      <path style="fill:#fcef3c;fill-opacity:1;stroke:#000000;stroke-width:1.24006104;stroke-linejoin:round;stroke-miterlimit:4;stroke-opacity:1;stroke-dasharray:none" d="m 1413.1895,227.60091 12.4992,-26.0986 47.2539,-2.89984 c 1.8212,5.15528 2.5004,10.91453 -0.3222,15.46583 -11.1342,17.95346 -42.8835,15.47912 -59.4309,13.53261 z" id="path4312"/>
      <path style="fill:#fcef3c;fill-opacity:1;stroke:#000000;stroke-width:1.24006104;stroke-linejoin:round;stroke-miterlimit:4;stroke-opacity:1;stroke-dasharray:none" d="m 1446.8941,187.01801 c 9.781,0.99983 18.0709,-8.33154 26.6565,-7.74633 7.1552,0.48771 11.6451,13.52284 6.6072,17.99883 -10.441,9.27656 -24.0646,9.46686 -33.7193,5.01233 l 0.4556,-15.26483 z" id="path4310"/>
      <path style="fill:#fcef3c;fill-opacity:1;stroke:#000000;stroke-width:1.24006104;stroke-linejoin:round;stroke-miterlimit:4;stroke-opacity:1;stroke-dasharray:none" d="m 1423.6452,232.43399 c 13.4028,3.64295 30.2771,-6.97581 39.6312,19.01009 3.9394,10.94377 -3.7229,9.04637 -7.0885,10.31056 l -32.8649,-19.97671 0.3222,-9.34394 z" id="path4314"/>
      <path style="fill:#fcef3c;fill-opacity:1;stroke:#000000;stroke-width:1.24006104;stroke-linejoin:round;stroke-miterlimit:4;stroke-opacity:1;stroke-dasharray:none" d="m 1415.2679,239.8447 17.3991,-0.3222 c 15.9807,6.33059 25.6846,14.50728 27.0652,25.13199 -3.0165,8.64828 -30.5021,-4.72567 -45.7531,-7.08851 l 1.2888,-17.72128 z" id="path4330"/>
      <path style="fill:#fcef3c;fill-opacity:1;stroke:#000000;stroke-width:1.24006104;stroke-linejoin:round;stroke-miterlimit:4;stroke-opacity:1;stroke-dasharray:none" d="m 1419.1344,254.66613 c 21.229,-2.07504 40.7338,3.3505 46.0753,28.99845 2.4754,11.88584 -4.7478,11.14383 -8.6996,11.92158 -4.6915,0.92332 -9.7739,-0.53604 -13.8548,-3.22204 l -26.0986,-24.48758 2.5777,-13.21041 z" id="path4316"/>
      <path style="fill:#fcef3c;fill-opacity:1;stroke:#000000;stroke-width:1.24006104;stroke-linejoin:round;stroke-miterlimit:4;stroke-opacity:1;stroke-dasharray:none" d="m 1421.3898,270.13197 c -0.9811,-4.00028 26.1651,13.2571 27.3874,19.97671 1.5386,8.45825 6.3478,18.3614 -8.0551,17.72127 l -14.4992,-0.64441 -17.7213,-23.52096 12.8882,-13.53261 z" id="path4318"/>
      <path style="fill:#fcef3c;fill-opacity:1;stroke:#000000;stroke-width:1.24006104;stroke-linejoin:round;stroke-miterlimit:4;stroke-opacity:1;stroke-dasharray:none" d="m 1413.3347,283.34238 c 8.1639,7.87001 19.0054,14.94425 19.6545,27.06521 0.9349,17.45755 -10.1465,11.32856 -19.3323,5.47749 l -16.1103,-25.45419 15.7881,-7.08851 z" id="path4320"/>
      <path style="fill:#fcef3c;fill-opacity:1;stroke:#000000;stroke-width:1.24006104;stroke-linejoin:round;stroke-miterlimit:4;stroke-opacity:1;stroke-dasharray:none" d="m 1400.4465,293.33073 c 6.488,3.88726 11.0645,10.40784 12.2438,17.07686 1.0611,6.00034 5.1574,17.61293 -4.1887,18.04348 -4.9348,0.22733 -9.1372,-3.38833 -13.2104,-8.05512 l -5.1553,-23.84317 10.3106,-3.22205 z" id="path4322"/>
      <path style="fill:#fcef3c;fill-opacity:1;stroke:#000000;stroke-width:1.24006104;stroke-linejoin:round;stroke-miterlimit:4;stroke-opacity:1;stroke-dasharray:none" d="m 1382.0808,295.90837 c 13.2779,6.62154 20.3213,15.50381 15.1436,29.96506 -2.912,8.13336 -6.7508,5.52432 -10.9549,2.89985 l -7.0886,-9.66615 -4.1886,-18.04348 7.0885,-5.15528 z" id="path4324"/>
      <path style="fill:#fcef3c;fill-opacity:1;stroke:#000000;stroke-width:1.24006104;stroke-linejoin:round;stroke-miterlimit:4;stroke-opacity:1;stroke-dasharray:none" d="m 1378.2143,302.35247 c 5.2711,9.1374 11.4292,20.1387 4.5109,28.35404 -6.0677,7.20524 -9.1982,-0.77985 -12.566,-3.22205 l -5.1553,-26.09861 13.2104,0.96662 z" id="path4326"/>
      <path style="fill:#fcef3c;fill-opacity:1;stroke:#000000;stroke-width:1.24006104;stroke-linejoin:round;stroke-miterlimit:4;stroke-opacity:1;stroke-dasharray:none" d="m 1345.6716,295.90837 c 2.7151,13.12725 0.9951,26.90344 14.4992,38.02019 4.4931,3.6987 6.1632,0.90995 9.0218,0 7.1276,-2.26885 4.3164,-5.34809 4.1886,-8.37733 -0.474,-11.23921 -6.468,-21.09843 -9.9883,-31.57609 l -17.7213,1.93323 z" id="path4328"/>
      <path style="fill:#fcef3c;fill-opacity:1;stroke:#000000;stroke-width:1.24006104;stroke-linejoin:round;stroke-miterlimit:4;stroke-opacity:1;stroke-dasharray:none" d="m 1417.5233,185.06986 c 6.943,-4.84722 13.4282,4.01992 12.2438,8.05512 5.886,-2.87665 11.3564,-6.60663 19.0101,-3.22205 2.4876,1.10005 5.7821,0.38754 2.8999,8.69954 -3.7101,10.69976 -22.4885,12.58254 -34.4876,9.66614" id="path4332"/>
      <path style="fill:#fcef3c;fill-opacity:1;stroke:#000000;stroke-width:1.24006104;stroke-linejoin:round;stroke-miterlimit:4;stroke-opacity:1;stroke-dasharray:none" d="m 1405.924,248.22203 c 8.4128,0.6408 19.3501,-3.18325 20.6211,12.8882 0.6867,8.68376 -5.6679,11.73117 -8.6996,17.39907 l -16.7546,-14.17702 4.8331,-16.11025 z" id="path4334"/>
      <path style="fill:#fcef3c;fill-opacity:1;stroke:#000000;stroke-width:1.24006104;stroke-linejoin:round;stroke-miterlimit:4;stroke-opacity:1;stroke-dasharray:none" d="m 1386.2695,271.42079 14.8214,-7.08851 c 10.3233,1.7534 18.5655,11.23965 18.3657,19.0101 -0.1116,4.3385 -3.7109,8.25141 -12.566,8.37733 -7.4528,-0.28783 -13.1606,-3.48414 -18.0435,-8.05513 l -2.5776,-12.24379 z" id="path4336"/>
      <path style="fill:#fcef3c;fill-opacity:1;stroke:#000000;stroke-width:1.24006104;stroke-linejoin:round;stroke-miterlimit:4;stroke-opacity:1;stroke-dasharray:none" d="m 1381.4364,288.49766 c 3.7265,7.00217 3.97,17.8452 15.788,11.27717 9.1166,-5.06665 2.5025,-13.37284 -0.3222,-21.58773 l -15.4658,10.31056 z" id="path4338"/>
      <path style="fill:#fcef3c;fill-opacity:1;stroke:#000000;stroke-width:1.24006104;stroke-linejoin:round;stroke-miterlimit:4;stroke-opacity:1;stroke-dasharray:none" d="m 1363.3929,293.97514 18.0435,-5.47748 c 2.0566,6.94618 6.0287,15.34809 -3.8665,18.68788 -9.8456,3.32306 -12.3693,-5.30541 -14.177,-13.2104 z" id="path4340"/>
      <path style="fill:#fcef3c;fill-opacity:1;stroke:#000000;stroke-width:1.24006104;stroke-linejoin:round;stroke-miterlimit:4;stroke-opacity:1;stroke-dasharray:none" d="m 1336.395,275.87301 c 1.6974,-12.19628 7.5764,-8.26503 12.303,-7.74633 8.3911,0.92085 16.1991,1.46245 23.239,-0.45567 4.3621,-5.20688 8.5062,-10.6318 14.1256,-14.58133 5.1649,-6.37933 5.8969,-12.75867 7.2907,-19.138 3.3548,-6.19444 -0.3466,-9.74281 -1.8227,-14.12567 -6.5618,-30.90248 19.651,-49.32411 27.7957,-52.40166 8.3582,-3.1582 13.2128,2.15476 5.6898,10.88657 15.1928,-9.54987 20.2372,-6.24512 15.7265,9.16276 -3.1522,4.6169 -6.2255,9.35221 -19.627,-1.40484 12.3332,5.086 -3.0048,22.30314 -2.43,11.31723 0.072,-1.36719 6.678,6.46198 -3.916,9.22561 8.4048,-3.61327 25.7255,9.67063 1.8227,10.936 2.5077,3.34155 6.6534,6.68311 -0.9113,10.02466 21.5861,-0.73341 6.3437,16.86053 0.4556,10.48034 8.0331,11.80179 5.5412,14.89331 -5.468,10.936 1.1428,6.3215 -0.7572,9.04699 -6.835,6.835 7.2619,2.60675 9.4368,5.90718 2.2784,10.48033 -4.0253,3.90632 -5.5729,13.04352 -15.037,5.468 10.6096,18.8858 -0.168,23.31833 -18.3404,19.96354 4.0668,3.97554 0.7553,12.12783 -6.9443,9.52717 -3.6153,-1.2575 -6.0498,-8.19222 -9.1637,-16.30932 7.273,15.55874 0.4542,33.2527 -15.1436,3.22205 z" id="path4346"/>
      <path style="fill:#fcef3c;stroke:#000000;stroke-width:0.9300456;stroke-linejoin:round;stroke-miterlimit:4;stroke-opacity:1;stroke-dasharray:none" d="m 1396.1921,329.79366 c 4.8561,9.93812 8.9511,13.78749 12.8879,16.37099" id="path4348"/>
      <path style="fill:#fcef3c;stroke:#000000;stroke-width:0.9300456;stroke-linejoin:round;stroke-miterlimit:4;stroke-opacity:1;stroke-dasharray:none" d="m 1413.9564,326.31047 c 8.3133,12.5858 17.1401,24.65815 28.2138,34.48357" id="path4350"/>
      <path style="fill:#fcef3c;stroke:#000000;stroke-width:0.9300456;stroke-linejoin:round;stroke-miterlimit:4;stroke-opacity:1;stroke-dasharray:none" d="m 1434.8555,314.81594 32.0454,35.18021" id="path4352"/>
      <path style="fill:#fcef3c;stroke:#000000;stroke-width:0.9300456;stroke-linejoin:round;stroke-miterlimit:4;stroke-opacity:1;stroke-dasharray:none" d="m 1452.9681,301.2315 25.4273,22.98905" id="path4354"/>
      <path style="fill:#fcef3c;stroke:#000000;stroke-width:0.9300456;stroke-linejoin:round;stroke-miterlimit:4;stroke-opacity:1;stroke-dasharray:none" d="m 1465.5076,290.78194 c 16.5625,8.46995 24.6415,15.72796 35.1802,23.33736" id="path4356"/>
      <path style="fill:#fcef3c;stroke:#000000;stroke-width:0.9300456;stroke-linejoin:round;stroke-miterlimit:4;stroke-opacity:1;stroke-dasharray:none" d="m 1470.7321,275.36083 c 18.7246,3.92159 35.4853,9.31612 46.4855,19.03106" id="path4358"/>
      <path style="fill:#fcef3c;stroke:#000000;stroke-width:0.9300456;stroke-linejoin:round;stroke-miterlimit:4;stroke-opacity:1;stroke-dasharray:none" d="m 1463.766,256.64668 c 27.7061,-0.0741 55.3398,0.50213 83.9449,-7.66301" id="path4360"/>
      <path style="fill:#fcef3c;stroke:#000000;stroke-width:0.9300456;stroke-linejoin:round;stroke-miterlimit:4;stroke-opacity:1;stroke-dasharray:none" d="m 1454.7097,236.09586 c 37.1456,1.86957 70.8255,-7.23515 102.4058,-22.98904" id="path4362"/>
      <path style="fill:#fcef3c;stroke:#000000;stroke-width:0.9300456;stroke-linejoin:round;stroke-miterlimit:4;stroke-opacity:1;stroke-dasharray:none" d="m 1477.0021,208.57867 c 33.1728,-4.25938 63.5891,-21.382 94.0461,-38.31508" id="path4364"/>
      <path style="fill:#fcef3c;stroke:#000000;stroke-width:0.9300456;stroke-linejoin:round;stroke-miterlimit:4;stroke-opacity:1;stroke-dasharray:none" d="m 1488.4966,181.06147 c 30.5163,-11.23085 60.0413,-24.77461 87.7764,-42.49491" id="path4366"/>
      <path style="fill:#fcef3c;stroke:#000000;stroke-width:0.9300456;stroke-linejoin:round;stroke-miterlimit:4;stroke-opacity:1;stroke-dasharray:none" d="m 1488.8449,157.37579 c 41.6679,-11.93963 48.7747,-20.06207 67.2256,-28.56216" id="path4368"/>
    </g>
  </g>
</svg>