<?xml version="1.0" encoding="utf-8"?>
<svg width="30%" viewBox="-31 -31 62 68" xmlns="http://www.w3.org/2000/svg">
  <path d="M -5.382 -18.221 C -4.031 -17.359 -2.959 -16.127 -2.264 -14.392 C -2.074 -14.429 -1.885 -14.464 -1.695 -14.492 L 0.424 -24.92 L 2.659 -14.468 C 3.113 -14.395 3.559 -14.295 4.001 -14.179 C 5.186 -15.252 5.854 -16.665 6.228 -18.223 C 6.711 -20.233 7.614 -21.994 9.727 -23.177 C 8.531 -21.282 8.057 -19.467 8.494 -17.33 C 8.804 -15.818 8.646 -14.231 7.838 -12.541 C 7.996 -12.443 8.153 -12.339 8.307 -12.233 L 17.613 -18.189 L 11.37 -9.312 C 11.636 -8.959 11.885 -8.593 12.114 -8.209 C 13.754 -8.18 15.27 -8.732 16.7 -9.583 C 18.546 -10.681 20.505 -11.314 22.884 -10.739 C 20.62 -10.199 18.932 -9.239 17.641 -7.435 C 16.728 -6.158 15.425 -5.145 13.587 -4.49 C 13.626 -4.311 13.663 -4.132 13.693 -3.953 L 24.733 -1.952 L 13.668 0.16 C 13.591 0.59 13.496 1.013 13.373 1.432 C 14.508 2.546 15.997 3.178 17.643 3.531 C 19.771 3.987 21.636 4.839 22.888 6.835 C 20.882 5.705 18.968 5.255 16.706 5.668 C 15.104 5.961 13.417 5.815 11.628 5.052 C 11.523 5.2 11.413 5.349 11.302 5.495 L 17.615 14.281 L 8.209 8.388 C 7.834 8.639 7.447 8.874 7.041 9.09 C 7.01 10.638 7.594 12.071 8.495 13.421 C 9.658 15.165 10.337 17.012 9.728 19.258 C 9.155 17.121 8.131 15.53 6.222 14.311 C 4.87 13.449 3.798 12.216 3.103 10.482 C 2.914 10.518 2.725 10.552 2.535 10.582 L 0.424 21.006 L -1.819 10.558 C -2.277 10.484 -2.724 10.388 -3.171 10.271 C -4.35 11.345 -5.007 12.752 -5.381 14.309 C -5.864 16.319 -6.774 18.083 -8.887 19.265 C -7.691 17.371 -7.214 15.564 -7.652 13.427 C -7.962 11.915 -7.805 10.321 -6.999 8.63 C -7.159 8.531 -7.316 8.422 -7.471 8.316 L -16.771 14.285 L -10.531 5.401 C -10.798 5.046 -11.047 4.677 -11.278 4.291 C -12.912 4.265 -14.434 4.823 -15.861 5.672 C -17.706 6.77 -19.662 7.411 -22.042 6.837 C -19.778 6.295 -18.093 5.328 -16.803 3.525 C -15.889 2.248 -14.584 1.236 -12.748 0.579 C -12.787 0.4 -12.823 0.222 -12.854 0.042 L -23.891 -1.951 L -12.829 -4.07 C -12.751 -4.501 -12.649 -4.926 -12.525 -5.346 C -13.663 -6.46 -15.152 -7.08 -16.8 -7.434 C -18.928 -7.89 -20.796 -8.75 -22.049 -10.746 C -20.043 -9.616 -18.122 -9.169 -15.859 -9.582 C -14.258 -9.874 -12.578 -9.724 -10.788 -8.962 C -10.682 -9.114 -10.572 -9.268 -10.458 -9.416 L -16.768 -18.194 L -7.37 -12.298 C -6.993 -12.551 -6.603 -12.786 -6.194 -13.004 C -6.166 -14.547 -6.756 -15.984 -7.656 -17.332 C -8.819 -19.076 -9.49 -20.926 -8.881 -23.173 C -8.308 -21.035 -7.292 -19.44 -5.382 -18.221 Z" style="fill:#000099;strokeWidth:0"/>
</svg>