<svg width="30%" viewBox="-31 -31 62 68" xmlns="http://www.w3.org/2000/svg"><path d="M24.239-14.8c-.151-.198-.318-.568-.233-.873-.138-.727-.865-.766-1.49-.926-.061.019-.073.096-.139.109-.077.249.226.172.093.327-.636-.164-1.583-.397-2.049.109-.023.173.231.02.186.218-.445.207-.815.197-1.257.436-.022.242.063.271 0 .437-.317.136-.757.131-.931.435.212.03.29-.097.512-.054.04.466-.419.344-.559.599-.022.137.213-.131.233.054-.153.394-.602.636-.977.819-.38.183-.867.202-1.258.381-.291.133-.492.454-.838.381-.141.068.05.187 0 .327-.625.341-1.526.358-2.096.763-.478-.236-1.384.317-1.816-.164-.13.066-.321.061-.513.055-.094.133.188.288.234.437-.137.496.255.721.466.98.007.137-.074.17-.093.273.26.351.275.985.652 1.199.018.131-.086.118-.047.273.345.54 1.127.571 1.816.708-.002.129.08.161.047.328.242-.025.354-.204.651-.163.167.024.205.196.327.272.271-.022.439-.197.652-.218.11-.011.183.095.325.109.17.017.311-.082.419-.054.621.153 1.164 1.005 1.537 1.579.52.8 1.273 1.8 1.956 2.345.173.058.15-.115.232-.163.338-.013.495.184.699.327.373-.463.895.395 1.21 0 .137.113.336.152.42.327.21.009.116-.338.372-.273.191.24-.23.365-.093.545.354.268.318-.39.466-.545.497.347-.274.704-.14 1.307a1.918 1.918 0 0 1-.698.546c-1.16-.323-2.652.06-3.213-.981-.143.039-.17-.056-.279-.055-.72-.884-1.588-1.593-2.283-2.507-.264-.012-.604-.182-.837-.054.295.285.306.973.606 1.526.048.091.138.131.186.218.38.703.532 1.301.977 1.908.051.071.13.134.186.218.253.378.92.622 1.443.272.216.056.364.193.513.327.196.029.26-.095.419-.109.318.283.965.179 1.211.545.224.026.119-.332.372-.273.111.107-.085.306.047.436.392.086.307-.58.652-.381-.047.598-.493.732-.652 1.2-.322.052-.642.28-.978.326-.263.036-.48-.075-.792-.108-.529-.058-1.121.156-1.537.108-.201-.023-.475-.186-.698-.326-.983-.62-1.848-1.806-2.607-2.672.022-.171-.143-.123-.093-.327-.233-.001-.323-.168-.466-.272-.115-.129.069-.101.046-.273-.29.146-.378-.141-.558-.272-.32.049-.469-.106-.652-.218-.325.205-.716-.133-1.118.054.001.272.312.18.233.545-.269.217-.358-.181-.559-.218-.406.128-.64.186-.978-.054-.187.057.007.221-.045.436-.223.023-.339-.077-.467-.164-.108.037-.125.181-.233.218-.236-.095-.628-.409-.837-.054-.172-.001-.21-.154-.327-.218-.165-.03-.114.193-.279.163-.175-.032-.241-.19-.373-.272-.16-.041-.06.221-.232.163-.312-.088-.39-.453-.653-.599-.135-.015-.142.123-.279.109-.203-.144-.418-.274-.512-.545-.093.001-.059.149-.186.109-.774-.385-1.245-1.125-1.723-1.853.011-.229.173.061.233-.109-.062-.157-.234-.017-.374-.165-.033-.148.093-.109.093-.218-.293.013-.367-.287-.605-.054a.39.39 0 0 0-.046-.272c-.141-.002-.045.274-.185.272-.229.031-.241-.191-.373-.272-.16.085-.217.127-.419.054-.061.073-.029.165.046.218-.057.166-.177-.038-.234-.054-.088.314-.612.118-.558.6-.201.089-.435-.122-.465.218-.41-.062-.928.123-1.117.49-.366.1-.617.332-1.025.381-.437.518-1.123.429-1.584.873h-.279c-.227.084-.331.309-.558.327-.288.023-.574-.341-.839 0-.206.077-.121-.185-.279-.164-.238.03-.348.21-.56.273-.38-.158-.514.013-.837.163-.152.03-.183-.084-.288-.107a1.704 1.704 0 0 1-.219.312c-.174.204-.174.136-.202-.067-.02-.139-.016-.168-.011-.172-.047-.002-.884-.033-.912-.131-.029-.102-.318.134-.375.303-.058.169-.289 0-.289 0l.029-.297a2.325 2.325 0 0 0-.125.021l.017-.08c-.009-.061-.052-.085-.093-.109a.264.264 0 0 1-.139.164l-.015.092a.957.957 0 0 0-.171.09c-.054-.029-.136.058-.188-.019-.028-.233.152-.222.141-.436-.383.156-.679.69-1.211.491.105-.296.47-.286.465-.708-.145-.127-.418.229-.605.054-.13.047-.154.219-.186.381-.372.346-1.026.362-1.164.981-.592-.453-1.298.168-2.096.109-.186-.013-.341-.111-.512-.109-.18.002-.371.156-.559.163-.399.018-.813-.11-1.117.274-.287.017-.504.086-.931.163-.281.05-.707.295-.932.49-.215.187-.3.511-.559.599-.232-.055-.403-.181-.604-.272a.93.93 0 0 0-.513.6c-.597.355-.891 1.065-1.583 1.308-.061.235.222.068.186.272-.249.395-.301-.163-.652-.109-.219.066.108.188-.047.327-.246.017-.236-.268-.325-.435-.251.045-.382-.111-.559 0-.061.288.228.17.186.435-.505.208-.534-.709-.325-1.089 1.215-1.316 2.282-2.797 4.284-3.216.661-.139 1.292-.582 1.955-.818.374-.133.752-.112 1.071-.382-1.17-.554-2.827-.586-4.144-.817-.248.146-.524.259-.698.49-.147.027-.184-.077-.28-.109-.704.43-.945 1.402-1.863 1.581-.164.136-.262.347-.512.381-.096.014-.013.241-.093.273-.176-.085-.245-.295-.513-.273-.163-.008-.146.193-.232.273-.154-.056-.049-.415-.234-.436-.219-.02-.088.369-.325.327-.216-.28.109-.505.093-.872 1.446-1.088 2.437-2.706 4.657-2.889.146.026.123-.147.232-.163.986.091 1.655-.174 2.422-.109.324.028.577.152.885.109.122-.018.247-.109.372-.109.116 0 .206.09.326.109.476.074.977-.009 1.443-.164.469-.588-.228-.93-.232-1.416-.002-.221.168-.43.232-.601.069-.18.183-.333.187-.653-.161.052-.272-.254-.28-.545-.262.231-.104.735-.326.926-.485-.221.128-1.39-.279-1.69-.289-.09-.582.255-.884.327-.068-.12-.032-.363-.141-.435-.19.031-.185.291-.418.272-.264-.202.1-.619-.233-.763-.225.082-.442.462-.792.218.029-.203.275-.15.28-.381-.051-.195-.16-.322-.326-.382-.437.379-.86.774-1.118 1.362-.425.319-.924.391-1.257-.054-.352.042-.183.695-.419.872-.559-.314-.12-1.171.139-1.472-.24-.229-1.029.245-1.536 0-.133-.063-.181-.227-.28-.326.489-1.172 1.054-2.254 1.77-3.162.004-1.303.526-2 .885-2.888-.044-.15-.143-.233-.186-.383-.405-.311-.768-.95-.746-1.58.454.124.747.434 1.211.545-.015-.696-1.096-.893-.978-1.744.272.13.544.096.792.163 1.12.302 1.857 1.277 3.26 1.036.117.133-.099.116-.048.327.17.257.456-.013.699 0v.272c.083 0 .271.147.326 0 .139.056.072.353.233.382.204.038.207-.158.372-.164-.097.531.329.463.559.327.055.105-.042.277.094.382.139.05.361-.078.372 0 .318.354.648.695 1.118.872.093.111-.021.107-.047.218.596-.069.835.825 1.35.49.199.008-.063.244.093.327a.982.982 0 0 0 .11-.071c.05.081.104.137.162.177a1.188 1.188 0 0 0-.038.059c.131-.045.548.115.587.133-.148.066.21.636.696.367.061.04.121.083.18.128l-.019.025c.199.223.472.171.698.273.195.088.366.292.558.381.271.126.548.182.839.273.297.227.909.611 1.303.709.166.04.565.111.746.054a.321.321 0 0 0 .151-.105l.016.033a.405.405 0 0 0 .029.059c.387-.029 2.197-.163 2.379-.184.203-.024.941-.064 1.043-.096.102-.031.671-.229.732-.27.061-.039.03.069.145.069.116 0 .722-.134.808-.236.086-.101 1.039-.168 1.039-.168s.317-.068.404-.17c.074-.087.233-.198.271-.224l.003-.006h.006a.231.231 0 0 0 .078-.016l.02.115c.441.009.716-.179 1.07-.272.283.198.549-.048.839-.055.575-.015 1.184.31 1.816.055.414.336.836.55 1.35.49.947-.109 1.731-.857 2.236-1.472-.023.208.012.349.093.437.262-.165.385-.495.605-.709.443.302.753-.304.978-.6.169-.052.046.236.14.273.634-.438 1.088-1.087 1.722-1.527-.002.18-.078.272-.046.492.337.012.334-.372.558-.492.453.289.699-.3 1.025-.49.174-.058.074.204.233.163.631-.387 1.131-.928 2.142-.871v.272c.46-.467 1.338-.495 2.282-.599.393-.044.655-.129.977 0 .048.071.046.201.094.272.464-.093.885.249 1.21.491v.218c.416.329.889.595 1.258.981-.117.261.147.453.186.708.082.545-.04 1.047-.281 1.363zm-41.209-3.162c.132-.044.12.077.233.055.072-.164-.241-.143-.233-.055zm.14 3.87c-.11-.089.051-.791-.11-.821-.311.321.005 1.114.11.821zm-.559.055h.093c.029-.003.056-.008.047-.055-.067-.013-.079-.089-.14-.108zm-.745 3.979c-.036-.012-.055-.045-.047-.109-.415-.053-.835.648-.465.981.029-.457.372-.545.512-.872zm.28-.382c.005-.333-.081-.558-.327-.599-.165.296.121.737.327.599zm1.024-.708c-.047 0-.055-.044-.093-.054 0 .072-.083.049-.093.109.063.017.089.077.186.054zm.186-1.036c-.296.034-.356.077-.512.055-.209.391-.489.7-.698 1.09.041.079.069.172.186.163.18-.118.215-.23.419-.217-.062-.176.095-.31.14-.492.028-.116-.105-.486.139-.436-.072.081-.04.28-.046.436.17.018.257.135.419.164.101-.202.038-.607-.047-.763zm.093-5.505c.084.12.143.269.279.327.017-.204-.142-.485-.279-.327zm4.377 11.283h-.139c-.093.271-.007.757.186.871.07-.23-.067-.534-.047-.871zm.233 1.635h-.139c-.318.591-1.081.661-1.63.981.683.159 1.14-.407 1.676-.599.034-.125.041-.279.093-.382zm.233-.436c-.091-.108-.266-.035-.372 0v.109c.106.035.281.108.372 0zm27.473.164c.028-.196-.138-.167-.279-.164-.027.195.137.166.279.164zm-1.21-.272c.109.003.263.231.372.054-.01-.12-.311-.175-.372-.054z" style="strokeWidth:0" fill="#009"/></svg>