<?xml version="1.0" encoding="utf-8"?>
<svg width="30%" viewBox="-31 -31 62 68" xmlns="http://www.w3.org/2000/svg">
  <path d="M -17.589 -17.136 C -17.781 -17.247 -17.951 -17.377 -17.966 -17.424 C -18.018 -17.588 -17.235 -17.931 -16.811 -17.931 C -16.221 -17.931 -15.561 -17.596 -15.561 -17.296 C -15.749 -16.95 -15.995 -16.417 -16.373 -16.292 C -16.858 -16.375 -17.175 -16.871 -17.589 -17.136 Z M 13.776 12.063 C 13.709 11.759 13.988 11.538 14.011 11.253 C 13.951 11.192 13.422 11.736 13.422 11.858 C 13.422 11.965 12.98 12.083 12.863 12.008 C 12.756 11.938 12.859 11.517 13.109 10.992 C 13.295 10.581 13.442 10.159 13.67 9.772 C 13.888 9.413 13.899 9.354 13.88 8.615 C 13.865 7.944 13.891 7.749 14.078 7.191 C 14.652 5.768 14.133 3.436 13.232 2.79 C 13.079 2.696 12.953 2.59 12.953 2.553 C 12.953 2.449 11.852 1.931 11.389 1.817 C 11.153 1.76 10.909 1.667 10.844 1.61 C 10.699 1.483 10.308 1.351 9.764 1.243 C 8.773 1.015 7.897 0.456 7.253 -0.356 C 4.388 -0.338 1.512 -0.35 -1.343 -0.067 L -3.212 -0.028 L -3.586 0.349 C -4.148 0.993 -5.181 0.941 -5.992 1.085 C -6.996 1.238 -8.034 1.191 -8.901 1.817 C -8.997 1.896 -9.208 1.986 -9.368 2.017 C -9.925 2.124 -10.625 2.559 -11.269 3.199 C -11.885 3.811 -11.899 3.832 -11.975 4.342 C -12.032 4.904 -12.377 5.332 -12.689 5.766 L -12.878 5.552 C -13.119 5.28 -13.202 5.282 -13.263 5.563 C -13.476 6.555 -13.626 6.898 -14.036 7.328 C -14.794 7.943 -15.82 8.204 -16.421 7.882 C -16.21 7.364 -15.835 6.955 -15.576 6.464 C -15.501 6.301 -15.827 6.44 -16.3 6.772 C -16.801 7.125 -17.14 7.23 -17.239 7.063 C -16.587 4.997 -14.806 3.307 -13.256 1.954 C -12.749 1.487 -11.822 0.764 -11.678 0.125 C -12.374 0.112 -12.868 0.76 -13.509 0.97 C -14.511 1.243 -15.042 1.729 -15.387 2.685 C -15.633 3.364 -15.956 3.665 -16.343 3.576 C -16.598 3.517 -16.672 3.617 -16.853 4.259 C -17.223 5.355 -18.191 6.118 -19.266 6.295 C -19.728 6.339 -19.78 6.331 -19.78 6.196 C -19.663 5.746 -19.277 5.42 -19.19 4.946 C -19.488 5.102 -19.712 5.379 -20.032 5.502 C -20.158 5.502 -20.171 5.459 -20.125 5.194 C -19.939 4.297 -19.458 3.521 -18.898 2.828 C -18.267 2.379 -17.899 1.216 -17.418 0.995 C -16.547 0.65 -16.013 -0.269 -15.478 -1.019 C -15.056 -1.663 -14.779 -1.819 -12.955 -2.442 C -12.287 -2.671 -11.985 -2.857 -11.727 -3.201 C -11.389 -3.649 -11.326 -3.827 -11.382 -4.172 C -11.441 -4.528 -11.595 -4.594 -11.752 -4.33 C -11.897 -4.087 -11.986 -4.123 -12.405 -4.596 C -12.892 -5.149 -13.42 -5.457 -13.987 -5.521 C -15.577 -5.488 -17.013 -4.773 -18.594 -4.609 C -19.283 -4.555 -19.365 -4.567 -20.117 -4.824 C -20.832 -5.069 -21.568 -5.494 -21.575 -5.664 C -21.579 -5.789 -20.859 -6.05 -20.437 -6.077 C -19.825 -6.116 -19.77 -6.216 -20.134 -6.641 C -20.566 -7.147 -20.895 -7.44 -21.03 -7.442 C -21.559 -7.21 -21.97 -6.852 -22.566 -6.844 C -23.198 -6.853 -23.668 -7.102 -24.185 -7.701 C -24.622 -8.208 -25.015 -8.946 -25.013 -9.254 C -25.011 -9.628 -24.921 -9.675 -24.262 -9.654 C -23.442 -9.628 -23.493 -9.613 -23.118 -9.973 C -22.663 -10.409 -21.696 -11.045 -21.395 -11.105 C -18.933 -12.168 -16.962 -15.24 -15.25 -17.245 C -15.254 -17.556 -15.6 -18.052 -15.962 -18.259 C -16.875 -18.783 -17.036 -19.067 -16.579 -19.351 C -16.324 -19.509 -14.892 -19.552 -14.845 -19.404 C -14.829 -19.358 -14.694 -19.299 -14.542 -19.273 C -14.277 -19.228 -14.254 -19.245 -13.932 -19.726 C -13.639 -20.163 -13.411 -20.389 -13.26 -20.389 C -13.228 -20.171 -13.302 -19.943 -13.245 -19.734 C -13.206 -19.734 -12.93 -19.939 -12.63 -20.191 C -11.768 -20.914 -11.605 -20.952 -11.704 -20.405 L -11.757 -20.107 C -11.073 -20.554 -10.252 -21.033 -9.467 -21.085 C -9.398 -20.738 -9.824 -20.364 -9.638 -20.062 C -8.575 -20.369 -7.494 -20.923 -6.369 -20.853 C -7.273 -19.732 -5.563 -20.464 -4.529 -20.454 C -3.673 -20.426 -3.608 -20.334 -4.171 -19.946 C -5.318 -19.313 -4.124 -19.434 -3.471 -19.504 C -1.421 -19.505 -0.612 -19.398 -0.428 -19.103 C -0.214 -18.822 -0.72 -18.56 -0.23 -18.505 C 0.707 -18.451 2.056 -18.115 2.213 -17.884 C 2.567 -17.815 2.556 -17.728 2.172 -17.521 C 2 -17.429 1.859 -17.325 1.859 -17.289 C 1.859 -17.254 2.079 -17.18 2.348 -17.126 C 3.168 -16.99 3.986 -16.741 4.673 -16.234 C 4.504 -16.056 4.242 -15.996 4.069 -15.833 C 7.91 -15.044 11.255 -13.005 14.594 -10.986 C 15.436 -10.458 16.192 -9.797 16.404 -9.402 C 16.853 -8.566 17.674 -8.313 18.628 -8.718 C 19.365 -9.03 20.193 -9.082 20.705 -8.848 C 21.35 -8.496 21.856 -7.899 22.211 -7.239 L 22.219 -5.436 C 22.228 -3.497 22.256 -3.312 22.669 -2.588 C 23.007 -1.995 22.828 -1.595 22.347 -1.867 C 22.272 -1.91 21.953 -2.047 21.638 -2.17 C 20.815 -2.461 20.321 -3.211 20.218 -4.104 C 20.218 -4.251 20.138 -4.406 19.985 -4.548 C 19.429 -5.168 19.529 -5.73 19.695 -6.373 C 19.86 -6.85 19.919 -7.321 19.716 -7.665 C 19.028 -7.492 18.394 -7.278 17.264 -7.443 C 16.813 -4.395 16.176 -1.086 19.872 -0.514 C 20.399 -0.475 20.796 -0.306 20.949 -0.057 C 21.014 0.049 21.173 0.41 21.3 0.749 C 21.881 2.28 22.954 4.652 23.264 5.091 C 23.501 5.429 23.613 5.659 23.773 6.146 C 23.966 6.735 23.937 6.867 23.598 6.933 C 23.257 6.999 22.832 7.254 22.768 7.429 C 22.865 8.275 23.257 8.501 23.075 9.352 C 22.944 10.039 22.375 11.073 22.126 11.073 C 22.069 11.073 21.898 11.186 21.747 11.324 C 21.492 11.559 21.46 11.569 21.257 11.464 C 21.043 11.355 21.039 11.342 21.063 10.722 C 21.084 10.213 21.067 10.089 20.976 10.089 C 20.859 10.089 20.79 10.239 20.57 10.969 C 20.442 11.393 20.316 11.49 20.091 11.337 C 19.813 10.811 19.675 10.206 19.482 9.639 C 18.925 8.303 19.589 7.249 20.371 6.182 C 20.115 5.039 19.782 3.882 19.074 2.952 C 18.773 2.662 18.371 2.47 18.071 2.47 C 17.25 2.33 16.499 1.909 15.69 1.722 C 16.012 2.305 16.166 2.968 16.4 3.593 C 16.789 4.493 16.609 5.53 16.943 6.447 C 17.174 6.959 17.074 7.243 16.5 7.702 C 16.18 7.959 16.157 8.005 16.157 8.357 C 16.239 9.015 16.472 9.596 16.456 10.268 C 16.424 11.024 16.326 11.192 15.59 11.742 C 15.116 12.097 15.035 12.129 14.455 12.182 C 13.86 12.238 13.826 12.231 13.776 12.063 Z M -17.089 -8.101 C -17.359 -8.208 -18.663 -8.204 -18.727 -8.096 C -18.784 -7.999 -18.301 -7.286 -18.175 -7.282 C -17.805 -7.308 -16.461 -7.671 -17.089 -8.101 Z M -16.186 -12.939 C -16.146 -13.184 -15.949 -13.349 -15.874 -13.579 C -15.874 -13.72 -15.405 -13.934 -15.206 -13.882 C -14.967 -13.787 -14.797 -13.603 -14.543 -13.535 C -14.32 -13.487 -14.299 -13.5 -14.324 -13.671 C -14.48 -14.139 -14.892 -14.19 -15.312 -14.182 C -15.902 -14.216 -16.256 -13.76 -16.708 -13.442 C -17.1 -13.176 -17.267 -12.907 -17.139 -12.748 C -17.01 -12.585 -16.186 -12.751 -16.186 -12.939 Z M -18.608 -6.736 C -18.608 -6.757 -18.751 -6.931 -18.925 -7.121 C -19.558 -7.81 -19.891 -8.512 -19.983 -9.351 C -20.013 -9.611 -20.063 -9.842 -20.097 -9.863 C -20.129 -9.884 -20.248 -9.71 -20.358 -9.475 C -20.878 -8.428 -20.486 -7.049 -19.301 -6.46 C -19.052 -6.489 -18.812 -6.59 -18.608 -6.736 Z" style="fill:#000099;strokeWidth:0"/>
</svg>