<?xml version="1.0" encoding="utf-8"?>
<svg width="30%" viewBox="-31 -31 62 68" xmlns="http://www.w3.org/2000/svg">
  <path d="M 11.765 -11.754 L 11.751 -11.754 L 13.986 12 L 5 12 L 5 0 C 5 -3.314 2.761 -6 0 -6 C -2.761 -6 -5 -3.314 -5 0 L -5 12 L -13.986 12 L -11.751 -11.754 L -11.765 -11.754 L -14 -14.672 L -14 -19.244 C -14 -19.659 -13.651 -20 -13.228 -20 L -10.999 -20 C -10.575 -20 -10.226 -19.659 -10.226 -19.244 L -10.226 -17.055 L -7.971 -17.055 L -7.971 -19.244 C -7.971 -19.659 -7.622 -20 -7.198 -20 L -4.949 -20 C -4.525 -20 -4.176 -19.659 -4.176 -19.244 L -4.176 -17.055 L -1.92 -17.055 L -1.927 -19.244 C -1.927 -19.444 -1.846 -19.638 -1.702 -19.779 C -1.558 -19.919 -1.36 -20 -1.155 -20 L 1.108 -20 C 1.531 -20 1.873 -19.671 1.88 -19.257 L 1.908 -17.055 L 4.163 -17.055 L 4.163 -19.244 C 4.163 -19.659 4.512 -20 4.936 -20 L 7.185 -20 C 7.609 -20 7.957 -19.659 7.957 -19.244 L 7.957 -17.055 L 10.213 -17.055 L 10.213 -19.244 C 10.213 -19.659 10.562 -20 10.986 -20 L 13.228 -20 C 13.651 -20 14 -19.659 14 -19.244 L 14 -14.672 Z" style="fill:#000099;strokeWidth:0"/>
</svg>