<?xml version="1.0" encoding="utf-8"?>
<svg width="30%" viewBox="-31 -31 62 68" xmlns="http://www.w3.org/2000/svg">
  <path d="M 17.967 -1.499 C 20.404 -1.499 21.118 0.35 21.881 0.35 C 22.641 0.35 20.204 3.681 15.785 3.681 C 13.195 3.681 11.62 2.275 11.164 0.716 C 8.625 2.38 4.766 3.889 0.956 3.889 C -9.453 3.889 -12.094 -0.744 -15.347 -2.248 C -17.836 -3.393 -21.644 -1.155 -26.978 -7.241 C -26.266 -7.084 -25.3 -7.033 -24.539 -7.033 C -19.869 -7.033 -17.38 -9.369 -17.38 -13.118 C -17.38 -13.588 -17.431 -14.102 -17.482 -14.569 C -16.059 -13.997 -12.806 -11.504 -12.044 -7.084 C -11.944 -6.563 -9.863 -6.096 -8.542 -6.096 C -6.712 -6.096 -4.376 -6.878 -4.021 -9.943 C 2.074 -10.462 6.19 -14.153 7.054 -18.84 C 9.234 -18.111 11.724 -16.083 12.333 -15.039 C 13.197 -15.351 14.211 -15.508 15.378 -15.508 C 17.004 -15.508 18.834 -15.195 21.016 -14.518 C 21.118 -15.195 21.219 -16.027 22.237 -16.027 C 23.759 -16.027 23.353 -14.31 23.862 -13.327 C 24.116 -12.806 25.388 -12.495 25.388 -11.453 C 25.388 -10.462 24.57 -10.097 24.064 -10.097 C 23.86 -10.097 23.606 -10.149 23.452 -10.2 C 22.439 -9.836 22.366 -2.756 18.121 -2.351 C 13.987 -1.956 10.121 -8.114 9.26 -10.972 C 9.026 -11.75 10.942 -6.678 11.484 -5.951 C 14.23 -2.27 15.123 -1.499 17.967 -1.499 Z M 14.872 -9.836 C 14.872 -8.691 15.786 -7.754 16.905 -7.754 C 18.023 -7.754 18.937 -8.691 18.937 -9.836 C 18.937 -10.983 18.023 -11.92 16.905 -11.92 C 15.786 -11.92 14.872 -10.983 14.872 -9.836 Z" style="fill:#000099;strokeWidth:0"/>
</svg>