<?xml version="1.0" encoding="utf-8"?>
<svg width="30%" viewBox="-31 -31 62 68" xmlns="http://www.w3.org/2000/svg">
  <path d="M 6.615 -18.318 C 6.675 -17.398 6.755 -16.849 6.453 -15.877 C 6.152 -14.905 5.762 -14.377 4.711 -14.371 C 0.645 -14.352 4.862 -17.316 2.796 -17.363 C 2.091 -17.378 1.981 -17.043 1.904 -14.728 C 1.839 -12.721 1.861 -10.497 1.884 -8.206 C 4.223 -8.192 6.531 -8.217 8.52 -8.438 C 10.935 -8.704 11.994 -10.472 11.59 -12.162 C 11.58 -12.205 11.564 -12.245 11.539 -12.278 C 11.061 -12.876 8.216 -11.86 7.446 -11.612 C 7.476 -12.632 9.87 -15.353 11.802 -15.24 C 13.735 -15.127 15.82 -12.611 15.176 -10.946 C 14.531 -9.278 12.879 -9.149 12.876 -8.63 C 12.876 -8.555 12.906 -8.488 12.957 -8.438 C 13.31 -8.117 14.634 -8.248 15.53 -8.216 C 16.29 -8.188 16.092 -9.305 17.435 -9.248 C 18.934 -9.184 19.723 -6.97 21.366 -6.623 C 19.723 -6.277 18.934 -4.053 17.435 -3.989 C 16.092 -3.932 16.29 -5.049 15.53 -5.022 C 14.487 -4.984 12.873 -5.174 12.876 -4.606 C 12.879 -4.088 14.531 -3.96 15.176 -2.291 C 15.82 -0.626 13.735 1.89 11.802 2.003 C 9.87 2.117 7.476 -0.606 7.446 -1.625 C 8.216 -1.377 11.061 -0.361 11.539 -0.96 C 11.551 -0.974 11.561 -1 11.569 -1.017 C 11.577 -1.035 11.585 -1.056 11.59 -1.075 C 11.994 -2.766 10.935 -4.533 8.52 -4.8 C 6.241 -5.051 3.549 -5.046 1.844 -5.022 C 1.805 -4.568 1.768 -4.766 1.803 -3.198 C 1.83 -1.993 4.096 0.255 5.299 0.276 C 5.238 0.858 0.36 28.34 0.172 28.769 C -0.017 28.34 -4.995 0.858 -5.056 0.276 C -3.853 0.255 -1.587 -1.993 -1.561 -3.198 C -1.525 -4.775 -1.572 -4.567 -1.611 -5.032 C -4.421 -5.041 -6.614 -5.01 -8.52 -4.8 C -10.935 -4.533 -11.994 -2.766 -11.59 -1.075 C -11.58 -1.033 -11.564 -0.992 -11.539 -0.96 C -11.521 -0.937 -11.492 -0.91 -11.468 -0.892 C -10.831 -0.443 -8.184 -1.387 -7.446 -1.625 C -7.476 -0.606 -9.87 2.117 -11.802 2.003 C -13.735 1.89 -15.819 -0.626 -15.176 -2.291 C -14.531 -3.96 -12.88 -4.088 -12.876 -4.606 C -12.873 -5.174 -14.497 -4.984 -15.541 -5.022 C -16.3 -5.049 -16.092 -3.932 -17.435 -3.989 C -18.934 -4.053 -19.724 -6.277 -21.366 -6.623 C -19.724 -6.97 -18.934 -9.184 -17.435 -9.248 C -16.092 -9.305 -16.3 -8.188 -15.541 -8.216 C -14.497 -8.253 -12.873 -8.063 -12.876 -8.63 C -12.88 -9.149 -14.531 -9.278 -15.176 -10.946 C -15.819 -12.611 -13.735 -15.127 -11.802 -15.24 C -9.87 -15.353 -7.476 -12.632 -7.446 -11.612 C -8.184 -11.85 -10.831 -12.794 -11.468 -12.346 C -11.492 -12.328 -11.521 -12.3 -11.539 -12.278 C -11.564 -12.245 -11.58 -12.205 -11.59 -12.162 C -11.994 -10.472 -10.935 -8.704 -8.52 -8.438 C -6.461 -8.21 -4.064 -8.199 -1.641 -8.216 C -1.618 -10.503 -1.606 -12.724 -1.671 -14.728 C -1.727 -16.392 -1.8 -17.036 -2.097 -17.256 C -2.212 -17.337 -2.36 -17.367 -2.553 -17.363 C -4.619 -17.316 -0.412 -14.352 -4.478 -14.371 C -5.53 -14.377 -5.919 -14.905 -6.22 -15.877 C -6.522 -16.849 -6.432 -17.398 -6.373 -18.318 C -6.253 -20.159 -0.175 -24.945 0.121 -26.51 C 0.418 -24.945 6.496 -20.159 6.615 -18.318 Z" style="fill:#000099;strokeWidth:0"/>
</svg>