<?xml version="1.0" encoding="utf-8"?>
<svg width="30%" viewBox="-31 -31 62 68" xmlns="http://www.w3.org/2000/svg">
  <path d="M -25.713 -9.931 C -25.616 -9.939 -25.546 -9.834 -25.551 -9.723 C -25.604 -8.6 -25.425 -3.354 -16.762 -9.153 C -7.123 -15.605 -1.624 -13.641 0.415 -12.028 C 2.079 -10.712 3.454 -11.263 3.905 -11.511 C 3.993 -11.56 4.003 -11.672 3.959 -11.771 C 3.891 -11.928 3.846 -12.181 4.061 -12.467 C 4.416 -12.94 3.165 -13.992 4.88 -13.992 C 6.594 -13.992 4.23 -14.675 3.165 -13.992 C 2.099 -13.308 4.602 -16.072 7.289 -14.296 C 9.977 -12.519 9.93 -15.57 8.448 -15.202 C 6.965 -14.834 9.328 -16.096 10.533 -15.99 C 11.738 -15.885 9.143 -17.148 12.525 -16.517 C 15.909 -15.885 16.789 -15.872 15.677 -16.694 C 14.564 -17.516 17.948 -16.412 18.457 -14.571 C 18.967 -12.73 22.535 -11.871 23.092 -11.721 C 23.647 -11.572 23.092 -10.521 22.859 -10.31 C 22.641 -10.112 23.08 -8.749 22.282 -8.283 C 22.194 -8.232 22.147 -8.122 22.177 -8.017 C 22.371 -7.354 22.852 -5.233 20.727 -6.261 C 18.225 -7.47 18.178 -5.998 17.762 -5.419 C 17.345 -4.84 16.139 -4.051 15.213 -3.946 C 14.312 -3.844 15.253 -2.247 13.382 -1.241 C 13.294 -1.193 13.283 -1.216 13.34 -1.307 C 13.423 -1.442 13.519 -1.671 13.513 -2.01 C 13.511 -2.121 13.488 -2.303 13.436 -2.397 C 13.101 -3.001 11.627 -3.171 11.923 -1.158 C 12.247 1.051 10.95 -2.578 9.189 0.42 C 7.427 3.418 7.289 -0.369 5.667 2.366 C 4.079 5.044 3.424 5.856 0.745 5.396 C 0.647 5.379 0.519 5.434 0.465 5.527 C 0.283 5.84 -0.036 6.545 0.384 7.1 C 0.94 7.836 1.936 7.836 1.682 8.441 C 1.51 8.846 1.163 8.885 0.953 8.867 C 0.855 8.859 0.71 8.883 0.624 8.938 C 0.312 9.137 -0.402 9.543 -0.775 9.362 C -1.261 9.125 -2.605 8.467 -2.744 7.968 C -2.883 7.468 -2.374 7.599 -2.304 6.968 C -2.241 6.395 -2.369 4.929 -2.132 4.253 C -2.096 4.149 -2.065 4.065 -2.084 4.052 C -2.104 4.039 -2.12 4.028 -2.12 4.028 C -2.325 3.911 -3.035 3.616 -5 3.627 C -5.098 3.627 -5.234 3.565 -5.304 3.487 C -7.349 1.246 -9.914 0.293 -9.255 -0.737 C -8.595 -1.771 -7.353 -4.15 -9.926 -6.478 C -10.002 -6.548 -10.137 -6.644 -10.216 -6.709 C -10.456 -6.904 -10.879 -7.368 -10.692 -8.101 C -10.437 -9.1 -11.179 -10.626 -12.916 -8.863 C -14.654 -7.101 -21.419 -4.34 -24.385 -4.839 C -27.239 -5.321 -27.161 -9.81 -25.713 -9.931 Z M -1.748 -2.894 C -1.748 -2.894 -1.424 -2.262 -1.377 -1.579 C -1.331 -0.895 0.453 -0.053 0.685 -0.106 C 0.917 -0.158 1.658 -0.763 0.685 -1.158 C -0.289 -1.552 -1.285 -2.472 -1.748 -2.894 Z M -5.687 0.035 C -5.687 0.035 -4.93 1.666 -3.077 1.578 C -1.223 1.49 -1.131 3.086 -1.131 3.086 C -1.131 3.086 -0.821 2.419 -0.482 2.051 C -0.482 2.051 -1.764 0.789 -3.185 0.982 C -4.606 1.174 -5.008 -0.526 -4.776 -0.999 C -4.544 -1.473 -4.699 -2.648 -4.699 -2.648 C -4.699 -2.648 -5.131 -2.314 -5.317 -1.736 C -5.501 -1.158 -5.687 0.035 -5.687 0.035 Z" style="fill:#000099;strokeWidth:0"/>
</svg>