<?xml version="1.0" encoding="utf-8"?>
<svg width="30%" viewBox="-31 -31 62 68" xmlns="http://www.w3.org/2000/svg">
  <path d="M -14.785 12.499 C -21.355 15.091 -15.483 17.285 -16.102 18.022 C -16.72 18.757 -20.618 17.114 -20.618 14.831 C -20.618 9.732 -15.454 12.248 -10.414 6.119 C -8.912 4.292 -9.054 -1.612 -5.22 -6.642 C -1.387 -11.673 3.93 -12.165 7.021 -12.656 C 10.112 -13.147 8.417 -16.406 7.639 -18.913 C 7.145 -20.509 6.883 -22.754 7.717 -23.04 C 8.558 -23.327 10.411 -21.315 12.585 -21.49 C 14.764 -21.666 15.295 -24.114 16.696 -24.171 C 17.889 -24.22 17.926 -23.005 18.041 -21.866 C 18.202 -20.26 18.418 -19.195 18.695 -17.867 C 19.095 -15.944 17.037 -16.079 17.037 -13.76 C 17.037 -12.005 17.72 -11.673 17.72 -9.22 C 17.72 -4.315 12.585 -5.557 12.585 3.174 C 12.585 9.556 17.084 8.749 15.429 11.395 C 14.319 13.171 9.742 8.818 9.742 6.119 C 9.742 3.741 8.488 3.683 7.438 3.683 C 6.252 3.683 4.115 7.468 3.59 9.033 C 6.879 9.033 7.021 9.424 7.021 11.395 L -6.952 11.395 C -8.671 9.833 -9.172 10.285 -14.785 12.499 Z" style="fill:#000099;strokeWidth:0"/>
</svg>