<?xml version="1.0" encoding="utf-8"?>
<svg width="30%" viewBox="-31 -31 62 68" xmlns="http://www.w3.org/2000/svg">
  <path d="M -16.186 -22.319 C -15.695 -21.996 -14.79 -20.319 -14.827 -19.819 C -14.834 -19.73 -14.76 -19.616 -14.664 -19.55 C -14.479 -19.427 -14.414 -19.936 -14.325 -19.89 C -14.254 -19.855 -14.18 -19.869 -14.148 -19.936 C -14.125 -19.993 -14.016 -19.857 -13.894 -19.64 C -13.652 -19.188 -13.595 -19.213 -13.789 -19.692 C -13.85 -19.864 -13.893 -20.025 -13.864 -20.043 C -13.844 -20.061 -13.596 -19.815 -13.307 -19.488 C -13.019 -19.16 -12.776 -18.965 -12.771 -19.033 C -12.765 -19.112 -12.803 -19.223 -12.845 -19.276 C -12.895 -19.339 -12.676 -20.158 -12.58 -20.115 C -11.987 -19.85 -2.242 -13.866 -0.364 -13.785 C 2.167 -13.685 5.091 -13.694 6.185 -13.81 C 6.639 -13.855 7.587 -14.002 8.287 -14.137 C 9.873 -14.443 11.092 -14.51 12.313 -14.36 C 13.251 -14.24 13.269 -14.239 14.332 -13.567 C 15.588 -12.783 16.304 -12.157 16.825 -11.368 C 17.18 -10.837 17.81 -9.655 17.768 -9.599 C 17.75 -9.59 17.827 -9.397 17.931 -9.182 C 18.043 -8.966 18.131 -8.663 18.13 -8.525 C 18.139 -8.149 18.235 -7.599 18.336 -7.345 C 18.453 -7.069 18.447 -6.981 18.333 -7.068 C 18.212 -7.166 18.214 -7.067 18.38 -6.591 C 18.57 -6.044 18.648 -5.495 18.509 -5.722 C 18.435 -5.846 18.425 -5.827 18.465 -5.627 C 18.648 -4.626 18.695 -4.277 18.719 -3.485 C 18.738 -3 18.748 -2.397 18.739 -2.151 C 18.73 -1.905 18.787 -1.555 18.856 -1.372 C 18.934 -1.188 18.955 -0.604 19.06 -0.3 C 19.181 0.055 19.203 0.254 19.137 0.279 C 19.062 0.292 19.056 0.499 19.101 1.006 C 19.171 1.663 19.103 2.33 18.898 2.986 C 18.826 3.207 18.826 3.207 18.695 2.872 C 18.627 2.679 18.534 2.435 18.478 2.323 C 18.432 2.21 18.333 1.936 18.266 1.714 C 18.177 1.431 18.127 1.358 18.091 1.474 C 18.043 1.619 17.642 0.947 17.635 0.552 C 17.622 0.245 17.592 -0.103 17.573 -0.213 C 17.531 -0.394 17.522 -0.395 17.441 -0.174 C 17.383 0 17.396 -1.174 17.355 -1.365 C 17.324 -1.554 17.281 -2.091 17.269 -2.556 C 17.258 -3.021 16.935 -4.852 16.971 -5.589 C 17.049 -7.133 17.049 -7.124 16.878 -6.682 C 15.943 -4.254 15.771 -3.546 15.769 -2.164 C 15.769 -0.693 15.851 -0.312 16.422 0.906 C 17.152 2.471 17.124 2.222 16.932 4.923 C 16.811 6.671 16.788 7.587 16.846 8.293 C 16.932 9.247 16.929 9.276 16.681 9.89 C 16.465 10.457 16.447 10.574 16.511 11.062 C 16.575 11.57 16.57 11.639 16.373 11.931 C 16.084 12.353 15.581 12.562 15.065 12.455 C 14.467 12.341 14.436 12.26 14.726 11.452 C 14.888 11.01 15.001 10.475 15.035 10.014 C 15.065 9.611 15.149 9.104 15.211 8.891 C 15.335 8.456 15.366 6.563 15.26 5.143 C 15.208 4.488 15.104 4.036 14.873 3.436 C 14.695 2.988 14.515 2.57 14.472 2.518 C 14.413 2.444 14.368 2.925 14.326 3.988 C 14.289 4.854 14.224 6.222 14.174 7.017 L 14.092 8.482 L 13.821 8.659 C 13.453 8.909 13.25 9.288 13.211 9.819 C 13.182 10.201 13.139 10.287 12.817 10.53 C 12.515 10.764 12.374 10.803 11.981 10.774 C 11.551 10.742 10.95 10.539 10.959 10.431 C 10.96 10.411 11.073 10.252 11.204 10.094 C 11.336 9.926 11.647 9.455 11.899 9.04 C 12.297 8.388 12.377 8.177 12.473 7.503 C 12.542 7.074 12.668 6.372 12.764 5.945 C 12.987 4.925 12.987 3.947 12.762 3.131 C 12.67 2.769 12.499 1.858 12.39 1.099 L 12.198 -0.278 L 11.696 -0.7 C 11.42 -0.938 11.021 -1.382 10.814 -1.694 C 10.366 -2.339 10.266 -2.356 9.466 -1.863 C 8.503 -1.274 6.35 -0.516 5.019 -0.309 C 4.778 -0.278 3.968 -0.259 3.225 -0.285 C 2.059 -0.313 1.75 -0.356 0.941 -0.604 C -0.256 -0.959 -1.307 -1.038 -2.085 -0.839 C -2.404 -0.754 -2.85 -0.699 -3.06 -0.714 L -3.453 -0.744 L -3.656 0.495 C -3.894 1.958 -4.05 3.684 -4.174 6.212 L -4.264 8.032 L -4.56 8.425 C -4.816 8.781 -4.84 8.858 -4.769 9.14 C -4.621 9.743 -4.71 10.073 -5.083 10.381 C -5.278 10.534 -5.49 10.656 -5.563 10.651 C -5.645 10.645 -5.707 10.739 -5.718 10.886 C -5.728 11.024 -5.846 11.242 -5.984 11.37 C -6.231 11.599 -6.277 11.605 -7.097 11.505 C -7.599 11.447 -7.997 11.358 -8.055 11.285 C -8.131 11.19 -7.999 10.904 -7.455 10.016 C -6.816 8.968 -6.738 8.796 -6.645 8.161 C -6.586 7.731 -6.573 7.071 -6.617 6.426 C -6.663 5.81 -6.655 4.349 -6.582 2.874 C -6.481 0.532 -6.482 0.295 -6.659 -0.657 C -6.849 -1.678 -6.849 -1.678 -7.213 -1.863 C -7.825 -2.165 -8.322 -2.893 -8.778 -4.172 C -9.136 -5.166 -9.29 -5.444 -9.928 -6.271 C -10.732 -7.318 -11.338 -7.946 -12.359 -8.802 C -13.346 -9.626 -13.382 -9.639 -13.97 -9.278 C -14.24 -9.11 -14.661 -8.766 -14.901 -8.508 C -15.149 -8.26 -15.578 -7.936 -15.855 -7.799 C -16.486 -7.47 -16.636 -7.304 -16.803 -6.803 C -16.967 -6.322 -17.46 -5.884 -17.923 -5.83 C -18.146 -5.798 -18.462 -5.881 -18.97 -6.096 C -19.657 -6.384 -19.716 -6.448 -19.941 -6.889 C -20.069 -7.145 -20.166 -7.439 -20.159 -7.537 C -20.153 -7.625 -20.223 -7.917 -20.315 -8.161 L -20.484 -8.618 L -20.019 -9.797 C -19.474 -11.179 -19.25 -12.218 -19.166 -13.713 L -19.112 -14.795 L -18.286 -16.253 C -17.831 -17.059 -17.495 -17.744 -17.529 -17.786 C -17.562 -17.828 -17.738 -17.93 -17.917 -18.003 C -18.595 -18.29 -19.164 -19.034 -20.407 -21.23 C -20.878 -22.074 -20.548 -22.425 -20.029 -21.616 C -19.881 -21.378 -19.616 -21.111 -19.439 -21.019 C -19.262 -20.927 -18.742 -20.621 -18.275 -20.35 C -17.341 -19.797 -17.234 -19.759 -17.399 -20.018 C -17.506 -20.174 -17.497 -20.174 -17.296 -20.04 L -17.076 -19.895 L -17.268 -20.157 C -17.535 -20.532 -17.485 -20.578 -17.09 -20.321 C -16.906 -20.199 -16.721 -20.096 -16.693 -20.094 C -16.675 -20.093 -16.802 -20.487 -16.995 -20.986 C -17.188 -21.474 -17.348 -22.039 -17.369 -22.248 L -17.397 -22.615 L -16.958 -22.582 C -16.692 -22.554 -16.369 -22.452 -16.186 -22.319 Z" style="fill:#000099;strokeWidth:0"/>
  <g transform="matrix(-0.042132, -0.003142, -0.003374, 0.045241, 21.599974, -25.770643)">
    <g transform="translate(0.000000,511.000000) scale(0.100000,-0.100000)"/>
  </g>
</svg>