<?xml version="1.0" encoding="utf-8"?>
<svg width="30%" viewBox="-31 -31 62 68" xmlns="http://www.w3.org/2000/svg">
  <path d="M -11.692 7.767 C -3.645 12.424 13.112 12.185 18.741 7.243 C 15.667 5.987 11.192 6.043 7.483 8.122 C 10.356 1.714 11.67 -11.137 7.33 -17.215 C 12.37 -11.819 16.292 -5.915 19.035 6.97 C 19.124 6.884 19.209 6.795 19.291 6.706 C 19.226 6.916 19.166 7.122 19.11 7.324 C 19.116 7.353 19.122 7.382 19.128 7.411 C 19.116 7.405 19.103 7.4 19.091 7.394 C 18.627 9.077 18.385 10.508 17.087 12.22 C 14.835 11.075 13.751 12.933 7.362 14.496 C 0.972 16.059 -4.335 11.262 -10.567 11.806 Z M 5.392 6.356 C -2.063 6.118 -12.723 1.93 -23.677 1.941 C -5.911 -4.948 2.179 -14.703 3.56 -25.86 L 5.951 -15.705 Z M 4.178 -25.45 L 6.302 -18.864 C 6.396 -18.569 6.066 -18.376 5.891 -18.709 L 3.812 -25.713 C 3.721 -26.022 3.983 -25.873 4.178 -25.45 Z M 6.812 -19.888 L 7.009 9.746 C 6.999 9.994 6.337 10.209 6.303 9.878 L 6.499 -19.944 C 6.505 -20.19 6.783 -20.225 6.812 -19.888 Z M -23.784 2.084 L 5.668 6.914 C 5.93 6.974 6.053 7.623 5.696 7.59 L -23.424 2.404 C -23.851 2.3 -24.123 2.044 -23.784 2.084 Z" style="fill:#000099;strokeWidth:0"/>
</svg>