<?xml version="1.0" encoding="utf-8"?>
<svg width="30%" viewBox="-31 -31 62 68" xmlns="http://www.w3.org/2000/svg">
  <path d="M -5.233 18.309 C -5.233 18.309 -5.267 17.96 -5.299 17.834 C -2.24 16.218 -1.708 14.635 -1.508 14.381 C -1.508 14.381 -2.073 14.032 -2.606 13.684 C -4.967 17.137 -6.131 17.105 -6.996 17.453 C -6.83 17.96 -6.763 19.196 -6.763 19.196 L -10.355 16.123 C -10.355 16.123 -9.224 14.697 -8.126 13.494 C -5.964 13.113 -5.765 12.543 -5.1 11.815 C -5.1 11.815 -5.267 11.403 -5.333 10.96 C -2.606 7.95 -3.237 6.588 -3.237 6.588 L -4.834 7.475 L -5.299 6.905 L -9.091 9.027 L -6.497 10.295 L -7.827 12.733 L -8.027 12.67 L -8.126 11.467 L -10.654 10.199 L -10.654 13.652 L -9.624 14.222 L -9.59 14.444 L -12.451 14.729 L -12.184 11.024 L -12.417 10.832 L -14.313 12.036 L -14.546 13.272 L -14.812 13.335 L -16.176 11.054 L -16.142 10.77 L -13.215 9.217 L -15.543 8.679 L -16.374 9.376 L -16.807 9.376 L -16.042 6.81 L -11.12 8.014 L -8.625 6.398 L -9.423 5.891 L -3.371 0.474 L -3.903 -3.548 L -4.103 -3.548 L -4.568 0.348 L -8.991 3.864 L -6.962 -3.802 L -7.76 -3.992 L -10.321 5.1 L -14.845 5.923 L -9.723 -5.164 L -10.056 -5.417 L -16.308 5.511 L -19.999 3.325 L -11.619 -7.413 L -11.952 -7.794 L -20.15 1.171 L -20.15 -4.214 L -12.683 -10.455 L -12.683 -10.74 L -20.15 -5.417 L -20.15 -9.472 L -12.683 -13.527 L -12.683 -13.749 L -20.15 -10.518 L -20.15 -14.462 L -12.417 -16.22 L -12.417 -16.504 L -20.15 -15.27 L -20.15 -19.213 L -11.818 -18.785 C -11.818 -18.785 -11.818 -19.071 -11.669 -19.641 C -8.425 -19.736 -7.478 -16.79 -7.478 -16.79 C -7.478 -16.79 -7.528 -12.799 -7.478 -11.326 C -7.428 -9.853 -4.385 -9.14 -4.385 -9.14 L -3.67 -10.55 L -2.838 -10.359 L -2.539 -12.45 L -3.836 -12.45 L -2.838 -14.066 L -2.805 -14.446 L -3.903 -15.08 L -2.073 -17.582 L -4.135 -20.053 L -2.405 -20.053 L -2.405 -20.243 L 2.616 -20.243 C 2.616 -20.243 3.382 -19.451 3.647 -19.356 C 3.913 -19.356 4.446 -19.704 4.978 -19.704 C 5.509 -19.704 6.175 -19.198 6.142 -18.533 C 6.109 -17.867 5.777 -16.03 5.777 -16.03 L 6.806 -16.093 C 6.806 -16.093 6.806 -15.808 6.806 -15.618 C 4.213 -15.396 4.18 -14.985 4.18 -14.985 C 4.18 -14.985 4.644 -15.08 5.111 -15.142 C 5.476 -13.274 3.714 -13.368 3.382 -13.368 C 4.446 -12.007 5.011 -10.011 5.011 -10.011 L 5.809 -9.853 L 6.009 -9.378 C 6.009 -9.378 8.27 -9.853 8.32 -11.326 C 8.37 -12.799 8.32 -16.79 8.32 -16.79 C 8.32 -16.79 9.267 -19.736 12.511 -19.641 C 12.66 -19.071 12.66 -18.785 12.66 -18.785 L 20.992 -19.213 L 20.992 -15.27 L 13.259 -16.504 L 13.259 -16.22 L 20.992 -14.462 L 20.992 -10.518 L 13.526 -13.749 L 13.526 -13.527 L 20.992 -9.472 L 20.992 -5.417 L 13.526 -10.74 L 13.526 -10.455 L 20.992 -4.214 L 20.992 1.171 L 12.794 -7.794 L 12.461 -7.413 L 20.842 3.325 L 17.151 5.511 L 10.898 -5.417 L 10.566 -5.164 L 15.688 5.923 L 11.164 5.1 L 8.603 -3.992 L 7.805 -3.802 L 9.834 3.864 L 5.41 0.348 L 4.945 -3.548 L 4.745 -3.548 L 4.213 0.474 L 10.266 5.891 L 9.468 6.398 L 11.962 8.014 L 16.884 6.81 L 17.65 9.376 L 17.217 9.376 L 16.385 8.679 L 14.057 9.217 L 16.984 10.77 L 17.018 11.054 L 15.654 13.335 L 15.388 13.272 L 15.155 12.036 L 13.259 10.832 L 13.027 11.024 L 13.293 14.729 L 10.432 14.444 L 10.466 14.222 L 11.496 13.652 L 11.496 10.199 L 8.969 11.467 L 8.869 12.67 L 8.67 12.733 L 7.339 10.295 L 9.933 9.027 L 6.142 6.905 L 5.676 7.475 L 4.079 6.588 C 4.079 6.588 3.448 7.95 6.175 10.96 C 6.109 11.403 5.942 11.815 5.942 11.815 C 6.607 12.543 6.806 13.113 8.969 13.494 C 10.066 14.697 11.197 16.123 11.197 16.123 L 7.605 19.196 C 7.605 19.196 7.672 17.96 7.838 17.453 C 6.973 17.105 5.809 17.137 3.448 13.684 C 2.915 14.032 2.35 14.381 2.35 14.381 C 2.55 14.635 3.082 16.218 6.142 17.834 C 6.109 17.96 6.075 18.309 6.075 18.309 C 6.075 18.309 1.918 17.453 0.421 21.286 C -1.076 17.453 -5.233 18.309 -5.233 18.309 Z M 4.745 -19.167 C 3.123 -19.213 0.928 -16.861 0.953 -15.142 C 0.969 -14.098 1.319 -13.876 1.884 -13.876 C 2.45 -13.876 3.049 -13.812 3.548 -13.812 C 4.047 -13.812 4.778 -14.129 4.778 -14.383 C 4.778 -14.636 4.678 -14.604 4.345 -14.604 C 4.013 -14.604 3.714 -14.366 3.348 -14.366 C 2.982 -14.366 2.65 -14.486 2.65 -14.89 C 3.082 -16.346 4.013 -17.424 4.412 -17.392 C 4.811 -17.361 5.344 -16.394 5.344 -16.394 C 6.275 -19.15 5.143 -19.071 4.745 -19.167 Z M 8.57 6.493 L 7.14 6.493 L 6.574 6.652 L 10.566 8.995 L 7.871 10.453 L 8.27 11.371 L 8.437 11.371 L 8.57 11.086 L 11.796 9.502 L 11.995 14.254 L 12.826 14.286 L 12.694 10.294 L 15.521 11.815 L 15.554 12.1 L 15.688 12.227 L 16.385 10.96 L 12.96 9.027 L 16.618 8.204 L 16.752 8.457 L 16.95 8.362 L 16.452 7.221 L 11.829 8.425 Z M -10.987 8.425 L -15.609 7.221 L -16.108 8.362 L -15.91 8.457 L -15.776 8.204 L -12.118 9.027 L -15.543 10.96 L -14.845 12.227 L -14.711 12.1 L -14.679 11.815 L -11.852 10.294 L -11.984 14.286 L -11.153 14.254 L -10.954 9.502 L -7.728 11.086 L -7.594 11.371 L -7.428 11.371 L -7.029 10.453 L -9.723 8.995 L -5.732 6.652 L -6.297 6.493 L -7.728 6.493 Z M 0.334 -17.158 C 0.799 -17.571 0.841 -18.283 0.428 -18.747 C 0.015 -19.212 -0.697 -19.254 -1.162 -18.841 C -1.627 -18.428 -1.669 -17.716 -1.255 -17.251 C -0.842 -16.786 -0.131 -16.745 0.334 -17.158 Z" style="fill:#000099;strokeWidth:0"/>
</svg>