<?xml version="1.0" encoding="utf-8"?>
<svg width="30%" viewBox="-31 -31 62 68" xmlns="http://www.w3.org/2000/svg">
  <path d="M 5.021 -5.372 C 5.989 -2.727 7.066 -1.627 9.514 1.663 C 11.024 3.693 12.901 6.463 14.318 8.125 C 15.736 9.787 16.325 8.634 17.08 7.516 C 17.835 6.399 17.579 6.246 17.644 3.749 C 17.71 1.252 13.542 -1.684 12.14 -5.445 C 10.824 -8.976 11.447 -11.171 13.773 -13.237 L 18.597 -17.521 C 20.494 -19.206 20.231 -20.051 19.492 -20.734 C 18.753 -21.418 14.979 -19.885 14.979 -19.885 C 14.979 -19.885 16.042 -18.198 14.552 -18.186 C 12.811 -18.172 10.579 -16.766 10.528 -16.335 C 10.081 -18.201 10.928 -19.047 11.984 -20.697 C 12.906 -22.137 14.435 -20.623 14.435 -20.623 C 16.031 -21.449 17.953 -22.189 20.27 -21.547 C 20.27 -21.547 22.681 -19.251 19.648 -16.672 C 15.606 -13.236 11.933 -11.124 12.917 -6.665 C 13.69 -8.547 15.279 -9.81 17.08 -10.911 C 15.35 -8.807 14.118 -6.612 14.552 -4.116 C 14.712 -4.973 15.882 -5.67 17.275 -6.332 C 17.275 -6.332 16.088 -5.593 15.874 -4.485 C 15.66 -3.377 15.913 -2.344 15.913 -2.344 C 16.846 -3.798 17.918 -3.808 18.947 -4.264 C 17.869 -3.171 16.887 -2.051 17.236 -0.571 C 17.236 -0.571 18.83 2.236 18.928 4.544 C 19.025 6.852 17.625 8.661 17.625 8.661 C 17.625 8.661 15.521 11.594 13.968 9.769 C 12.747 8.334 9.16 4.144 8.911 4.23 C 8.475 4.734 8.183 5.328 8.366 6.224 C 8.998 7.127 9.616 8.031 9.689 9.03 C 9.374 9.395 10.295 12.329 11.245 12.945 C 12.421 13.708 11.089 14.274 11.089 14.274 C 11.089 14.274 10.37 14.237 10.058 14.477 C 9.747 14.717 10.018 14.672 9.844 15.235 C 9.674 15.788 7.968 18.186 5.499 19.703 C 5.362 19.787 5.191 19.67 5.191 19.67 C 4.53 19.6 5.113 20.079 4.714 20.405 C 4.65 20.457 4.548 20.497 4.423 20.53 C 4.417 20.626 4.378 20.734 4.282 20.847 C 3.961 21.226 2.998 21.66 2.998 21.66 C 3.38 21.163 3.503 20.838 3.478 20.611 C 3.238 20.605 3.015 20.581 2.86 20.544 C 2.756 20.519 2.949 19.997 2.79 20.025 L 2.109 20.149 C 2.104 20.148 2.064 20.247 1.935 20.418 C 1.848 20.531 1.731 20.577 1.603 20.575 C 1.44 20.706 1.219 20.866 0.936 21.032 C 0.246 21.438 -1.203 21.069 -1.203 21.069 C -0.286 20.71 0.548 20.694 0.79 20.086 C 0.746 20.025 0.715 19.965 0.701 19.911 C 0.64 19.679 0.734 19.717 0.878 19.629 L 0.723 19.4 C 0.723 19.4 0.358 19.635 0.261 19.257 C 0.244 19.188 0.228 19.114 0.215 19.037 C -0.7 18.397 -1.833 19.2 -2.876 19.407 C -2.876 19.407 -1.757 18.299 -0.854 18.041 C -0.373 17.904 0.046 18.006 0.335 18.131 C 0.362 18.087 0.393 18.045 0.43 18.006 C 0.742 17.674 1.068 18.358 1.286 18.189 C 1.505 18.019 1.468 17.724 1.304 17.511 C 1.141 17.296 0.889 17.798 0.632 17.333 C 0.494 17.083 0.557 16.671 0.725 16.259 C 0.081 15.541 -1.075 15.634 -2.059 15.456 C -2.059 15.456 -0.192 14.874 0.781 14.865 C 1.19 14.861 1.441 14.959 1.594 15.073 C 1.7 15.001 1.807 14.953 1.909 14.939 C 2.198 14.898 2.181 15.437 2.531 15.604 C 2.881 15.769 3.095 15.918 3.309 15.604 C 4.127 14.401 4.727 13.092 5.643 11.984 C 4.861 11.711 4.178 11.202 3.542 10.581 C 3.067 9.744 3.405 9.487 3.465 9.03 C 2.842 9.112 2.303 9.354 1.973 9.991 C 1.869 10.023 1.561 7.782 1.986 6.371 C 2.017 6.27 2.365 5.96 2.67 5.594 C 2.541 5.748 2.405 5.892 2.288 6.015 C 1.446 5.6 0.524 5.261 -1.067 5.556 C -1.164 7.477 -0.854 9.257 0.364 10.727 C -3.694 10.403 -7.127 10.944 -10.309 11.835 C -10.309 11.835 -9.998 12.437 -10.435 12.568 C -10.583 12.612 -10.725 12.63 -10.866 12.63 C -11.14 13.032 -11.133 13.55 -10.89 14.163 C -10.89 14.163 -11.668 13.212 -11.862 12.723 C -11.929 12.555 -11.927 12.442 -11.896 12.365 C -12.124 12.19 -11.905 11.928 -11.905 11.928 L -13.103 12.137 C -13.103 12.137 -13.257 12.671 -13.556 12.579 C -13.662 12.547 -13.807 12.478 -13.954 12.384 C -14.338 12.677 -14.653 13.229 -14.819 14.348 C -14.819 14.348 -15.033 13.047 -14.896 12.354 C -14.829 12.008 -14.674 11.814 -14.535 11.707 C -14.579 11.338 -14.105 11.247 -14.105 11.247 L -14.27 10.674 C -14.27 10.674 -15.013 10.779 -15.026 10.218 C -15.028 10.17 -15.028 10.12 -15.026 10.068 C -16.089 9.505 -16.867 10.402 -17.853 10.822 C -17.853 10.822 -17.133 9.201 -16.258 8.698 C -15.646 8.346 -14.958 8.54 -14.599 8.689 C -14.521 8.586 -14.43 8.497 -14.325 8.429 C -13.991 8.213 -13.643 8.755 -13.611 8.688 L -13.281 8.429 C -13.281 8.429 -13.635 8.417 -13.88 8.266 L -13.885 8.273 C -13.885 8.27 -13.885 8.267 -13.885 8.263 C -14.065 8.151 -14.184 7.961 -14.053 7.644 C -14.039 7.612 -14.02 7.573 -13.995 7.528 C -14.363 6.616 -15.548 6.107 -16.705 6.113 C -16.705 6.113 -14.984 5.48 -14.002 5.817 C -13.486 5.995 -13.142 6.225 -12.932 6.404 C -12.915 6.395 -12.899 6.387 -12.882 6.379 C -12.332 6.118 -12.475 6.561 -12.125 6.848 L -11.411 7.435 C -10.463 8.214 -8.014 7.631 -7.12 6.496 C -6.225 5.36 -7.999 2.893 -7.999 2.893 C -7.999 2.893 -7.189 1.209 -4.589 0.804 C -4.102 0.728 -3.55 0.697 -2.978 0.697 C -1.421 0.696 0.296 0.923 1.362 1.092 C 1.164 0.465 1.059 -0.197 1.13 -0.885 C -0.135 -2.024 -1.237 -3.022 -2.351 -4.597 C -3.752 -5.039 -5.152 -4.276 -6.553 -2.307 C -6.296 -2.803 -6.388 -3.102 -6.65 -3.304 C -7.87 -2.892 -9.044 -2.283 -10.462 -2.713 C -10.272 -3.1 -10.445 -3.359 -11.084 -3.451 C -11.931 -3.115 -12.692 -2.613 -13.73 -2.639 C -13.518 -3.218 -13.46 -3.755 -14.274 -4.043 C -14.793 -4.079 -15.168 -3.845 -15.48 -3.489 C -15.48 -3.489 -15.383 -2.787 -15.752 -2.787 C -15.863 -2.787 -15.979 -2.806 -16.097 -2.843 C -16.151 -2.784 -16.228 -2.727 -16.336 -2.676 C -16.793 -2.463 -17.917 -2.502 -17.917 -2.502 C -17.402 -2.686 -17.023 -2.97 -16.871 -3.266 C -16.887 -3.278 -16.903 -3.291 -16.919 -3.304 C -17.289 -3.599 -16.841 -3.968 -16.841 -3.968 L -17.503 -4.485 C -17.503 -4.485 -17.697 -3.747 -18.125 -4.079 C -18.221 -4.154 -18.293 -4.238 -18.349 -4.329 C -18.94 -4.251 -19.589 -3.969 -20.421 -3.064 C -20.421 -3.064 -20.455 -3.963 -19.934 -4.577 C -19.583 -4.992 -18.98 -5.276 -18.625 -5.417 C -18.627 -5.426 -18.629 -5.436 -18.631 -5.445 C -18.748 -5.954 -18.008 -5.704 -18.008 -5.704 C -18.008 -5.704 -17.965 -6.203 -18.259 -6.336 C -18.554 -6.47 -18.952 -6.129 -19.059 -6.443 C -19.103 -6.57 -19.123 -6.695 -19.127 -6.818 C -19.884 -6.99 -20.512 -6.42 -21.179 -6.074 C -21.179 -6.074 -20.478 -7.297 -19.758 -7.731 C -19.392 -7.951 -19.021 -7.968 -18.745 -7.931 C -18.707 -7.99 -18.669 -8.048 -18.631 -8.104 C -18.32 -8.566 -17.697 -7.809 -17.697 -7.809 C -17.697 -7.809 -17.411 -8.054 -17.52 -8.282 C -17.629 -8.511 -18.058 -8.649 -17.93 -8.88 C -17.883 -8.968 -17.827 -9.055 -17.763 -9.139 C -18.104 -9.596 -18.72 -10.012 -19.448 -10.412 C -19.448 -10.412 -18.189 -10.283 -17.445 -10.043 C -17.207 -9.967 -17.022 -9.879 -16.88 -9.794 C -16.77 -9.832 -16.654 -9.86 -16.531 -9.877 C -15.849 -9.969 -15.985 -9.175 -15.985 -9.175 C -15.985 -9.175 -14.488 -8.455 -11.785 -8.991 C -10.553 -9.235 -9.038 -9.701 -7.754 -10.137 C -7.769 -10.205 -7.786 -10.276 -7.807 -10.347 C -8.713 -10.875 -10.013 -10.953 -11.273 -11.078 C -10.583 -11.218 -9.939 -11.362 -9.343 -11.513 C -9.237 -11.79 -9.566 -12.027 -9.87 -12.266 C -10.085 -12.605 -10.48 -12.608 -10.915 -12.462 C -10.978 -13.11 -11.473 -13.23 -12.043 -13.259 C -12.17 -14.246 -12.69 -14.19 -13.171 -14.238 C -13.364 -14.742 -13.715 -14.837 -14.037 -14.759 C -14.144 -14.942 -14.433 -14.993 -15.124 -14.759 C -15.124 -14.759 -15.564 -14.042 -16.059 -14.238 C -16.132 -14.266 -16.205 -14.303 -16.276 -14.346 C -17.179 -13.964 -18.23 -13.991 -18.7 -14.551 C -18.7 -14.551 -17.715 -14.332 -17.269 -14.838 C -17.186 -14.933 -17.113 -15.021 -17.051 -15.101 C -17.118 -15.201 -17.174 -15.298 -17.214 -15.386 C -17.393 -15.778 -16.54 -15.7 -16.555 -16.17 C -16.568 -16.64 -16.898 -16.98 -17.27 -17.267 C -17.641 -17.554 -18.177 -17.241 -18.081 -17.92 C -18.081 -17.922 -18.08 -17.926 -18.079 -17.929 C -18.795 -18.199 -19.521 -17.987 -19.855 -17.162 C -19.966 -17.201 -19.808 -18.457 -19.332 -18.912 C -18.843 -19.38 -18.713 -19.545 -17.984 -19.565 C -17.835 -19.569 -17.678 -19.554 -17.522 -19.529 C -17.503 -19.546 -17.483 -19.562 -17.462 -19.578 C -16.984 -19.936 -16.169 -19.356 -16.169 -19.356 C -16.169 -19.356 -15.636 -19.447 -15.734 -19.744 C -15.832 -20.041 -16.561 -20.544 -16.279 -20.896 C -16.263 -20.917 -16.246 -20.937 -16.23 -20.957 C -16.616 -21.965 -17.07 -22.87 -18.754 -22.698 C -18.754 -22.698 -17.789 -23.277 -16.664 -23.116 C -15.858 -23 -15.174 -22.412 -14.758 -21.933 C -14.707 -21.937 -14.655 -21.94 -14.601 -21.941 C -13.913 -21.947 -14.168 -20.929 -13.735 -20.844 C -13.318 -20.763 -13.229 -21.703 -12.612 -21.547 C -12.296 -22.141 -12.311 -23.05 -12.153 -23.795 C -12.153 -23.795 -11.403 -23.174 -11.217 -22.307 C -11.101 -21.761 -11.207 -21.119 -11.301 -20.716 C -11.166 -20.522 -11.111 -20.303 -11.19 -20.061 C -11.384 -19.467 -11.614 -19.673 -11.538 -19.462 C -11.433 -19.165 -11.726 -19.427 -10.613 -18.455 C -10.139 -18.042 -9.487 -17.454 -8.74 -16.898 C -7.994 -16.341 -7.136 -15.578 -6.399 -15.018 C -5.708 -14.493 -5.05 -14.26 -4.567 -13.924 C -4.511 -14.018 -4.463 -14.113 -4.423 -14.212 L -1.893 -14.42 C -0.981 -14.938 -0.956 -15.38 -0.82 -15.831 C -1.438 -16.454 -2.456 -15.934 -3.323 -16.17 C -3.688 -16.269 -3.713 -16.718 -3.539 -16.841 C -3.452 -16.902 -3.357 -17.126 -3.208 -17.156 C -3.06 -17.186 -2.857 -17.022 -2.667 -17.04 C -1.956 -17.107 0.298 -17.147 1.023 -17.267 C 1.305 -17.757 1.333 -18.249 1.165 -18.695 C -0.621 -18.408 -2.357 -17.903 -4.313 -18.033 C -7.197 -18.225 -6.357 -19.534 -5.964 -19.965 C -5.589 -20.376 -4.108 -19.002 -2.828 -18.555 C -1.5 -18.092 -0.174 -18.567 1.154 -18.724 C 1.056 -18.969 0.9 -19.2 0.693 -19.408 C 0.225 -19.88 -0.696 -19.905 -1.632 -19.786 C -1.788 -19.99 -2.473 -20.369 -4.231 -20.295 C -4.865 -21.058 -4.97 -22.262 -4.203 -22.724 C -3.502 -23.147 -2.225 -22.951 -2.085 -23.037 C -1.264 -23.541 -1.632 -24.213 0.171 -24.5 C 1.972 -24.787 5.122 -24.186 5.122 -24.186 C 5.122 -24.186 6.153 -24.656 6.8 -24.709 C 7.446 -24.761 7.391 -24.761 7.707 -24.396 C 8.024 -24.03 8.347 -23.867 8.065 -23.246 C 7.783 -22.626 6.58 -21.914 6.58 -21.914 C 6.58 -21.914 6.015 -20.328 6.58 -19.225 C 7.143 -18.122 9.11 -17.345 9.11 -17.345 C 8.221 -17.3 7.534 -17.145 7.158 -16.823 C 6.946 -16.666 6.764 -16.364 6.855 -16.118 C 7.069 -15.535 8.23 -14.551 8.23 -14.551 C 8.23 -14.551 7.755 -14.76 7.515 -14.212 C 7.274 -13.663 7.268 -12.357 7.268 -12.357 C 7.268 -12.357 5.741 -12.339 5.369 -11.365 C 4.91 -10.16 5.855 -8.406 6.247 -8.301 C 6.025 -8.236 5.51 -8.115 5.059 -8.221 C 4.781 -7.586 4.301 -7.339 5.021 -5.372 Z M 3.075 4.433 C 2.842 4.007 2.543 3.533 2.248 3.017 C 2.542 3.533 2.841 4.008 3.075 4.434 C 3.127 4.528 3.143 4.631 3.132 4.739 C 3.143 4.631 3.128 4.527 3.075 4.433 Z M 10.545 -16.266 C 10.53 -16.285 10.524 -16.308 10.528 -16.335 C 10.533 -16.312 10.539 -16.289 10.545 -16.266 Z M 6.247 -8.301 C 6.318 -8.321 6.36 -8.336 6.36 -8.336 C 6.332 -8.299 6.293 -8.288 6.247 -8.301 Z M 2.009 -23.651 C 1.941 -23.952 1.329 -24.083 0.641 -23.943 C -0.046 -23.803 -0.547 -23.446 -0.48 -23.145 C -0.412 -22.844 0.201 -22.713 0.888 -22.853 C 1.575 -22.993 2.077 -23.35 2.009 -23.651 Z" style="fill:#000099;strokeWidth:0"/>
</svg>