<?xml version="1.0" encoding="utf-8"?>
<svg width="30%" viewBox="-31 -31 62 68" xmlns="http://www.w3.org/2000/svg">
  <path d="M 10.984 16.796 C 8.433 16.157 7.604 13.214 7.293 10.871 C 6.552 10.572 5.85 10.366 5.172 9.998 C 4.471 9.619 3.807 9.163 3.213 8.597 C 2.042 7.479 1.202 5.984 0.764 4.393 C 0.744 4.319 0.698 4.308 0.703 4.387 C 0.735 4.974 0.869 5.511 0.624 6.087 C -2.675 6.305 -6.428 6.709 -9.292 4.542 C -9.146 3.992 -9.166 3.646 -9.141 3.126 C -9.136 3.026 -9.212 3.041 -9.22 3.132 C -9.295 3.922 -9.481 4.612 -9.989 5.253 C -11.16 4.563 -12.442 4.047 -13.791 3.912 C -14.454 3.845 -15.143 3.863 -15.748 4.195 C -16.383 4.541 -16.693 5.368 -16.605 6.111 C -16.601 6.147 -16.62 6.191 -16.618 6.228 C -16.614 6.297 -16.585 6.356 -16.545 6.41 C -16.5 6.471 -16.445 6.511 -16.375 6.537 C -16.207 6.599 -16.049 6.539 -15.885 6.501 C -15.953 6.686 -16.04 6.824 -16.184 6.96 C -16.258 7.03 -16.24 7.11 -16.248 7.203 C -16.334 8.081 -16.722 9.001 -17.477 9.463 C -17.62 9.141 -17.71 8.891 -17.844 8.561 C -17.364 8.178 -16.889 7.855 -16.468 7.372 C -16.4 7.294 -16.402 7.225 -16.479 7.296 C -17.025 7.809 -17.558 8.093 -18.188 8.477 C -18.986 6.42 -18.223 4.071 -17.025 2.447 C -15.858 2.468 -14.804 2.233 -13.731 1.883 C -13.627 1.848 -13.533 1.808 -13.419 1.848 C -13.345 1.873 -13.293 1.835 -13.205 1.862 C -13.116 1.889 -13.103 1.771 -13.206 1.795 C -13.288 1.815 -13.299 1.736 -13.368 1.746 C -13.489 1.762 -13.544 1.69 -13.604 1.598 C -13.794 1.311 -13.856 0.994 -14.015 0.69 C -14.166 0.404 -14.132 0.079 -14.057 -0.232 C -13.979 -0.555 -13.852 -0.85 -13.712 -1.149 C -13.574 -1.447 -13.307 -1.671 -13.279 -2.005 C -13.169 -3.231 -13.399 -4.428 -13.635 -5.623 C -13.039 -6.255 -12.999 -7.441 -13.623 -8.028 C -13.333 -7.334 -13.285 -6.464 -13.793 -5.895 C -13.879 -5.799 -13.993 -5.761 -14.106 -5.743 C -14.781 -5.64 -15.46 -5.217 -15.763 -4.522 C -15.9 -4.213 -15.926 -3.874 -16.008 -3.56 C -16.097 -3.216 -16.513 -3.009 -16.658 -2.753 C -17.632 -2.489 -18.639 -3.161 -18.744 -4.243 C -18.761 -4.413 -18.788 -4.555 -18.707 -4.69 C -18.181 -5.561 -17.679 -6.426 -17.451 -7.417 C -17.636 -7.276 -17.704 -7.213 -17.857 -7.089 C -17.933 -7.027 -18.006 -7.06 -17.968 -7.148 C -17.855 -7.409 -17.752 -7.583 -17.636 -7.845 C -17.596 -7.935 -17.655 -7.985 -17.724 -7.908 C -17.805 -7.814 -17.869 -7.722 -17.982 -7.778 C -17.574 -8.996 -17.285 -11.057 -15.568 -11.013 C -15.639 -11.263 -15.664 -11.457 -15.739 -11.674 C -15.821 -11.91 -15.917 -12.101 -15.961 -12.372 C -15.402 -12.169 -15.116 -11.691 -14.775 -11.152 C -13.376 -11.537 -11.583 -11.137 -10.538 -12.517 C -10.51 -12.555 -10.564 -12.642 -10.51 -12.629 C -10.456 -12.616 -10.472 -12.573 -10.479 -12.528 C -10.584 -11.878 -10.915 -11.358 -11.325 -10.849 C -9.815 -11.025 -8.186 -11.031 -6.813 -10.245 C -6.75 -10.208 -6.8 -10.146 -6.87 -10.154 C -7.511 -10.224 -8.202 -10.317 -8.794 -9.988 C -7.789 -9.281 -6.635 -9.048 -5.432 -9.051 C -5.817 -8.482 -6.557 -8.567 -7.116 -8.471 C -6.436 -7.823 -5.695 -7.132 -5.426 -6.164 C -5.774 -6.261 -5.98 -6.58 -6.294 -6.731 C -6.324 -6.746 -6.343 -6.788 -6.379 -6.767 C -6.416 -6.747 -6.377 -6.715 -6.354 -6.685 C -5.849 -6.058 -5.26 -5.525 -4.605 -5.09 C -4.536 -5.044 -4.504 -4.953 -4.592 -4.953 C -4.879 -4.95 -5.122 -5.09 -5.363 -5.049 C -5.021 -4.473 -4.948 -3.642 -4.212 -3.441 C -4.448 -3.258 -4.603 -3.451 -4.851 -3.402 C -4.75 -3.281 -4.694 -3.147 -4.542 -3.033 C -4.402 -2.928 -4.469 -2.835 -4.518 -2.608 C -2.08 -5.467 -1.086 -9.259 -0.965 -13.048 C -0.96 -13.184 -0.919 -13.32 -0.847 -13.432 C -0.186 -14.455 0.61 -15.387 1.522 -16.155 C 1.554 -16.182 1.585 -16.227 1.628 -16.216 C 1.686 -16.201 1.648 -16.127 1.627 -16.072 C 1.367 -15.397 1.112 -14.744 0.824 -14.073 C 0.79 -13.991 0.82 -13.938 0.88 -14.001 C 6.522 -19.996 13.798 -23.64 21.254 -25.48 C 21.341 -25.501 21.433 -25.37 21.399 -25.274 C 20.749 -23.424 19.059 -22.47 17.566 -21.526 C 16.077 -20.585 14.43 -19.92 12.815 -19.26 C 9.567 -17.932 6.185 -16.852 3.358 -14.474 C 3.293 -14.419 3.35 -14.391 3.418 -14.437 C 7.797 -17.282 12.643 -18.908 17.764 -19.219 C 16.259 -17.002 13.775 -16.333 11.49 -15.718 C 9.284 -15.123 6.946 -14.741 4.858 -13.724 C 4.79 -13.691 4.775 -13.621 4.845 -13.648 C 7.983 -14.803 11.31 -15.444 14.714 -15.188 C 13.694 -13.536 11.909 -13.057 10.239 -12.756 C 8.648 -12.468 6.976 -12.391 5.378 -12.091 C 5.31 -12.078 5.288 -12.007 5.358 -12.015 C 7.69 -12.292 9.958 -12.135 12.245 -11.504 C 10.589 -9.492 7.852 -9.972 5.665 -9.988 C 5.627 -9.989 5.531 -10.026 5.541 -9.973 C 5.549 -9.921 5.602 -9.941 5.641 -9.935 C 6.492 -9.805 7.341 -9.634 8.174 -9.41 C 8.602 -9.293 9.026 -9.165 9.443 -9.023 C 9.656 -8.95 9.867 -8.872 10.077 -8.789 C 10.182 -8.748 10.288 -8.711 10.39 -8.657 C 10.477 -8.61 10.589 -8.649 10.646 -8.508 C 8.714 -7.505 6.467 -7.24 4.315 -7.505 C 5.679 -6.788 7.076 -6.142 8.37 -5.233 C 6.974 -4.339 5.259 -4.62 3.845 -5.171 C 3.78 -5.195 3.772 -5.136 3.837 -5.098 C 4.937 -4.45 6.007 -4.014 7.164 -3.474 C 5.833 -2.802 4.134 -2.687 2.735 -3.261 C 2.675 -3.286 2.673 -3.252 2.728 -3.21 C 3.693 -2.491 4.719 -2.018 5.756 -1.492 C 4.411 -0.859 2.81 -0.901 1.472 -1.487 C 1.412 -1.512 1.382 -1.483 1.434 -1.437 C 2.277 -0.669 3.073 0.063 3.976 0.757 C 1.797 1.394 0.064 -0.399 -2.015 -0.434 C -2.096 -0.435 -2.082 -0.374 -2.007 -0.355 C 0.057 0.205 2.094 1.339 4.333 0.873 C 3.825 0.325 3.127 -0.01 2.719 -0.64 C 3.885 -0.55 4.894 0.225 5.529 1.263 C 6.109 2.211 6.397 3.314 6.415 4.455 C 6.424 4.994 6.361 5.534 6.285 6.049 C 6.205 6.593 5.789 7.112 5.967 7.655 C 6.164 8.261 6.727 8.616 7.222 8.917 C 7.668 9.186 8.185 9.34 8.703 9.405 C 8.827 9.42 8.923 9.326 9.093 9.368 C 9.059 9.792 8.921 10.248 8.873 10.684 C 8.823 11.125 8.792 11.62 8.798 12.049 C 8.81 12.964 9.174 14.233 10.275 14.088 C 10.316 14.082 10.275 14.009 10.335 14.029 C 10.393 14.05 10.405 14.022 10.442 14.031 C 10.517 14.052 10.572 14.097 10.609 14.168 C 10.652 14.252 10.713 14.302 10.733 14.408 C 10.755 14.524 10.841 14.542 10.922 14.597 C 11.588 15.057 11.833 15.927 11.971 16.701 C 11.679 16.751 11.489 16.623 11.2 16.659 C 11.118 16.244 11.056 15.902 10.999 15.479 C 10.987 15.394 10.941 15.39 10.944 15.479 C 10.958 15.95 10.916 16.323 10.984 16.796 Z M -20.55 6.393 C -20.726 6.135 -20.732 5.78 -20.848 5.473 C -20.255 5.159 -19.758 4.78 -19.265 4.284 C -19.198 4.217 -19.272 4.197 -19.34 4.26 C -19.907 4.781 -20.508 5.052 -21.19 5.316 C -21.753 2.498 -19.266 0.731 -17.412 -0.399 C -17.143 -0.329 -16.916 -0.104 -16.646 0.002 C -16.384 0.105 -16.127 0.211 -15.857 0.285 C -15.368 0.421 -14.877 0.489 -14.356 0.509 C -14.212 0.95 -14 1.293 -13.867 1.733 C -14.598 2.121 -15.411 2.178 -16.194 2.371 C -16.471 1.396 -17.54 1.423 -18.227 1.762 C -18.902 2.093 -19.624 2.981 -19.002 3.793 C -18.976 3.827 -18.993 3.816 -18.966 3.851 C -18.938 3.884 -18.912 3.929 -18.955 3.948 C -19.073 4.003 -19.033 4.078 -19.056 4.166 C -19.287 5.049 -19.747 5.93 -20.55 6.393 Z M 2.451 15.263 C 2.295 15.591 2.095 15.916 1.785 16.095 C 1.691 15.997 1.615 15.881 1.56 15.774 C 1.496 15.648 1.326 15.513 1.353 15.385 C 1.373 15.292 1.532 15.27 1.605 15.207 C 1.703 15.121 1.847 15.048 1.944 14.951 C 2.034 14.862 2.183 14.795 2.227 14.685 C 2.247 14.637 2.135 14.682 2.098 14.721 C 2.043 14.778 1.967 14.809 1.892 14.859 C 1.642 15.026 1.424 15.096 1.141 15.247 C 0.901 15.376 0.88 14.971 0.844 14.742 C 0.806 14.497 0.771 14.208 0.773 13.945 C 0.778 13.43 0.86 12.895 1.021 12.403 C 1.185 11.897 1.413 11.418 1.701 10.971 C 1.866 10.712 2.047 10.472 2.239 10.23 C 2.296 10.159 2.347 10.107 2.427 10.03 C 2.543 9.915 2.37 9.843 2.267 9.765 C 1.286 9.028 0.463 8.048 -0.194 6.972 C -0.265 6.858 -0.335 6.741 -0.401 6.627 C -0.428 6.579 -0.463 6.523 -0.481 6.477 C -0.503 6.416 -0.384 6.424 -0.32 6.407 C -0.112 6.344 0.132 6.403 0.36 6.357 C 0.588 6.312 0.811 6.335 1.053 6.285 C 1.185 6.258 1.257 6.387 1.313 6.511 C 1.372 6.644 1.452 6.759 1.524 6.881 C 2.129 7.905 2.953 8.774 3.895 9.432 C 4.094 9.572 4.236 9.791 4.379 9.994 C 4.444 10.086 4.493 10.194 4.55 10.29 C 4.583 10.347 4.594 10.406 4.638 10.468 C 4.685 10.536 4.597 10.573 4.531 10.581 C 4.295 10.604 4.064 10.686 3.848 10.784 C 3.586 10.902 3.33 11.063 3.104 11.257 C 2.74 11.569 2.419 11.972 2.31 12.46 C 2.254 12.708 2.289 12.975 2.385 13.206 C 2.445 13.35 2.544 13.476 2.634 13.598 C 2.724 13.723 2.928 13.765 2.96 13.887 C 2.975 13.941 2.854 13.998 2.833 14.058 C 2.815 14.107 2.817 14.175 2.801 14.232 C 2.706 14.581 2.606 14.935 2.451 15.263 Z M 15.524 12.64 C 13.673 12.898 12.099 11.619 10.985 10.164 C 10.952 10.122 10.9 10.065 10.866 10.076 C 10.825 10.091 10.86 10.166 10.888 10.228 C 11.115 10.717 11.541 10.927 11.767 11.479 C 9.677 10.308 8.788 7.754 8.069 5.578 C 7.978 6.011 8.086 6.54 8.229 6.959 C 8.242 6.998 8.281 7.047 8.267 7.086 C 8.245 7.14 8.178 7.075 8.143 7.026 C 7.157 5.651 7.764 3.5 6.383 2.342 C 6.332 2.299 6.262 2.353 6.224 2.282 C 6.185 2.213 6.169 2.18 6.142 2.112 C 6.091 1.979 6.067 1.919 5.988 1.75 C 7.327 1.26 8.762 1.809 9.838 2.679 C 9.887 2.719 9.898 2.78 9.823 2.768 C 9.609 2.732 9.517 2.61 9.295 2.608 C 10.521 3.871 11.485 5.768 13.322 6.111 C 13.401 6.126 13.382 6.203 13.304 6.215 C 12.901 6.276 12.53 6.289 12.126 6.19 C 12.07 6.176 12.067 6.271 12.109 6.307 C 13.632 7.615 15.983 8.298 17.761 7.076 C 17.287 7.913 16.366 8.265 15.537 8.28 C 16.864 8.836 18.899 8.564 19.444 6.856 C 19.482 7.472 19.205 7.987 18.965 8.499 C 19.839 8.11 20.474 7.24 20.72 6.283 C 20.737 6.211 20.811 6.198 20.814 6.276 C 20.854 6.957 20.776 7.592 20.47 8.178 C 20.43 8.255 20.453 8.343 20.52 8.292 C 21.232 7.735 21.578 6.86 21.587 5.951 C 21.587 5.868 21.624 5.817 21.594 5.702 C 21.558 5.561 21.661 5.605 21.676 5.705 C 21.841 6.812 21.694 7.946 21.181 8.913 C 21.142 8.988 21.145 9.082 21.218 8.995 C 21.331 8.857 21.379 8.799 21.467 8.67 C 21.516 8.597 21.595 8.599 21.576 8.675 C 21.107 10.539 19.291 11.55 17.671 11.598 C 17.678 11.756 17.779 11.659 17.838 11.713 C 17.899 11.771 17.971 11.726 18.05 11.748 C 18.152 11.775 18.205 11.683 18.343 11.747 C 17.327 12.621 15.809 12.603 14.667 12.027 C 14.586 11.987 14.573 12.038 14.661 12.106 C 14.964 12.339 15.184 12.459 15.526 12.581 C 15.61 12.611 15.606 12.628 15.524 12.64 Z M -1.421 -13.678 C -1.519 -10.218 -2.195 -6.745 -4.137 -3.894 C -4.179 -4.138 -4.148 -4.387 -4.149 -4.636 C -4.152 -4.884 -4.149 -5.131 -4.149 -5.379 C -4.147 -5.876 -4.151 -6.374 -4.183 -6.867 C -4.248 -7.867 -4.355 -8.861 -4.526 -9.838 C -4.702 -10.848 -4.944 -11.845 -5.241 -12.814 C -5.316 -13.06 -5.484 -13.307 -5.392 -13.553 C -5.303 -13.792 -5.197 -14.01 -5.106 -14.242 C -4.903 -14.75 -4.678 -15.26 -4.388 -15.722 C -4.251 -15.938 -4.092 -16.151 -3.918 -16.324 C -3.836 -16.404 -3.733 -16.515 -3.65 -16.522 C -3.606 -16.527 -3.631 -16.389 -3.652 -16.345 C -3.678 -16.295 -3.676 -16.197 -3.689 -16.128 C -3.736 -15.89 -3.804 -15.622 -3.829 -15.391 C -3.839 -15.285 -3.915 -15.118 -3.879 -15.051 C -3.826 -14.95 -3.662 -15.166 -3.538 -15.272 C -2.692 -15.991 -1.79 -16.671 -0.865 -17.282 C 0.856 -18.415 2.673 -19.349 4.535 -20.129 C 6.325 -20.879 8.163 -21.494 10.018 -22.003 C 10.125 -22.032 10.234 -22.053 10.342 -22.093 C 10.393 -22.113 10.43 -22.1 10.503 -22.121 C 10.598 -22.148 10.566 -22.047 10.499 -22.015 C 10.257 -21.901 10.039 -21.775 9.81 -21.648 C 9.358 -21.398 8.919 -21.146 8.485 -20.879 C 7.607 -20.34 6.74 -19.757 5.902 -19.135 C 4.976 -18.447 4.074 -17.71 3.21 -16.93 C 3.014 -16.753 2.815 -16.578 2.631 -16.388 C 2.526 -16.282 2.403 -16.192 2.308 -16.081 C 2.225 -15.982 2.056 -15.851 2.096 -16.005 C 2.174 -16.299 2.245 -16.507 2.346 -16.753 C 2.451 -17.009 2.564 -17.252 2.69 -17.491 C 2.724 -17.554 2.747 -17.62 2.788 -17.676 C 2.821 -17.724 2.845 -17.819 2.789 -17.79 C 2.648 -17.713 2.54 -17.621 2.418 -17.533 C 2.201 -17.378 1.996 -17.211 1.791 -17.038 C 1.365 -16.682 0.956 -16.309 0.563 -15.91 C -0.134 -15.201 -0.789 -14.466 -1.421 -13.678 Z" style="fill:#000099;strokeWidth:0"/>
</svg>