<?xml version="1.0" encoding="utf-8"?>
<svg width="30%" viewBox="-31 -31 62 68" xmlns="http://www.w3.org/2000/svg">
  <path d="M 18.759 -2.186 C 18.262 -0.203 17.728 1.617 17.122 3.279 C 17.18 3.326 17.244 3.359 17.298 3.406 C 18.928 4.818 18.321 7.841 16.932 9.266 C 16.061 10.159 14.046 11.742 12.458 12.245 C 11.769 12.115 6.913 11.356 7.524 15.889 C 7.228 16.005 6.922 16.109 6.608 16.206 L 6.608 14.9 L 6.061 14.9 L 6.061 16.366 C 5.362 16.554 4.629 16.7 3.865 16.806 L 3.865 14.9 L 3.317 14.9 L 3.317 16.88 C 2.581 16.965 1.817 17.009 1.037 17.025 L 1.037 14.9 L 0.491 14.9 L 0.491 17.035 C 0.484 17.035 0.477 17.035 0.47 17.035 C -0.313 17.035 -1.076 16.999 -1.819 16.933 L -1.819 14.9 L -2.365 14.9 L -2.365 16.882 C -3.168 16.79 -3.938 16.653 -4.674 16.476 L -4.674 14.9 L -5.222 14.9 L -5.222 16.335 C -5.677 16.208 -6.118 16.068 -6.539 15.906 C -6.314 12.279 -9.948 12.472 -11.191 12.643 C -12.727 12.055 -14.557 10.609 -15.376 9.768 C -16.712 8.395 -17.319 5.553 -15.915 4.08 C -16.802 1.959 -17.564 -0.412 -18.288 -2.996 C -21.261 -13.602 -11.401 -24.412 0.229 -24.412 C 11.859 -24.412 21.43 -12.864 18.759 -2.186 Z M -2.193 -3.951 C -3.184 -5.555 -10.883 -6.018 -12.226 -4.106 C -13.79 -1.881 -13.728 3.724 -11.063 5.252 C -8.399 6.779 -6.228 4.147 -4.229 2.781 C -2.231 1.414 -1.201 -2.347 -2.193 -3.951 Z M 0.966 2.541 C 0.896 2.405 0.79 2.289 0.676 2.206 C 0.618 2.117 0.536 2.082 0.441 2.09 C 0.435 2.089 0.43 2.091 0.423 2.09 C 0.417 2.091 0.412 2.089 0.405 2.09 C 0.31 2.082 0.229 2.117 0.172 2.206 C 0.058 2.29 -0.049 2.405 -0.12 2.541 C -0.359 2.994 -2.348 8.614 -2.03 9.516 C -1.784 10.212 -0.259 9.296 0.423 8.843 C 1.106 9.296 2.63 10.212 2.875 9.516 C 3.194 8.615 1.204 2.994 0.966 2.541 Z M 12.857 -4.607 C 11.382 -6.429 3.733 -5.484 2.857 -3.821 C 1.979 -2.158 3.271 1.532 5.362 2.768 C 7.452 4.004 9.804 6.495 12.355 4.804 C 14.905 3.112 14.572 -2.484 12.857 -4.607 Z" style="fill:#000099;strokeWidth:0"/>
</svg>