<?xml version="1.0" encoding="utf-8"?><svg xmlns="http://www.w3.org/2000/svg" width="500" height="600"><path d="M0.5,0.5V350C0.5,488.223,111.777,599.5,250,599.5S499.5,488.223,499.5,350V0.5z" stroke-linejoin="round" stroke-linecap="round" stroke-miterlimit="4" stroke="#000" fill="#e3e4e5"/><path d="m0.5,0.5,0,130.469c2.15338,0.61379,4.3221,1.13422,6.46875,1.53125,16.3387,3.02186,33.0999,12.3582,46.4688,27.3125,13.3686,14.9541,20.7883,32.7063,21.9688,49.2812,1.18042,16.575,8.60014,34.2959,21.9688,49.25,13.3676,14.953,30.1603,24.2896,46.5,27.3125,16.3396,3.02294,33.1324,12.3595,46.5,27.3125,13.3667,14.9519,20.758,32.6761,21.9375,49.25,1.17945,16.5739,8.60206,34.3293,21.9688,49.2812,13.3676,14.953,30.1603,24.2896,46.5,27.3125,16.3396,3.02293,33.1324,12.3595,46.5,27.3125s20.7893,32.6761,21.9688,49.25c1.17938,16.5738,8.56985,34.297,21.9375,49.25,0.73731,0.82475,1.49254,1.64698,2.25,2.4375,50.3998-28.6247,89.7314-74.2911,110.281-129.281-6.15526-10.8354-9.68862-22.287-10.4688-33.25-1.17945-16.5739-8.6011-34.297-21.9688-49.25-13.3676-14.953-30.1604-24.3208-46.5-27.3438-16.3397-3.02296-33.1324-12.3595-46.5-27.3125-13.3667-14.9519-20.758-32.6761-21.9375-49.25-1.17944-16.5739-8.60206-34.2981-21.9688-49.25-13.3676-14.953-30.1603-24.2896-46.5-27.3125-16.3396-3.02295-33.1324-12.3908-46.5-27.3438-13.3686-14.9541-20.7883-32.6751-21.9688-49.25-1.18042-16.575-8.56889-34.2959-21.9375-49.25-13.3688-14.9543-31.3562-24.5119-46.5-27.3125s-28.24-9.80225-40.4368-21.1566z" stroke-linejoin="round" stroke-linecap="round" stroke-miterlimit="4" stroke="#000" fill="#808080"/><path d="M1.5,1.5V350C1.5,487.669,112.331,598.5,250,598.5S498.5,487.669,498.5,350V1.5z" stroke-linejoin="round" stroke-linecap="round" stroke-miterlimit="4" stroke-width="3" stroke="#000" fill="none"/>
</svg>