<?xml version="1.0" encoding="utf-8"?><svg xmlns="http://www.w3.org/2000/svg" width="500" height="600"><path d="M0.5,0.5V350C0.5,488.223,111.777,599.5,250,599.5S499.5,488.223,499.5,350V0.5z" stroke-linejoin="round" stroke-linecap="round" stroke-miterlimit="4" stroke="#000" fill="#e3e4e5"/><path d="m0.5,0.5v138.906l55.0117-14.976-34.289,86.427,89.7163-24.425-34.2867,86.429,89.7167-24.427-34.289,86.429,89.719-24.427-34.289,86.429,89.717-24.426-34.288,86.43,89.717-24.428-34.289,86.43,89.719-24.426-31.475,79.336c73.114-34.433,126.564-103.273,139.731-185.906l-73.969,20.139,34.287-86.432-89.715,24.43,34.287-86.432-89.716,24.428,34.289-86.43-89.717,24.428,34.287-86.432-89.717,24.43,34.287-86.4317-89.716,24.4277,34.289-86.4297-89.7172,24.4258,14.8752-37.4961z" stroke-linejoin="round" stroke-linecap="round" stroke-miterlimit="4" stroke="#000" fill="#808080"/><path d="M1.5,1.5V350C1.5,487.669,112.331,598.5,250,598.5S498.5,487.669,498.5,350V1.5z" stroke-linejoin="round" stroke-linecap="round" stroke-miterlimit="4" stroke-width="3" stroke="#000" fill="none"/>
</svg>